if (_typeface_js && _typeface_js.loadFace) _typeface_js.loadFace({"glyphs":{"0":{"ha":806,"x_min":0,"x_max":806,"o":"m 532 240 q 519 198 532 213 q 483 183 506 183 q 464 186 478 183 q 440 203 449 189 q 431 240 431 217 l 431 706 q 482 747 440 747 q 532 706 522 747 l 532 240 m 763 778 q 731 881 763 844 q 654 918 699 918 l 307 918 q 233 881 264 918 q 201 778 201 844 l 201 151 q 210 94 201 121 q 235 46 218 67 q 279 13 253 25 q 342 0 306 0 q 510 0 450 0 q 598 0 569 0 q 633 1 626 0 q 642 1 639 1 q 697 16 674 7 q 734 42 719 25 q 756 85 749 58 q 763 151 763 111 l 763 778 m 806 151 q 763 8 806 57 q 621 -42 719 -42 l 326 -42 q 194 0 250 -42 q 124 117 139 42 q 64 397 94 258 q 4 676 33 536 q 0 718 0 697 q 13 781 0 751 q 58 831 26 811 q 99 848 79 844 q 143 851 119 851 l 167 851 q 219 928 183 896 q 307 960 256 960 l 654 960 q 720 944 692 960 q 767 902 749 928 q 796 844 786 876 q 806 779 806 811 l 806 151 z "},"1":{"ha":711,"x_min":0,"x_max":711,"o":"m 669 203 l 551 203 l 551 918 l 296 918 l 200 717 l 317 717 l 317 203 l 200 203 l 200 0 l 669 0 l 669 203 m 157 -42 l 103 221 l 157 221 l 157 246 l 214 246 l 140 589 l 0 589 l 88 851 l 218 851 l 269 960 l 593 960 l 593 246 l 711 246 l 711 -42 l 157 -42 z "},"2":{"ha":817,"x_min":0,"x_max":817,"o":"m 772 199 l 543 199 q 672 364 615 268 q 688 391 679 378 q 703 419 696 404 q 757 573 742 501 q 772 729 772 644 q 770 790 772 757 q 758 851 768 822 q 725 899 747 879 q 661 918 703 918 l 315 918 q 238 892 272 914 q 204 818 204 869 l 204 519 l 435 519 l 435 682 q 446 718 435 707 q 478 732 457 729 l 486 732 q 522 720 510 732 q 533 681 533 708 q 526 628 533 663 q 508 558 518 589 q 485 497 499 526 q 455 440 472 468 q 413 378 438 411 q 208 189 322 260 l 208 0 l 772 0 l 772 199 m 165 -42 l 118 186 q 240 285 186 231 q 328 414 294 339 l 64 414 q 30 567 49 489 q 1 719 11 644 q 0 731 0 725 q 0 742 0 736 q 15 797 0 775 q 52 831 29 818 q 105 847 75 843 q 165 851 135 851 q 218 933 181 906 q 314 960 256 960 q 372 960 343 960 q 429 961 400 961 q 545 960 488 961 q 661 960 603 960 q 764 927 729 960 q 808 831 799 894 q 817 728 817 781 q 770 469 817 594 q 639 242 724 344 l 815 242 l 815 -42 l 165 -42 z "},"3":{"ha":811,"x_min":0,"x_max":811,"o":"m 769 810 q 727 892 769 865 q 631 918 685 918 l 322 918 q 233 896 258 918 q 208 818 208 874 l 208 582 l 443 582 l 443 688 q 479 728 443 721 l 489 728 q 524 716 511 728 q 536 685 536 704 l 536 594 q 526 555 536 565 q 489 544 517 544 l 429 544 l 429 368 l 488 368 q 524 359 514 368 q 533 326 533 350 l 533 224 q 485 172 533 172 q 440 222 440 172 l 440 315 l 208 315 l 208 107 q 230 33 208 65 q 303 0 251 0 l 646 0 q 731 38 701 0 q 765 129 760 75 l 765 357 q 724 426 756 401 q 643 456 692 450 q 710 485 685 471 q 748 515 735 499 q 765 553 761 532 q 769 606 769 575 l 769 810 m 811 606 q 803 523 811 561 q 758 457 794 485 q 802 379 794 419 q 810 294 810 339 l 810 179 q 805 99 810 139 q 783 28 800 60 q 731 -22 765 -3 q 639 -42 697 -42 l 294 -42 q 192 -8 232 -42 q 139 86 153 25 l 88 321 l 165 321 l 165 357 l 300 357 l 276 469 l 57 469 l 6 711 q 0 751 0 732 q 14 804 0 785 q 51 834 28 824 q 104 848 74 844 q 168 851 135 851 q 220 938 179 917 q 321 960 261 960 l 631 960 q 764 921 717 960 q 811 794 811 882 l 811 606 z "},"4":{"ha":807,"x_min":0,"x_max":807,"o":"m 333 342 l 467 725 l 467 342 l 333 342 m 764 340 l 700 340 l 700 918 l 357 918 l 89 164 l 469 164 l 469 0 l 703 0 l 703 163 l 764 163 l 764 340 m 776 118 l 781 100 l 746 100 l 746 -42 l 428 -42 l 396 100 l 0 100 l 143 851 l 289 851 l 328 960 l 742 960 l 742 383 l 807 383 l 807 118 l 776 118 z "},"5":{"ha":833,"x_min":0,"x_max":833,"o":"m 789 542 q 756 607 789 586 q 675 628 722 628 l 483 628 l 483 717 l 763 717 l 763 918 l 232 918 l 232 435 l 560 435 l 560 238 q 551 186 560 203 q 519 169 543 169 l 494 169 q 465 186 476 169 q 453 239 453 203 l 453 319 l 232 319 l 232 108 q 258 28 232 57 q 338 0 285 0 l 667 0 q 719 13 696 0 q 757 45 742 25 q 781 92 772 65 q 789 147 789 118 l 789 542 m 833 147 q 789 13 833 67 q 660 -42 744 -42 l 329 -42 q 221 -9 265 -42 q 163 86 176 24 q 137 206 149 147 q 111 324 125 265 l 189 324 l 189 340 l 108 340 l 0 851 l 189 851 l 189 960 l 806 960 l 806 669 l 663 669 q 726 663 696 669 q 781 642 757 657 q 819 605 804 628 q 833 547 833 582 l 833 147 z "},"6":{"ha":803,"x_min":0,"x_max":803,"o":"m 525 214 q 494 168 525 168 l 475 168 q 449 181 458 168 q 440 214 440 193 l 440 325 q 449 366 440 354 q 476 378 458 378 l 494 378 q 517 363 510 378 q 525 325 525 347 l 525 214 m 758 669 q 759 724 758 694 q 760 779 760 753 q 757 835 760 810 q 744 879 754 861 q 711 908 733 897 q 650 918 689 918 l 329 918 q 234 892 263 918 q 206 804 206 865 l 206 128 q 210 100 206 121 q 228 57 214 79 q 269 17 243 35 q 340 0 296 0 l 629 0 q 724 30 692 0 q 756 131 756 60 l 756 432 q 729 524 756 496 q 647 553 703 553 l 440 553 l 440 689 q 486 743 440 736 l 499 743 q 560 657 560 743 l 560 610 l 758 610 l 758 669 m 746 568 l 750 565 q 788 504 778 538 q 797 432 797 471 l 797 117 q 758 0 797 42 q 643 -42 718 -42 l 318 -42 q 256 -30 288 -42 q 197 3 224 -18 q 153 51 171 24 q 132 111 135 79 l 6 700 q 0 740 0 721 q 14 795 0 774 q 51 829 28 817 q 104 847 74 842 q 168 851 135 851 q 226 937 183 914 q 329 960 269 960 l 650 960 q 726 948 696 960 q 773 915 756 936 q 797 866 790 894 q 803 804 803 838 l 803 568 l 746 568 z "},"7":{"ha":929,"x_min":0,"x_max":929,"o":"m 232 918 l 232 717 l 549 717 l 238 0 l 472 0 l 865 918 l 232 918 m 500 -42 l 172 -42 l 350 588 l 56 588 l 0 851 l 189 851 l 189 960 l 929 960 l 500 -42 z "},"8":{"ha":794,"x_min":0,"x_max":794,"o":"m 526 225 q 522 193 526 204 q 504 174 518 182 q 479 167 493 167 q 453 174 463 167 q 429 215 429 188 q 430 220 429 218 q 431 225 431 222 q 432 279 432 254 q 432 317 432 300 q 433 338 432 335 q 479 371 442 371 q 508 363 494 371 q 526 338 521 354 l 526 307 l 526 225 m 524 603 q 476 547 524 547 q 444 561 457 547 q 432 603 432 575 l 432 719 q 444 747 432 736 q 476 758 456 758 q 512 747 500 758 q 524 719 524 736 l 524 603 m 750 376 q 706 442 742 418 q 631 467 671 467 q 674 478 653 472 q 713 494 696 483 q 740 522 729 504 q 750 568 750 539 l 750 842 q 715 898 742 878 q 650 918 689 918 l 307 918 q 269 910 288 918 q 237 890 251 903 q 213 860 222 876 q 204 825 204 843 l 204 565 q 215 520 204 538 q 242 493 225 503 q 282 478 260 483 q 326 467 304 472 q 285 460 307 467 q 247 443 264 454 q 218 415 229 432 q 207 376 207 397 l 207 100 q 240 24 207 47 q 328 0 272 0 l 681 0 q 722 22 703 0 q 750 93 742 44 l 750 376 m 794 106 q 787 53 794 79 q 764 6 779 26 q 726 -28 749 -15 q 674 -42 703 -42 l 279 -42 q 191 -15 222 -42 q 143 53 160 13 q 119 144 126 94 q 103 238 111 193 q 92 286 97 263 q 86 333 86 310 q 91 368 86 351 q 110 401 96 385 q 69 442 83 419 q 49 496 56 465 l 3 719 q 1 732 1 726 q 0 744 0 738 q 11 790 0 769 q 40 823 22 810 q 81 844 58 836 q 128 851 104 851 q 147 849 136 851 q 163 847 157 847 q 213 928 174 896 q 306 960 251 960 l 650 960 q 705 950 679 960 q 751 923 731 940 q 783 881 771 906 q 794 828 794 857 l 794 583 q 787 520 794 550 q 749 467 779 490 q 785 415 775 442 q 794 357 794 389 l 794 106 z "},"9":{"ha":796,"x_min":0,"x_max":796,"o":"m 519 597 q 479 539 519 539 q 465 540 471 539 q 442 559 451 546 q 433 593 433 572 l 433 694 q 440 732 433 719 q 461 749 447 744 q 471 751 467 750 q 479 751 475 751 q 519 711 511 751 l 519 597 m 751 788 q 720 886 751 854 q 618 918 689 918 l 329 918 q 253 905 279 918 q 213 857 228 892 q 206 831 208 844 q 203 788 203 817 l 203 486 q 230 393 203 421 q 311 365 257 365 l 519 365 l 519 229 q 507 190 519 206 q 471 175 494 175 l 457 175 q 400 260 400 175 l 400 308 l 197 308 l 197 92 q 233 24 197 47 q 310 0 268 0 l 629 0 q 724 27 696 0 q 751 113 751 54 l 751 788 m 796 113 q 753 -1 796 39 q 629 -42 711 -42 l 301 -42 q 206 -24 249 -42 q 140 46 164 -7 q 103 177 113 106 q 81 315 94 249 l 121 315 q 83 361 97 335 q 63 418 69 388 l 7 683 q 0 738 0 715 q 14 792 0 771 q 51 827 28 814 q 103 846 74 840 q 165 853 133 851 q 226 937 182 914 q 329 960 269 960 l 619 960 q 754 913 713 960 q 796 789 796 865 l 796 113 z "},"!":{"ha":496,"x_min":0,"x_max":496,"o":"m 451 219 l 232 219 l 232 0 l 451 0 l 451 219 m 451 918 l 232 918 l 232 279 l 451 279 l 451 918 m 188 -42 l 0 851 l 188 851 l 188 960 l 496 960 l 496 -42 l 188 -42 z "},"\"":{"ha":740,"x_min":0,"x_max":740,"o":"m 185 915 l 61 596 l 221 596 l 410 915 l 185 915 m 443 915 l 319 596 l 476 596 l 668 915 l 443 915 m 501 553 l 258 553 l 260 579 l 244 553 l 0 553 l 0 797 l 96 797 l 157 957 l 740 957 l 501 553 z "},"#":{"ha":828,"x_min":0,"x_max":828,"o":"m 382 625 l 367 547 l 444 547 l 460 625 l 382 625 m 481 503 l 314 503 l 347 668 l 513 668 l 481 503 m 614 754 l 646 915 l 561 915 l 529 754 l 364 754 l 396 915 l 311 915 l 279 754 l 118 754 l 101 668 l 263 668 l 231 503 l 69 503 l 53 418 l 213 418 l 182 257 l 265 257 l 297 418 l 464 418 l 432 257 l 517 257 l 549 418 l 708 418 l 725 503 l 565 503 l 597 668 l 758 668 l 775 754 l 614 754 m 793 625 l 633 625 l 618 547 l 778 547 l 744 375 l 583 375 l 553 214 l 379 214 l 411 375 l 333 375 l 301 214 l 129 214 l 161 375 l 0 375 l 33 547 l 194 547 l 210 625 l 49 625 l 83 797 l 243 797 l 275 958 l 449 958 l 417 797 l 494 797 l 525 958 l 699 958 l 667 797 l 828 797 l 793 625 z "},"$":{"ha":672,"x_min":0,"x_max":672,"o":"m 626 415 q 603 494 626 465 q 528 522 581 522 l 413 522 l 413 649 l 626 649 l 626 825 l 451 825 l 451 931 l 368 931 l 368 824 q 347 826 357 825 q 325 826 336 826 q 257 814 283 826 q 216 778 231 801 q 197 725 201 756 q 192 657 192 694 l 192 444 q 215 353 192 390 q 300 315 239 315 l 404 315 l 404 183 l 190 183 l 190 0 l 367 0 l 367 -101 l 450 -101 l 450 0 l 494 0 q 595 31 565 0 q 626 139 625 63 l 626 415 m 525 603 l 533 567 q 638 526 606 565 q 671 417 671 488 q 670 339 671 378 q 669 261 669 300 l 669 106 q 656 36 669 65 q 617 -12 642 7 q 561 -40 593 -31 q 493 -50 529 -50 l 493 -146 l 321 -146 l 313 -50 l 136 -50 l 85 200 l 146 200 l 146 231 l 221 231 q 133 253 167 232 q 78 307 99 274 q 48 382 58 340 q 28 467 38 424 q 7 569 14 532 q 0 633 0 606 q 38 734 0 703 q 142 767 76 765 l 124 861 l 249 861 q 285 870 265 868 q 324 872 304 872 l 324 978 l 496 978 l 496 871 l 672 871 l 672 603 l 525 603 z "},"%":{"ha":1361,"x_min":0,"x_max":1361,"o":"m 465 450 q 455 424 465 435 q 428 413 444 413 q 401 424 413 413 q 390 450 390 435 l 390 782 q 401 808 390 797 q 428 819 413 819 q 455 808 444 819 q 465 782 465 797 l 465 450 m 1178 136 q 1167 108 1178 119 q 1139 97 1156 97 q 1113 108 1124 97 q 1101 136 1101 119 l 1101 467 q 1113 493 1101 482 q 1139 504 1124 504 q 1167 493 1156 504 q 1178 467 1178 482 l 1178 136 m 607 822 q 579 889 607 861 q 513 917 551 917 l 344 917 q 277 889 304 917 q 250 822 250 861 l 250 410 q 277 343 250 371 q 344 315 304 315 l 513 315 q 579 343 551 315 q 607 410 607 371 l 607 822 m 965 917 l 490 0 l 618 0 l 1094 917 l 965 917 m 1318 507 q 1290 574 1318 546 q 1224 601 1263 601 l 1056 601 q 989 574 1017 601 q 961 507 961 546 l 961 96 q 989 28 961 56 q 1056 0 1017 0 l 1224 0 q 1290 28 1263 0 q 1318 96 1318 56 l 1318 507 m 1361 96 q 1350 42 1361 67 q 1320 -2 1339 17 q 1276 -32 1301 -21 q 1224 -43 1251 -43 l 1015 -43 q 962 -34 988 -43 q 914 -8 936 -25 q 876 31 892 8 q 856 82 861 54 l 813 282 l 644 -43 l 382 -43 l 496 272 l 243 272 q 189 281 215 272 q 141 307 163 290 q 103 347 119 324 q 82 397 88 369 l 3 775 q 1 788 1 782 q 0 800 0 793 q 25 868 0 839 q 67 898 42 888 q 118 908 92 908 l 236 908 q 284 946 256 932 q 344 960 313 960 l 513 960 q 565 949 540 960 q 609 919 590 938 q 639 875 628 900 q 650 822 650 850 l 650 697 l 711 865 l 890 865 l 939 960 l 1165 960 l 994 631 q 1056 644 1021 644 l 1224 644 q 1276 634 1251 644 q 1320 605 1301 624 q 1350 561 1339 586 q 1361 507 1361 536 l 1361 96 z "},"&":{"ha":1099,"x_min":0,"x_max":1099,"o":"m 574 260 q 565 221 574 239 q 541 189 556 203 q 506 167 526 175 q 465 158 486 158 q 391 188 424 158 q 358 264 358 218 q 367 304 358 285 q 390 339 375 324 q 424 364 404 354 q 465 374 443 374 q 493 369 478 374 l 574 260 m 554 685 q 549 657 554 668 q 536 638 544 646 q 517 624 528 631 q 493 608 506 617 q 453 641 469 626 q 438 688 438 656 q 439 728 438 713 q 446 750 440 743 q 463 759 451 757 q 492 761 474 761 l 522 761 q 549 748 543 761 q 556 717 556 735 q 555 701 556 710 q 554 685 554 692 m 1013 0 q 993 26 1008 4 q 956 76 978 47 q 909 137 933 104 q 865 197 885 169 q 831 242 844 224 q 818 260 818 260 q 858 268 836 268 q 922 247 894 268 l 968 425 q 912 442 940 436 q 854 447 883 447 q 784 438 819 447 q 708 404 749 428 l 643 492 q 691 516 668 504 q 731 544 714 528 q 758 583 749 560 q 768 642 768 606 l 768 838 q 763 872 768 858 q 747 896 758 885 q 720 915 733 911 q 671 918 707 918 l 319 918 q 235 895 261 918 q 210 833 210 872 l 210 642 q 213 613 210 625 q 229 586 215 600 l 307 501 q 297 494 303 497 q 211 391 240 451 q 182 264 182 331 q 203 158 182 210 q 263 67 225 107 q 353 4 301 28 q 467 -19 406 -19 q 553 -6 511 -19 q 635 36 596 8 q 676 72 658 53 q 708 114 693 92 l 792 0 l 1013 0 m 771 -42 l 694 29 l 676 15 q 579 -44 632 -25 q 469 -62 526 -62 q 344 -42 407 -62 q 229 15 282 -21 q 138 102 176 51 q 85 214 100 153 q 76 278 76 244 q 142 438 76 368 q 108 463 125 451 q 78 488 92 475 q 53 517 64 501 q 39 556 43 533 l 3 726 q 1 739 1 733 q 0 750 0 744 q 10 789 0 772 q 36 816 19 806 q 74 831 53 826 q 117 836 94 836 l 167 836 q 182 892 168 869 q 217 931 196 915 q 264 953 238 946 q 318 960 290 960 l 671 960 q 771 932 731 960 q 811 838 811 904 l 811 642 q 788 542 811 579 q 711 476 765 506 q 715 467 711 472 q 721 460 719 461 q 850 490 790 490 q 931 479 890 490 q 1018 450 972 468 l 949 178 l 921 196 l 1099 -42 l 771 -42 z "},"'":{"ha":482,"x_min":0,"x_max":482,"o":"m 185 915 l 60 596 l 218 596 l 408 915 l 185 915 m 242 553 l 0 553 l 0 803 l 94 803 l 156 957 l 482 957 l 242 553 z "},"(":{"ha":679,"x_min":0,"x_max":679,"o":"m 636 0 l 494 0 l 494 725 l 636 725 l 636 924 l 365 924 q 279 888 315 924 q 243 803 243 853 l 243 -78 q 279 -163 243 -128 q 365 -199 315 -199 l 636 -199 l 636 0 m 365 -242 q 301 -231 333 -242 q 244 -200 269 -219 q 199 -153 218 -181 q 174 -93 181 -125 l 3 715 q 1 730 1 722 q 0 744 0 738 q 29 825 0 789 q 78 862 50 850 q 139 874 107 874 l 217 874 q 276 941 236 915 q 365 967 317 967 l 679 967 l 679 682 l 538 682 l 538 43 l 679 43 l 679 -242 l 365 -242 z "},")":{"ha":714,"x_min":0,"x_max":714,"o":"m 671 803 q 635 888 671 853 q 549 924 599 924 l 278 924 l 278 725 l 419 725 l 419 0 l 278 0 l 278 -199 l 549 -199 q 635 -163 599 -199 q 671 -78 671 -128 l 671 803 m 714 -78 q 701 -141 714 -111 q 665 -193 688 -171 q 613 -228 643 -215 q 549 -242 583 -242 l 235 -242 l 179 24 l 235 24 l 235 43 l 315 43 l 197 607 l 56 607 l 0 874 l 235 874 l 235 967 l 549 967 q 613 953 583 967 q 665 918 643 940 q 701 866 688 896 q 714 803 714 836 l 714 -78 z "},"*":{"ha":468,"x_min":0,"x_max":468,"o":"m 425 747 l 301 724 l 381 822 l 276 883 l 235 772 l 192 883 l 88 822 l 165 724 l 42 747 l 42 625 l 163 647 l 86 551 l 192 490 l 235 592 l 276 490 l 382 551 l 304 647 l 425 625 l 425 747 m 410 585 l 444 540 l 240 419 l 235 485 l 211 429 l 19 539 l 58 585 l 0 575 l 0 797 l 60 785 l 21 835 l 210 943 l 233 886 l 243 951 l 443 833 l 406 786 l 468 797 l 468 574 l 410 585 z "},"+":{"ha":544,"x_min":22,"x_max":522,"o":"m 318 492 l 318 290 l 224 290 l 224 492 l 22 492 l 22 586 l 224 586 l 224 790 l 318 790 l 318 586 l 522 586 l 522 492 l 318 492 z "},",":{"ha":483,"x_min":0,"x_max":483,"o":"m 185 190 l 61 -129 l 219 -129 l 411 190 l 185 190 m 243 -174 l 0 -174 l 0 76 l 96 76 l 157 231 l 483 231 l 243 -174 z "},"-":{"ha":471,"x_min":0,"x_max":471,"o":"m 426 535 l 153 535 l 153 315 l 426 315 l 426 535 m 108 272 l 0 463 l 111 463 l 111 578 l 471 578 l 471 272 l 108 272 z "},".":{"ha":414,"x_min":0,"x_max":414,"o":"m 372 221 l 154 221 l 154 0 l 372 0 l 372 221 m 108 -42 l 0 149 l 111 149 l 111 263 l 414 263 l 414 -42 l 108 -42 z "},"/":{"ha":549,"x_min":22,"x_max":526,"o":"m 119 -126 l 22 -126 l 429 1082 l 526 1082 l 119 -126 z "},":":{"ha":415,"x_min":0,"x_max":415,"o":"m 374 221 l 154 221 l 154 0 l 374 0 l 374 221 m 110 -42 l 0 149 l 113 149 l 113 263 l 415 263 l 415 -42 l 110 -42 m 374 571 l 154 571 l 154 350 l 374 350 l 374 571 m 110 308 l 0 497 l 113 497 l 113 613 l 415 613 l 415 308 l 110 308 z "},";":{"ha":483,"x_min":0,"x_max":483,"o":"m 185 190 l 61 -129 l 219 -129 l 410 190 l 185 190 m 243 -174 l 0 -174 l 0 76 l 96 76 l 157 231 l 483 231 l 243 -174 m 435 571 l 215 571 l 215 350 l 435 350 l 435 571 m 171 308 l 61 497 l 174 497 l 174 613 l 476 613 l 476 308 l 171 308 z "},"<":{"ha":507,"x_min":22,"x_max":485,"o":"m 22 482 l 22 550 l 485 819 l 485 707 l 176 515 l 485 326 l 485 214 l 22 482 z "},"=":{"ha":544,"x_min":22,"x_max":522,"o":"m 22 393 l 22 488 l 522 488 l 522 393 l 22 393 m 22 579 l 22 672 l 522 672 l 522 579 l 22 579 z "},">":{"ha":507,"x_min":22,"x_max":485,"o":"m 22 214 l 22 326 l 332 515 l 22 707 l 22 819 l 485 550 l 485 482 l 22 214 z "},"?":{"ha":753,"x_min":0,"x_max":753,"o":"m 492 219 l 271 219 l 271 0 l 492 0 l 492 219 m 710 792 q 681 888 710 858 q 593 918 653 918 l 307 918 q 233 889 263 918 q 204 811 204 860 l 204 639 l 390 639 l 390 751 l 468 751 l 468 632 q 456 568 468 597 q 411 518 443 539 q 342 477 368 494 q 302 445 317 460 q 282 418 288 431 q 274 390 276 406 q 272 369 272 388 q 271 332 271 351 l 271 279 l 492 279 l 492 328 q 495 351 492 340 q 510 370 499 361 q 544 388 521 379 q 607 410 567 397 q 688 458 665 428 q 710 549 710 488 l 710 792 m 753 549 q 727 440 753 482 q 635 374 701 397 q 612 367 628 371 q 580 356 596 363 q 552 341 564 350 q 540 318 540 332 l 540 -42 l 228 -42 l 169 235 q 156 287 161 261 q 150 336 150 313 q 165 403 150 372 q 221 457 181 433 l 303 519 l 43 519 l 3 706 q 1 721 1 713 q 0 736 0 729 q 41 822 0 794 q 140 851 82 850 l 165 851 q 216 932 178 904 q 307 960 254 960 l 594 960 q 716 911 679 960 q 753 792 753 863 l 753 549 z "},"@":{"ha":999,"x_min":0,"x_max":999,"o":"m 999 558 q 980 440 999 501 q 924 326 961 378 q 834 242 888 275 q 711 210 781 210 q 642 220 675 210 q 585 250 608 231 q 534 222 561 233 q 476 210 507 210 q 378 227 424 210 q 297 278 332 244 q 414 174 338 204 q 583 143 490 143 q 719 171 651 143 q 874 260 788 199 l 946 161 q 767 57 867 90 q 572 24 668 24 q 356 64 460 24 q 174 175 253 104 q 47 341 94 246 q 0 546 0 436 q 24 664 0 610 q 92 758 49 718 q 194 822 135 797 q 326 854 254 847 q 454 906 386 888 q 597 925 522 925 q 762 899 688 925 q 889 824 836 872 q 970 708 942 776 q 999 558 999 640 m 585 718 q 514 738 544 729 q 457 746 483 746 q 381 717 417 746 q 314 640 344 689 q 370 669 339 654 q 436 694 401 683 q 506 711 471 704 q 574 718 542 718 l 585 718 m 646 590 q 642 558 646 583 q 629 501 638 533 q 609 432 621 468 q 581 365 597 396 q 546 315 565 335 q 504 296 526 296 q 451 363 451 296 q 462 435 451 389 q 492 525 472 481 q 540 603 513 569 q 603 636 568 636 q 646 590 646 636 m 960 558 q 934 692 960 632 q 860 796 908 753 q 746 863 813 839 q 597 886 679 886 q 405 849 496 886 q 247 744 314 813 q 157 609 188 685 q 126 449 126 533 q 157 290 126 361 q 245 169 188 219 q 385 90 303 118 q 572 63 468 63 q 739 90 658 63 q 890 169 819 117 l 868 201 q 724 128 793 154 q 569 103 656 103 q 313 192 406 103 q 221 436 221 281 q 256 617 221 536 q 361 757 290 699 q 477 823 414 800 q 608 846 540 846 q 761 813 692 846 q 869 729 831 781 q 908 653 894 697 q 922 558 922 610 q 910 477 922 524 q 876 388 899 431 q 822 317 854 346 q 749 288 789 288 q 718 332 718 288 q 724 372 718 350 l 807 668 l 697 668 l 676 597 q 574 679 664 679 q 488 660 532 679 q 408 606 444 642 q 348 518 368 567 q 328 415 328 469 q 369 296 328 339 q 482 253 411 253 q 614 342 560 253 q 644 277 615 301 q 721 253 672 253 q 824 282 779 253 q 899 356 869 311 q 944 456 929 401 q 960 558 960 510 z "},"A":{"ha":879,"x_min":0,"x_max":879,"o":"m 492 396 l 492 663 q 542 724 492 724 q 590 663 590 724 l 590 396 l 492 396 m 836 782 q 813 878 836 840 q 725 917 789 917 l 357 917 q 269 878 294 917 q 244 782 244 840 l 244 0 l 492 0 l 492 201 l 590 201 l 590 0 l 836 0 l 836 782 m 160 -44 l 6 678 q 0 728 0 701 q 12 781 0 758 q 44 819 24 804 q 92 840 65 833 q 150 847 119 847 l 207 847 l 208 851 q 264 930 225 901 q 356 958 303 958 l 725 958 q 843 908 807 958 q 879 782 879 858 l 879 -44 l 160 -44 z "},"B":{"ha":914,"x_min":0,"x_max":914,"o":"m 618 249 q 611 209 618 225 q 565 193 604 193 l 525 193 l 525 363 l 561 363 q 606 351 593 363 q 618 315 618 340 l 618 249 m 619 618 q 605 575 619 588 q 567 563 590 563 l 525 563 l 525 719 l 567 719 q 605 705 590 719 q 619 665 619 690 l 619 618 m 871 328 q 859 389 871 365 q 826 427 847 413 q 778 449 806 442 q 721 461 751 457 q 778 480 751 469 q 824 507 804 490 q 854 549 843 524 q 865 611 865 574 q 867 667 865 639 q 868 722 868 694 q 863 795 868 760 q 840 858 857 831 q 792 901 824 885 q 706 917 760 917 l 275 917 l 275 0 l 715 0 q 871 153 871 0 l 871 328 m 913 153 q 894 55 913 101 q 831 -19 875 8 q 778 -40 806 -35 q 724 -44 751 -44 l 190 -44 l 0 847 l 231 847 l 231 958 l 706 958 q 859 903 810 958 q 908 742 908 849 q 908 697 908 718 q 907 653 907 675 q 897 549 907 596 q 844 465 888 503 q 902 383 890 433 q 914 281 914 333 q 914 215 914 247 q 913 153 914 182 z "},"C":{"ha":674,"x_min":0,"x_max":674,"o":"m 629 917 l 394 917 q 277 872 317 917 q 238 746 238 828 l 238 171 q 273 47 238 93 q 394 0 308 0 l 629 0 l 629 219 l 535 219 q 493 254 497 219 l 493 667 q 536 697 500 697 l 629 697 l 629 917 m 536 654 l 536 263 l 674 263 l 674 -44 l 343 -44 q 192 -1 251 -44 q 114 132 133 43 l 6 644 q 1 668 3 656 q 0 694 0 681 q 47 810 0 775 q 176 847 93 844 l 213 847 q 240 899 221 878 q 283 934 258 921 q 337 953 308 947 q 394 958 365 958 l 674 958 l 674 654 l 536 654 z "},"D":{"ha":911,"x_min":0,"x_max":911,"o":"m 619 283 q 608 222 619 236 q 568 207 597 207 l 522 207 l 522 717 l 565 717 q 605 699 590 717 q 619 644 619 681 l 619 283 m 868 739 q 831 874 868 831 q 728 918 794 918 l 275 918 l 275 0 l 733 0 q 804 11 778 0 q 845 45 831 22 q 864 101 860 68 q 868 181 868 135 l 868 739 m 911 181 q 900 69 911 113 q 863 0 889 25 q 795 -35 838 -25 q 690 -44 753 -44 l 190 -44 l 0 849 l 232 849 l 232 960 l 728 960 q 813 942 778 960 q 869 894 847 924 q 901 824 892 864 q 911 739 911 783 l 911 181 z "},"E":{"ha":771,"x_min":0,"x_max":771,"o":"m 729 558 l 483 558 l 483 717 l 728 717 l 728 917 l 397 917 q 277 883 319 917 q 235 763 235 850 l 235 188 q 277 46 235 92 q 400 0 319 0 l 728 0 l 728 204 l 483 204 l 483 350 l 729 350 l 729 558 m 578 672 l 593 600 l 771 600 l 771 307 l 656 307 l 665 261 l 528 261 l 528 247 l 771 247 l 771 -47 l 339 -47 q 185 7 243 -47 q 107 153 126 61 l 6 644 q 1 669 3 657 q 0 696 0 682 q 52 811 0 775 q 186 847 104 847 l 211 847 q 284 935 235 911 q 397 958 333 958 l 771 958 l 771 672 l 578 672 z "},"F":{"ha":739,"x_min":0,"x_max":739,"o":"m 696 917 l 276 917 l 276 0 l 525 0 l 525 347 l 696 347 l 696 558 l 528 558 l 528 717 l 696 717 l 696 917 m 571 672 l 571 603 l 739 603 l 739 304 l 622 304 l 632 260 l 568 260 l 568 -44 l 190 -44 l 0 847 l 233 847 l 233 958 l 739 958 l 739 672 l 571 672 z "},"G":{"ha":883,"x_min":0,"x_max":883,"o":"m 840 531 l 561 531 q 585 479 579 508 q 592 417 592 450 l 592 219 l 538 219 q 502 230 511 219 q 493 269 493 240 l 493 640 q 494 667 493 654 q 500 691 494 681 q 516 707 506 701 q 546 713 526 713 l 760 713 q 806 706 790 713 q 839 689 822 700 l 839 918 l 396 918 q 324 911 353 918 q 276 886 294 904 q 251 839 258 868 q 243 767 243 810 l 243 178 q 272 38 243 76 q 369 0 300 0 l 728 0 q 811 46 782 0 q 840 192 840 92 l 840 531 m 883 192 q 881 131 883 163 q 868 69 878 99 q 842 14 858 39 q 796 -26 825 -11 q 739 -42 771 -39 q 679 -44 707 -44 l 318 -44 q 236 -31 269 -44 q 179 6 203 -18 q 141 66 156 31 q 117 146 126 101 l 7 663 q 0 724 0 694 q 15 785 0 761 q 56 824 31 810 q 115 843 82 838 q 183 849 149 849 l 208 849 q 235 905 217 883 q 279 939 254 926 q 334 956 304 951 q 396 960 364 960 l 883 960 l 883 614 q 849 635 863 625 q 821 652 835 644 q 793 664 807 660 q 758 668 779 668 l 690 668 l 710 574 l 883 574 l 883 192 z "},"H":{"ha":915,"x_min":0,"x_max":915,"o":"m 872 917 l 625 917 l 625 571 l 522 571 l 522 917 l 274 917 l 274 0 l 525 0 l 525 356 l 625 356 l 625 0 l 872 0 l 872 917 m 189 -47 l 0 847 l 231 847 l 231 960 l 565 960 l 565 847 l 581 847 l 581 960 l 915 960 l 915 -47 l 189 -47 z "},"I":{"ha":567,"x_min":0,"x_max":567,"o":"m 524 917 l 275 917 l 275 0 l 524 0 l 524 917 m 190 -47 l 0 847 l 232 847 l 232 960 l 567 960 l 567 -47 l 190 -47 z "},"J":{"ha":568,"x_min":0,"x_max":568,"o":"m 525 915 l 275 915 l 275 289 q 235 221 275 221 q 219 222 229 221 q 172 233 208 224 l 154 -4 q 214 -15 182 -11 q 290 -19 246 -19 q 470 31 415 -19 q 525 189 525 82 l 525 915 m 568 189 q 553 83 568 133 q 493 -6 538 32 q 403 -51 453 -39 q 301 -62 354 -62 q 188 -58 244 -62 q 68 -43 132 -54 l 26 256 l 129 236 l 0 846 l 232 846 l 232 958 l 568 958 l 568 189 z "},"K":{"ha":957,"x_min":0,"x_max":975,"o":"m 901 0 q 885 54 888 25 q 882 119 882 83 l 882 304 q 872 374 882 346 q 843 422 863 403 q 794 451 824 440 q 728 469 765 463 q 783 492 757 482 q 827 516 808 501 q 857 554 846 531 q 868 615 868 578 l 868 799 q 869 833 868 819 q 874 860 871 847 q 883 885 878 872 q 897 917 889 899 l 635 917 q 620 863 624 890 q 617 808 617 836 q 619 748 617 778 q 621 689 621 718 q 619 643 621 665 q 610 603 618 621 q 585 574 601 585 q 540 563 569 563 q 531 563 536 563 q 521 564 526 563 l 521 917 l 275 917 l 275 0 l 521 0 l 521 342 l 578 342 q 620 322 610 342 q 631 274 631 301 l 631 94 q 634 45 631 69 q 654 0 638 21 l 901 0 m 586 -44 l 565 -24 l 565 -44 l 189 -44 l 0 847 l 231 847 l 231 958 l 565 958 l 565 847 l 576 847 q 586 903 576 876 q 607 958 596 931 l 961 958 q 928 884 946 922 q 911 804 911 846 l 911 615 q 897 535 911 569 q 843 475 882 501 q 909 402 893 443 q 925 304 925 361 l 925 119 q 927 69 925 89 q 935 33 929 50 q 951 -1 942 17 q 975 -44 960 -18 l 586 -44 z "},"L":{"ha":776,"x_min":0,"x_max":776,"o":"m 725 240 q 650 219 674 224 q 607 215 626 215 q 556 219 578 215 q 554 361 554 289 l 554 626 q 554 731 554 689 q 556 775 554 772 q 564 851 557 817 q 582 919 571 885 l 288 919 q 303 824 297 871 q 308 726 308 776 l 308 0 l 686 0 l 725 240 m 722 -44 l 222 -44 l 71 667 q 40 759 60 715 q 0 847 19 803 l 257 847 q 246 903 251 876 q 235 958 240 931 l 643 958 q 628 917 636 940 q 612 870 619 894 q 599 822 604 846 q 594 781 594 799 l 594 251 q 688 271 643 254 q 776 301 733 288 l 722 -44 z "},"M":{"ha":1272,"x_min":0,"x_max":1272,"o":"m 1229 763 q 1219 846 1229 815 q 1189 892 1208 876 q 1142 913 1169 908 q 1079 917 1114 917 l 1007 917 q 960 907 978 917 q 929 881 942 897 q 908 842 917 864 q 892 797 900 821 q 888 834 892 814 q 876 873 885 854 q 853 904 867 892 q 818 917 839 917 l 646 917 q 601 903 619 917 q 570 868 583 889 q 548 823 557 847 q 531 778 539 799 q 526 848 531 814 q 510 917 521 882 l 258 917 q 279 830 272 868 q 286 751 286 792 l 286 0 l 536 0 l 536 643 q 551 692 536 676 q 586 708 567 708 q 622 692 606 708 q 638 642 638 675 l 638 0 l 885 0 l 885 647 q 901 695 885 679 q 935 711 917 711 q 967 696 953 711 q 981 647 981 681 l 981 0 l 1229 0 l 1229 763 m 240 -46 l 93 649 q 84 682 89 665 q 69 721 79 699 q 43 773 60 743 q 0 847 26 803 l 233 847 q 217 903 226 875 q 199 958 208 931 l 540 958 q 547 938 543 949 q 556 919 551 928 q 610 951 579 946 q 674 957 642 957 l 778 957 q 843 951 813 957 q 900 911 874 944 q 967 951 926 944 q 1049 957 1007 957 l 1126 957 q 1201 940 1172 957 q 1246 896 1231 924 q 1267 833 1261 868 q 1272 763 1272 799 l 1272 -46 l 240 -46 z "},"N":{"ha":925,"x_min":0,"x_max":925,"o":"m 882 760 q 855 881 882 844 q 767 917 828 917 l 713 917 q 653 914 682 917 q 600 899 624 911 q 558 864 576 888 q 532 800 540 840 q 524 874 528 851 q 514 917 519 897 l 257 917 q 278 838 268 876 q 288 751 288 800 l 288 0 l 535 0 l 535 632 q 550 685 535 668 q 585 703 565 703 q 619 686 604 703 q 633 635 633 669 l 633 0 l 882 0 l 882 760 m 240 -46 l 92 653 q 54 753 81 707 q 0 847 28 799 l 233 847 q 217 903 226 875 q 197 958 207 931 l 544 958 q 551 941 547 950 q 557 921 554 932 q 619 953 588 946 q 686 961 651 961 l 767 961 q 847 944 815 961 q 895 899 878 926 q 919 835 913 871 q 925 761 925 799 l 925 -46 l 240 -46 z "},"O":{"ha":806,"x_min":0,"x_max":806,"o":"m 532 240 q 519 198 532 213 q 483 183 506 183 q 464 186 478 183 q 440 203 449 189 q 431 240 431 217 l 431 706 q 482 747 440 747 q 532 706 522 747 l 532 240 m 763 778 q 731 881 763 844 q 654 918 699 918 l 307 918 q 233 881 264 918 q 201 778 201 844 l 201 151 q 210 94 201 121 q 235 46 218 67 q 279 13 253 25 q 342 0 306 0 q 510 0 450 0 q 598 0 569 0 q 633 1 626 0 q 642 1 639 1 q 697 16 674 7 q 734 42 719 25 q 756 85 749 58 q 763 151 763 111 l 763 778 m 806 151 q 763 8 806 57 q 621 -42 719 -42 l 326 -42 q 194 0 250 -42 q 124 117 139 42 q 64 397 94 258 q 4 676 33 536 q 0 718 0 697 q 40 814 0 779 q 143 851 81 849 l 167 851 q 219 928 183 896 q 307 960 256 960 l 654 960 q 720 944 692 960 q 767 902 749 928 q 796 844 786 876 q 806 779 806 811 l 806 151 z "},"P":{"ha":871,"x_min":0,"x_max":871,"o":"m 582 551 q 571 508 582 521 q 532 496 560 496 l 486 496 l 486 715 l 531 715 q 570 703 558 715 q 582 661 582 690 l 582 551 m 828 774 q 794 886 828 856 q 685 917 761 917 l 235 917 l 235 0 l 483 0 l 483 286 l 689 286 q 792 326 757 286 q 828 457 828 365 l 828 774 m 871 456 q 864 389 871 422 q 842 327 857 356 q 801 276 826 299 q 740 244 776 254 q 678 211 717 218 q 600 204 640 204 q 561 205 581 204 q 525 206 542 206 l 525 -46 l 189 -46 l 0 847 l 192 847 l 192 958 l 685 958 q 822 915 774 958 q 871 774 871 871 l 871 456 z "},"Q":{"ha":806,"x_min":0,"x_max":806,"o":"m 806 151 q 765 10 806 60 q 631 -42 724 -39 l 721 -42 l 765 -258 l 721 -258 l 721 -286 l 476 -286 q 388 -258 424 -286 q 351 -178 351 -231 l 351 -42 l 326 -42 q 194 0 250 -42 q 124 117 139 42 q 64 397 94 258 q 4 676 33 536 q 0 718 0 697 q 40 815 0 778 q 143 851 81 851 l 167 851 q 219 928 183 896 q 307 960 256 960 l 654 960 q 720 944 692 960 q 767 902 749 928 q 796 844 786 876 q 806 779 806 811 l 806 151 m 532 240 q 519 198 532 213 q 483 183 506 183 q 464 186 478 183 q 440 203 449 189 q 431 240 431 217 l 431 706 q 482 747 440 747 q 532 706 522 747 l 532 240 m 572 0 l 632 0 q 730 35 697 0 q 763 151 763 71 l 763 778 q 731 881 763 844 q 654 918 699 918 l 307 918 q 233 881 264 918 q 201 778 201 844 l 201 151 q 210 94 201 121 q 235 46 218 67 q 279 13 253 25 q 342 0 306 0 l 400 0 l 400 -176 q 420 -226 400 -208 q 476 -243 440 -243 l 679 -243 l 679 -94 l 628 -94 q 589 -88 606 -94 q 572 -58 572 -82 l 572 0 z "},"R":{"ha":942,"x_min":0,"x_max":958,"o":"m 578 669 q 578 650 578 658 q 579 633 579 642 q 565 569 579 585 q 514 553 550 553 l 488 553 l 488 717 l 510 717 q 578 669 574 717 m 868 0 q 858 25 864 14 q 847 48 851 36 q 838 74 842 60 q 835 108 835 88 l 835 307 q 803 413 835 375 q 688 467 771 451 q 786 503 746 467 q 833 601 826 539 l 833 767 q 653 914 833 914 l 236 914 l 236 0 l 485 0 l 485 344 l 521 344 q 560 335 547 344 q 579 301 574 325 l 579 79 q 586 33 579 51 q 604 0 593 15 l 868 0 m 575 -46 q 549 -17 560 -31 q 528 15 538 -4 l 528 -46 l 190 -46 l 0 844 l 193 844 l 193 956 l 654 956 q 744 944 703 956 q 814 907 785 932 q 859 844 843 882 q 875 751 875 806 l 875 631 q 873 580 875 603 q 865 538 871 557 q 845 502 858 519 q 811 467 832 485 q 867 388 854 436 q 881 285 881 340 q 878 213 881 249 q 876 143 876 178 q 895 41 876 83 q 958 -46 914 -1 l 575 -46 z "},"S":{"ha":728,"x_min":0,"x_max":728,"o":"m 685 463 q 658 547 685 513 q 574 582 632 582 l 447 582 l 447 715 l 685 715 l 685 917 l 372 917 q 291 908 324 917 q 238 878 258 899 q 208 822 217 857 q 199 733 199 786 l 199 496 q 231 382 199 414 q 321 350 264 350 l 433 350 l 433 210 l 199 210 l 199 0 l 547 0 q 617 11 590 0 q 659 43 644 22 q 679 93 674 64 q 685 158 685 122 l 685 463 m 575 672 l 575 625 l 590 625 q 695 578 663 625 q 728 463 728 531 l 728 118 q 712 42 728 74 q 670 -8 696 11 q 610 -37 644 -28 q 538 -46 575 -46 l 153 -46 l 96 224 l 156 224 l 156 251 l 324 251 l 322 261 l 246 261 q 147 285 185 261 q 87 348 110 308 q 51 439 64 388 q 26 547 39 490 q 10 625 19 583 q 0 707 0 667 q 6 753 0 729 q 25 798 11 778 q 60 831 39 818 q 113 843 81 843 l 168 843 q 236 930 189 901 q 342 958 283 958 l 725 958 l 725 672 l 575 672 z "},"T":{"ha":775,"x_min":0,"x_max":775,"o":"m 731 917 l 236 917 l 236 715 l 358 715 l 358 0 l 606 0 l 606 715 l 731 715 l 731 917 m 649 672 l 649 -46 l 311 -46 l 178 585 l 56 585 l 0 847 l 192 847 l 192 958 l 775 958 l 775 672 l 649 672 z "},"U":{"ha":875,"x_min":0,"x_max":875,"o":"m 833 917 l 583 917 l 583 260 q 576 208 583 224 q 546 193 569 193 l 518 193 q 491 210 497 193 q 485 263 485 226 l 485 917 l 236 917 l 236 106 q 240 58 236 78 q 256 26 244 39 q 287 6 267 13 q 339 0 307 0 l 728 0 q 786 8 765 0 q 817 31 807 15 q 831 68 828 46 q 833 118 833 90 l 833 917 m 875 117 q 842 -8 875 31 q 718 -46 808 -46 l 326 -46 q 216 -18 254 -46 q 163 81 178 10 l 0 847 l 192 847 l 192 958 l 528 958 l 528 847 l 542 847 l 542 958 l 875 958 l 875 117 z "},"V":{"ha":882,"x_min":0,"x_max":882,"o":"m 590 917 l 590 506 q 581 363 590 435 q 536 221 572 290 q 495 346 506 278 q 485 506 485 414 l 485 917 l 236 917 q 235 807 236 861 q 235 700 235 753 q 242 517 235 608 q 267 339 249 426 q 317 166 286 251 q 399 0 349 81 l 674 0 q 792 255 749 126 q 836 531 836 383 l 836 917 l 590 917 m 881 958 q 881 884 881 921 q 881 801 881 847 q 882 696 882 756 q 882 551 882 636 q 874 413 882 479 q 844 277 865 347 q 788 128 824 207 q 697 -46 751 50 l 368 -46 q 226 137 290 42 q 122 342 163 232 q 53 592 78 464 q 0 847 28 721 l 193 847 l 193 958 l 528 958 l 528 847 l 546 847 l 546 958 l 881 958 z "},"W":{"ha":1215,"x_min":0,"x_max":1215,"o":"m 1171 917 l 926 917 l 926 256 q 910 208 926 224 q 878 193 894 193 q 842 214 858 193 q 826 272 826 235 l 826 917 l 582 917 l 582 272 q 565 214 582 235 q 529 193 549 193 q 499 208 514 193 q 483 256 483 224 l 483 917 l 238 917 l 238 206 q 279 46 238 92 q 403 0 321 0 l 544 0 q 613 16 583 0 q 662 58 642 32 q 692 118 682 85 q 703 186 703 151 q 717 117 707 150 q 747 58 728 83 q 794 16 765 32 q 864 0 822 0 l 1006 0 q 1129 46 1088 0 q 1171 206 1171 92 l 1171 917 m 1215 204 q 1203 103 1215 149 q 1166 24 1192 57 q 1098 -28 1140 -10 q 994 -46 1056 -46 l 867 -46 q 774 -32 818 -46 q 690 24 731 -18 l 686 19 q 607 -32 649 -18 q 518 -46 565 -46 l 392 -46 q 290 -28 332 -46 q 217 22 247 -10 q 169 99 188 54 q 139 197 150 143 l 0 847 l 192 847 l 192 958 l 526 958 l 526 847 l 539 847 l 539 958 l 869 958 l 869 847 l 882 847 l 882 958 l 1215 958 l 1215 204 z "},"X":{"ha":879,"x_min":0,"x_max":879,"o":"m 838 331 q 810 399 838 368 q 713 457 783 429 q 802 513 767 469 q 838 617 838 557 l 838 917 l 586 917 l 586 631 q 538 533 578 565 q 494 599 504 557 q 485 708 485 642 l 485 844 q 486 917 485 881 l 236 917 l 236 617 q 269 515 236 554 q 361 457 303 476 q 263 399 290 429 q 236 331 236 368 l 236 0 l 485 0 l 485 271 q 504 333 490 311 q 538 369 518 354 q 569 333 557 354 q 588 271 582 311 l 588 0 l 838 0 l 838 331 m 544 -46 l 526 39 l 526 -46 l 189 -46 l 121 279 q 119 292 119 286 q 118 306 118 299 q 124 342 118 328 q 137 364 129 356 q 152 379 144 372 q 163 394 160 386 q 101 452 124 419 q 68 529 78 485 l 0 847 l 193 847 l 193 958 l 528 958 l 528 847 l 544 847 l 544 958 l 879 958 l 879 617 q 862 528 879 564 q 808 457 844 493 q 860 404 840 438 q 879 331 879 371 l 879 -46 l 544 -46 z "},"Y":{"ha":869,"x_min":0,"x_max":869,"o":"m 831 917 l 582 917 l 582 550 q 570 463 582 494 q 532 410 558 431 q 494 463 507 431 q 482 550 482 494 l 482 917 l 235 917 q 236 724 236 810 q 236 652 236 688 q 236 588 236 617 q 237 541 236 560 q 238 519 238 522 q 258 442 243 483 q 294 363 272 401 q 347 294 317 325 q 411 246 376 263 l 411 0 l 654 0 l 654 246 q 715 292 686 263 q 767 360 744 322 q 806 438 790 397 q 831 519 822 479 l 831 917 m 869 540 q 820 364 869 444 q 699 224 771 283 l 699 -46 l 364 -46 l 315 186 q 169 306 235 232 q 81 474 103 379 q 40 660 60 567 q 0 847 21 753 l 193 847 l 193 958 l 524 958 l 524 847 l 539 847 l 539 958 l 869 958 l 869 540 z "},"Z":{"ha":761,"x_min":0,"x_max":761,"o":"m 224 917 l 188 715 l 390 715 l 188 0 l 679 0 l 708 222 l 490 222 l 703 917 l 224 917 m 547 265 l 758 265 l 715 -46 l 128 -46 l 200 585 l 0 585 l 0 847 l 168 847 l 188 958 l 761 958 l 547 265 z "},"[":{"ha":717,"x_min":0,"x_max":717,"o":"m 672 25 l 531 25 l 531 750 l 672 750 l 672 949 l 279 949 l 279 -174 l 672 -174 l 672 25 m 236 -217 l 0 899 l 236 899 l 236 992 l 717 992 l 717 707 l 574 707 l 574 68 l 717 68 l 717 -217 l 236 -217 z "},"\\":{"ha":549,"x_min":22,"x_max":526,"o":"m 429 -126 l 22 1082 l 118 1082 l 526 -126 l 429 -126 z "},"]":{"ha":717,"x_min":0,"x_max":717,"o":"m 672 949 l 278 949 l 278 750 l 421 750 l 421 25 l 278 25 l 278 -174 l 672 -174 l 672 949 m 236 -217 l 179 49 l 235 49 l 235 68 l 317 68 l 199 632 l 57 632 l 0 899 l 235 899 l 235 992 l 717 992 l 717 -217 l 236 -217 z "},"^":{"ha":472,"x_min":22,"x_max":450,"o":"m 325 808 l 239 897 l 149 808 l 22 808 l 242 1022 l 450 808 l 325 808 z "},"_":{"ha":694,"x_min":0,"x_max":694,"o":"m 0 -44 l 0 47 l 694 47 l 694 -44 l 0 -44 z "},"`":{"ha":468,"x_min":21,"x_max":447,"o":"m 303 1125 l 131 1125 l 336 958 l 394 958 l 303 1125 m 322 928 l 21 1160 l 321 1160 l 447 928 l 322 928 z "},"{":{"ha":707,"x_min":0,"x_max":707,"o":"m 664 33 l 524 33 l 524 311 l 438 396 l 522 481 l 522 758 l 664 758 l 664 957 l 393 957 q 308 922 343 957 q 272 836 272 886 l 272 485 l 181 396 l 271 306 l 271 -44 q 281 -92 271 -69 q 307 -130 290 -114 q 345 -156 324 -146 q 392 -165 367 -165 l 664 -165 l 664 33 m 389 -210 q 325 -199 357 -210 q 267 -167 293 -187 q 221 -120 240 -147 q 196 -61 201 -93 l 132 246 l 0 346 l 89 444 l 25 749 q 21 776 21 763 q 33 829 21 806 q 64 870 44 853 q 108 897 83 888 q 161 906 133 906 l 243 906 q 304 974 264 949 q 392 1000 344 1000 l 707 1000 l 707 714 l 567 714 l 567 463 l 499 396 l 565 329 l 565 76 l 707 76 l 707 -210 l 389 -210 z "},"}":{"ha":821,"x_min":0,"x_max":821,"o":"m 671 485 l 671 836 q 635 922 671 886 q 549 957 599 957 l 278 957 l 278 758 l 419 758 l 419 481 l 504 396 l 419 311 l 419 33 l 278 33 l 278 -165 l 549 -165 q 635 -130 599 -165 q 671 -44 671 -94 l 671 306 l 760 396 l 671 485 m 714 288 l 714 -44 q 701 -108 714 -78 q 665 -161 688 -139 q 613 -197 643 -183 q 549 -210 583 -210 l 235 -210 l 179 57 l 235 57 l 235 76 l 315 76 l 272 285 l 325 346 l 246 406 l 197 640 l 56 640 l 0 906 l 235 906 l 235 1000 l 549 1000 q 613 987 583 1000 q 665 951 643 974 q 701 899 688 929 q 714 836 714 869 l 714 503 l 821 396 l 714 288 z "},"~":{"ha":456,"x_min":0,"x_max":456,"o":"m 336 543 q 324 524 329 532 q 303 515 318 515 q 279 519 293 515 q 249 528 265 524 q 217 538 233 533 q 188 542 201 542 q 134 533 156 542 q 98 509 113 524 q 74 476 83 494 q 58 439 64 457 l 122 439 q 154 465 131 465 q 214 451 186 463 q 276 440 242 440 q 326 449 306 440 q 359 473 346 458 q 381 506 372 488 q 396 543 390 524 l 336 543 m 456 586 q 433 521 446 554 q 400 460 419 488 q 352 415 381 432 q 282 397 324 397 q 222 407 250 397 q 161 422 194 417 l 151 397 l 0 397 q 26 469 13 435 q 58 528 39 503 q 109 569 78 554 q 189 583 140 583 q 243 574 217 583 q 297 557 269 565 l 310 586 l 456 586 z "},"‚":{"ha":485,"x_min":0,"x_max":485,"o":"m 186 39 l 63 -282 l 221 -282 l 410 39 l 186 39 m 244 -324 l 0 -324 l 0 -74 l 97 -74 l 157 81 l 485 81 l 244 -324 z "},"„":{"ha":743,"x_min":0,"x_max":743,"o":"m 188 39 l 64 -282 l 221 -282 l 410 39 l 188 39 m 443 39 l 321 -282 l 479 -282 l 668 39 l 443 39 m 503 -324 l 258 -324 l 260 -299 l 244 -324 l 0 -324 l 0 -79 l 96 -79 l 157 81 l 743 81 l 503 -324 z "},"…":{"ha":1210,"x_min":0,"x_max":1210,"o":"m 372 221 l 153 221 l 153 0 l 372 0 l 372 221 m 769 221 l 550 221 l 550 0 l 769 0 l 769 221 m 1168 221 l 947 221 l 947 0 l 1168 0 l 1168 221 m 904 -42 l 813 117 l 813 -42 l 506 -42 l 414 117 l 414 -42 l 108 -42 l 0 149 l 111 149 l 111 263 l 414 263 l 414 149 l 508 149 l 508 263 l 813 263 l 813 149 l 907 149 l 907 263 l 1210 263 l 1210 -42 l 904 -42 z "},"†":{"ha":782,"x_min":22,"x_max":760,"o":"m 760 613 q 658 501 760 501 q 616 509 638 501 q 569 527 594 517 q 515 549 544 538 q 449 565 485 560 l 449 560 q 469 442 449 506 q 525 303 489 378 q 472 72 489 228 q 449 -326 456 -85 l 331 -326 q 307 72 324 -85 q 254 303 290 228 q 310 442 290 378 q 332 565 329 507 q 266 549 296 560 q 211 527 236 538 q 165 509 186 517 q 122 501 143 501 q 22 613 22 501 q 122 722 22 722 q 166 714 143 722 q 215 695 189 706 q 272 674 242 685 q 339 658 303 663 q 326 725 336 694 q 303 783 315 756 q 282 837 292 811 q 272 889 272 863 q 303 966 272 938 q 389 994 333 994 q 476 966 444 994 q 507 889 507 938 q 497 835 507 861 q 475 781 488 808 q 453 723 463 753 q 443 658 443 693 q 510 674 479 663 q 566 695 540 685 q 615 714 592 706 q 658 722 638 722 q 760 613 760 722 z "},"‡":{"ha":782,"x_min":22,"x_max":760,"o":"m 760 54 q 658 -56 760 -56 q 615 -47 638 -56 q 566 -28 592 -39 q 510 -7 540 -18 q 443 8 479 4 q 456 -58 446 -28 q 478 -117 467 -89 q 499 -170 490 -144 q 508 -222 508 -196 q 478 -299 508 -271 q 392 -326 447 -326 q 305 -299 336 -326 q 274 -222 274 -271 q 284 -168 274 -194 q 306 -114 294 -142 q 328 -56 318 -86 q 339 8 339 -26 q 272 -7 303 4 q 215 -28 242 -18 q 166 -47 189 -39 q 122 -56 143 -56 q 22 54 22 -56 q 122 165 22 165 q 165 158 143 165 q 211 140 186 150 q 266 118 236 129 q 332 101 296 107 q 256 333 328 228 q 332 565 328 436 q 266 549 296 560 q 211 527 236 538 q 165 509 186 517 q 122 501 143 501 q 22 613 22 501 q 122 722 22 722 q 166 714 143 722 q 215 695 189 706 q 272 674 242 685 q 339 658 303 663 q 326 725 336 694 q 303 783 315 756 q 282 837 292 811 q 272 889 272 863 q 303 966 272 938 q 389 994 333 994 q 476 966 444 994 q 507 889 507 938 q 497 835 507 861 q 475 781 488 808 q 453 723 463 753 q 443 658 443 693 q 510 674 479 663 q 566 695 540 685 q 615 714 592 706 q 658 722 638 722 q 760 613 760 722 q 658 501 760 501 q 616 509 638 501 q 569 527 594 517 q 515 549 544 538 q 450 565 486 560 q 526 333 454 436 q 471 224 490 281 q 449 101 451 168 q 515 118 485 107 q 569 140 544 129 q 616 158 594 150 q 658 165 638 165 q 760 54 760 165 z "},"ˆ":{"ha":525,"x_min":0,"x_max":525,"o":"m 263 1100 l 107 958 l 196 958 l 263 982 l 329 958 l 417 958 l 263 1100 m 322 917 l 263 939 l 203 917 l 0 917 l 263 1158 l 525 917 l 322 917 z "},"‰":{"ha":1803,"x_min":0,"x_max":1803,"o":"m 465 450 q 455 424 465 435 q 428 413 444 413 q 401 424 413 413 q 390 450 390 435 l 390 782 q 401 808 390 797 q 428 819 413 819 q 455 808 444 819 q 465 782 465 797 l 465 450 m 1178 136 q 1167 108 1178 119 q 1139 97 1156 97 q 1113 108 1124 97 q 1101 136 1101 119 l 1101 467 q 1113 493 1101 482 q 1139 504 1124 504 q 1167 493 1156 504 q 1178 467 1178 482 l 1178 136 m 1619 136 q 1608 108 1619 119 q 1581 97 1597 97 q 1554 108 1565 97 q 1543 136 1543 119 l 1543 467 q 1554 493 1543 482 q 1581 504 1565 504 q 1608 493 1597 504 q 1619 467 1619 482 l 1619 136 m 607 822 q 579 889 607 861 q 513 917 551 917 l 344 917 q 277 889 304 917 q 250 822 250 861 l 250 410 q 277 343 250 371 q 344 315 304 315 l 513 315 q 579 343 551 315 q 607 410 607 371 l 607 822 m 965 917 l 490 0 l 618 0 l 1094 917 l 965 917 m 1318 507 q 1290 574 1318 546 q 1224 601 1263 601 l 1056 601 q 989 574 1017 601 q 961 507 961 546 l 961 96 q 989 28 961 56 q 1056 0 1017 0 l 1224 0 q 1290 28 1263 0 q 1318 96 1318 56 l 1318 507 m 1760 507 q 1732 574 1760 546 q 1665 601 1704 601 l 1497 601 q 1431 574 1458 601 q 1403 507 1403 546 l 1403 96 q 1431 28 1403 56 q 1497 0 1458 0 l 1665 0 q 1732 28 1704 0 q 1760 96 1760 56 l 1760 507 m 1803 96 q 1792 42 1803 67 q 1762 -2 1781 17 q 1718 -32 1743 -21 q 1665 -43 1693 -43 l 1457 -43 q 1387 -27 1421 -43 q 1329 17 1353 -11 q 1284 -26 1311 -10 q 1224 -43 1257 -43 l 1015 -43 q 962 -34 988 -43 q 914 -8 936 -25 q 876 31 892 8 q 856 82 861 54 l 813 282 l 644 -43 l 382 -43 l 496 272 l 243 272 q 189 281 215 272 q 141 307 163 290 q 103 347 119 324 q 82 397 88 369 l 3 775 q 0 788 0 782 q 0 800 0 793 q 25 868 0 839 q 67 898 42 888 q 118 908 92 908 l 236 908 q 284 946 256 932 q 344 960 313 960 l 513 960 q 565 949 540 960 q 609 919 590 938 q 639 875 628 900 q 650 822 650 850 l 650 697 l 711 865 l 890 865 l 939 960 l 1165 960 l 994 631 q 1056 644 1021 644 l 1224 644 q 1276 634 1251 644 q 1320 605 1301 624 q 1350 561 1339 586 q 1361 507 1361 536 q 1365 539 1361 521 q 1376 574 1368 557 q 1399 607 1385 592 q 1436 631 1414 622 q 1497 644 1467 644 l 1665 644 q 1718 634 1693 644 q 1762 605 1743 624 q 1792 561 1781 586 q 1803 507 1803 536 l 1803 96 z "},"‹":{"ha":240,"x_min":0,"x_max":240,"o":"m 199 426 l 175 493 l 199 560 l 199 647 l 57 493 l 199 339 l 199 426 m 0 493 l 240 756 l 240 551 l 218 493 l 240 433 l 240 231 l 0 493 z "},"Œ":{"ha":1365,"x_min":0,"x_max":1365,"o":"m 528 279 q 517 217 528 235 q 481 200 506 200 q 444 218 456 200 q 432 279 432 236 l 432 678 q 447 728 432 711 q 481 744 461 744 q 513 728 499 744 q 528 678 528 713 l 528 279 m 776 731 q 726 867 776 824 q 585 919 675 911 l 375 919 q 281 900 319 915 q 220 851 243 885 q 187 760 197 817 q 176 615 176 703 l 176 300 q 194 169 176 225 q 244 75 213 113 q 321 19 276 38 q 418 0 365 0 l 504 0 q 710 73 643 0 q 776 289 776 146 l 776 731 m 1324 919 l 992 919 q 873 881 915 919 q 831 756 831 843 l 831 189 q 873 47 831 93 q 996 0 915 0 l 1324 0 l 1324 206 l 1078 206 l 1078 356 l 1322 356 l 1322 564 l 1078 564 l 1078 719 l 1324 719 l 1324 919 m 1250 313 l 1260 267 l 1122 267 l 1122 253 l 1365 253 l 1365 -46 l 933 -46 q 829 -22 874 -46 q 736 33 785 3 q 665 -18 707 1 q 568 -43 622 -37 q 511 -47 539 -46 q 456 -49 483 -49 q 349 -40 400 -49 q 253 -8 297 -31 q 171 52 208 14 q 104 150 133 90 q 73 240 83 193 q 51 333 63 286 q 19 479 38 400 q 0 633 0 558 q 8 710 0 674 q 36 774 17 746 q 90 822 56 803 q 174 849 124 842 q 224 909 194 886 q 288 943 253 932 q 360 958 322 954 q 439 961 399 961 l 531 961 q 611 958 572 961 q 685 941 650 954 q 747 902 719 928 q 794 833 775 876 q 878 935 828 910 q 992 961 928 961 l 1365 961 l 1365 675 l 1174 675 l 1189 606 l 1365 606 l 1365 313 l 1250 313 z "},"‘":{"ha":482,"x_min":0,"x_max":482,"o":"m 264 915 l 74 596 l 297 596 l 422 915 l 264 915 m 326 553 l 0 553 l 96 800 l 147 800 l 239 957 l 482 957 l 326 553 z "},"’":{"ha":485,"x_min":0,"x_max":485,"o":"m 186 915 l 63 596 l 221 596 l 410 915 l 186 915 m 244 553 l 0 553 l 0 803 l 97 803 l 157 957 l 485 957 l 244 553 z "},"“":{"ha":740,"x_min":0,"x_max":740,"o":"m 264 915 l 74 596 l 299 596 l 422 915 l 264 915 m 522 915 l 332 596 l 556 596 l 679 915 l 522 915 m 585 553 l 0 553 l 97 801 l 147 801 l 239 957 l 483 957 l 457 890 l 497 957 l 740 957 l 585 553 z "},"”":{"ha":743,"x_min":0,"x_max":743,"o":"m 188 915 l 64 596 l 221 596 l 410 915 l 188 915 m 443 915 l 321 596 l 479 596 l 668 915 l 443 915 m 503 553 l 258 553 l 260 579 l 244 553 l 0 553 l 0 797 l 96 797 l 157 957 l 743 957 l 503 553 z "},"•":{"ha":431,"x_min":0,"x_max":431,"o":"m 389 428 q 378 485 389 458 q 347 531 367 511 q 299 563 326 551 q 242 575 272 575 q 185 563 211 575 q 138 531 158 551 q 106 485 118 511 q 94 428 94 458 q 106 370 94 397 q 138 323 118 343 q 185 291 158 303 q 242 279 211 279 q 299 291 272 279 q 347 323 326 303 q 378 370 367 343 q 389 428 389 397 m 431 428 q 416 354 431 389 q 376 294 401 319 q 315 253 350 268 q 242 238 281 238 q 206 242 224 238 q 174 251 189 246 q 67 313 114 271 q 6 407 21 354 q 0 449 0 425 q 33 531 0 497 q 121 572 65 565 q 176 605 144 593 q 242 617 207 617 q 315 601 281 617 q 376 560 350 586 q 416 501 401 535 q 431 428 431 467 z "},"–":{"ha":628,"x_min":0,"x_max":628,"o":"m 585 535 l 153 535 l 153 315 l 585 315 l 585 535 m 108 272 l 0 463 l 111 463 l 111 578 l 628 578 l 628 272 l 108 272 z "},"—":{"ha":888,"x_min":0,"x_max":888,"o":"m 844 535 l 153 535 l 153 315 l 844 315 l 844 535 m 108 272 l 0 463 l 111 463 l 111 578 l 888 578 l 888 272 l 108 272 z "},"˜":{"ha":456,"x_min":0,"x_max":456,"o":"m 336 1063 q 324 1042 329 1050 q 303 1035 318 1035 q 279 1039 293 1035 q 249 1048 265 1043 q 217 1057 233 1053 q 188 1061 201 1061 q 134 1052 156 1061 q 98 1028 113 1043 q 74 996 83 1014 q 58 958 64 978 l 122 958 q 154 986 131 986 q 214 971 186 983 q 276 958 242 958 q 326 968 306 958 q 359 992 346 978 q 381 1026 372 1007 q 396 1063 390 1044 l 336 1063 m 456 1106 q 432 1040 444 1074 q 400 979 419 1007 q 352 934 381 951 q 282 917 324 917 q 222 926 250 917 q 161 942 194 936 l 151 917 l 0 917 q 24 988 11 954 q 57 1048 36 1022 q 109 1089 78 1074 q 189 1104 140 1104 q 243 1094 217 1104 q 297 1076 269 1083 l 310 1106 l 456 1106 z "},"™":{"ha":349,"x_min":0,"x_max":349,"o":"m 97 939 l 97 676 l 33 676 l 33 939 l 0 939 l 0 961 l 133 961 l 133 939 l 97 939 m 285 676 l 285 913 l 229 786 l 168 917 l 168 676 l 147 676 l 147 960 l 214 960 l 247 879 l 285 960 l 349 960 l 349 676 l 285 676 z "},"›":{"ha":240,"x_min":0,"x_max":240,"o":"m 42 647 l 42 560 l 65 493 l 42 426 l 42 339 l 183 493 l 42 647 m 0 231 l 0 433 l 22 493 l 0 551 l 0 756 l 240 493 l 0 231 z "}," ":{"ha":171,"x_min":0,"x_max":0,"o":""},"¡":{"ha":496,"x_min":0,"x_max":496,"o":"m 451 315 l 232 315 l 232 -322 l 451 -322 l 451 315 m 451 594 l 232 594 l 232 376 l 451 376 l 451 594 m 189 -364 l 0 528 l 189 528 l 189 638 l 496 638 l 496 -364 l 189 -364 z "},"¢":{"ha":583,"x_min":0,"x_max":583,"o":"m 540 178 l 469 178 q 419 185 431 178 q 407 219 407 193 l 407 488 q 417 528 407 518 q 460 538 428 538 l 536 538 l 536 717 l 436 717 l 436 835 l 346 835 l 346 718 l 306 718 q 178 603 178 718 l 178 101 q 208 27 178 54 q 289 0 239 0 l 346 0 l 346 -110 l 435 -110 l 435 0 l 540 0 l 540 178 m 478 -44 l 478 -153 l 303 -153 l 292 -44 l 261 -44 q 158 -17 203 -44 q 99 75 113 11 q 51 296 75 186 q 4 517 28 406 q 0 551 0 535 q 42 638 0 608 q 140 669 83 668 l 117 775 l 304 775 l 304 879 l 478 879 l 581 760 l 581 494 l 468 494 q 453 481 457 494 q 450 425 450 467 l 450 219 l 583 219 l 583 -44 l 478 -44 z "},"£":{"ha":753,"x_min":0,"x_max":753,"o":"m 708 199 q 685 200 697 200 q 661 200 674 200 q 530 186 594 200 q 400 149 465 172 q 431 180 415 164 q 461 214 447 196 q 483 253 475 232 q 492 299 492 274 l 492 394 q 525 395 508 394 q 558 396 542 396 q 628 392 592 396 l 628 492 l 493 492 l 493 592 q 522 690 493 664 q 626 717 551 717 q 667 714 647 717 q 707 707 688 711 l 707 922 q 664 918 686 919 q 622 917 642 917 l 419 917 q 356 904 386 917 q 302 869 325 892 q 266 815 279 846 q 253 747 253 785 l 253 490 l 167 490 l 167 394 l 253 394 q 253 356 253 375 q 254 318 254 338 q 251 258 254 288 q 239 201 249 228 q 212 151 229 174 q 164 114 194 129 l 164 0 l 708 0 l 708 199 m 111 -44 l 76 119 q 97 128 85 124 q 122 140 110 133 q 141 155 133 146 q 149 178 149 164 q 145 213 149 193 q 138 252 142 233 q 129 285 133 271 q 125 301 125 299 l 39 301 l 0 479 l 89 468 q 65 569 79 513 q 50 681 50 626 q 72 774 50 733 q 157 835 94 815 q 170 837 158 835 q 195 841 182 839 q 220 846 208 843 q 232 850 232 849 q 309 932 260 906 q 419 958 358 958 l 525 958 q 638 960 582 958 q 751 972 693 963 l 751 651 q 722 660 740 656 q 684 667 704 664 q 644 673 664 671 q 610 675 624 675 q 599 674 608 675 q 590 669 589 672 q 601 616 594 642 q 613 563 607 590 l 536 578 l 536 535 l 669 535 l 669 343 q 624 349 646 346 q 576 351 601 351 l 590 292 l 535 299 q 530 261 535 279 q 518 228 525 243 q 663 242 592 242 q 753 238 704 242 l 753 -44 l 111 -44 z "},"¤":{"ha":783,"x_min":0,"x_max":783,"o":"m 631 218 q 583 163 610 182 q 525 143 556 143 q 473 160 497 143 q 428 207 449 176 q 393 278 408 238 q 371 368 378 319 l 615 368 l 665 442 l 364 442 q 363 463 363 449 q 363 474 363 468 q 364 483 363 479 l 615 483 l 665 556 l 371 556 q 393 646 378 604 q 428 717 408 688 q 473 765 449 747 q 525 782 497 782 q 583 763 556 782 q 631 708 610 743 l 726 804 q 635 890 686 858 q 525 921 583 921 q 422 893 471 921 q 334 816 374 865 q 267 700 294 767 q 231 556 240 633 l 200 556 l 147 483 l 225 483 l 225 442 l 200 442 l 147 368 l 231 368 q 267 224 240 290 q 334 109 294 158 q 422 32 374 60 q 525 4 471 4 q 635 35 583 4 q 726 121 686 67 l 631 218 m 482 600 q 460 619 471 611 q 433 635 449 628 l 422 600 l 482 600 m 783 126 q 769 103 776 117 q 756 78 763 90 q 660 -10 718 19 q 536 -40 601 -40 q 388 3 456 -40 q 151 282 228 104 l 21 282 l 83 383 l 0 383 l 92 532 l 103 532 q 117 630 104 581 q 153 722 129 679 q 213 796 176 764 q 301 843 250 828 q 403 931 347 899 q 525 963 460 963 q 604 950 568 963 q 672 915 640 938 q 731 863 703 893 q 783 799 758 833 l 622 638 l 610 658 l 553 600 l 751 600 l 667 485 l 751 485 l 636 326 l 617 326 l 589 282 l 436 282 q 450 253 442 269 q 470 222 458 238 q 496 197 482 207 q 525 186 510 186 q 556 197 542 186 q 583 224 571 208 q 604 258 594 240 q 622 288 614 275 l 783 126 z "},"¥":{"ha":958,"x_min":0,"x_max":958,"o":"m 917 336 l 751 336 q 774 365 764 351 q 792 394 783 379 l 917 394 l 917 451 l 814 451 q 824 484 821 467 q 829 519 826 501 q 831 554 831 524 q 831 629 831 585 q 830 724 831 674 q 829 817 829 774 l 829 917 l 583 917 l 583 550 q 571 463 583 494 q 533 410 558 431 q 495 463 508 431 q 482 550 482 494 l 482 917 l 236 917 l 236 519 q 251 451 240 485 l 150 451 l 150 394 l 275 394 q 293 365 283 379 q 315 336 303 351 l 150 336 l 150 282 l 367 282 q 377 272 372 276 q 389 263 382 267 q 410 246 399 251 l 410 0 l 656 0 l 656 246 q 674 259 665 250 q 699 282 683 268 l 917 282 l 917 336 m 718 240 l 697 224 l 697 -46 l 364 -46 l 317 186 q 239 240 274 210 l 108 240 l 108 399 q 93 436 100 418 q 82 474 86 454 q 42 660 61 567 q 0 847 22 753 l 194 847 l 194 958 l 525 958 l 525 847 l 539 847 l 539 958 l 871 958 l 871 540 q 867 492 871 517 l 958 492 l 958 240 l 718 240 z "},"¨":{"ha":369,"x_min":0,"x_max":369,"o":"m 150 1013 q 134 1050 150 1035 q 96 1065 118 1065 q 58 1050 74 1065 q 43 1013 43 1035 q 58 975 43 990 q 96 960 74 960 q 134 975 118 960 q 150 1013 150 990 m 328 1013 q 311 1050 328 1035 q 272 1065 294 1065 q 235 1050 250 1065 q 219 1013 219 1035 q 235 975 219 990 q 272 960 250 960 q 311 975 294 960 q 328 1013 328 990 m 369 1013 q 341 944 369 972 q 272 917 313 917 q 219 933 243 917 q 185 976 196 949 q 150 933 174 949 q 96 917 126 917 q 28 944 57 917 q 0 1013 0 972 q 28 1080 0 1051 q 96 1108 57 1108 q 150 1091 126 1108 q 185 1047 174 1074 q 219 1091 196 1074 q 272 1108 243 1108 q 341 1080 313 1108 q 369 1013 369 1051 z "},"©":{"ha":913,"x_min":0,"x_max":913,"o":"m 664 376 q 603 244 651 293 q 469 194 556 194 q 374 217 415 194 q 303 275 332 239 q 261 358 275 311 q 247 454 247 404 q 263 551 247 506 q 307 630 278 596 q 378 684 336 664 q 475 704 421 704 q 606 656 556 704 q 664 528 657 608 l 589 528 q 555 607 578 576 q 476 638 532 638 q 419 624 446 638 q 373 588 393 610 q 342 537 353 565 q 331 479 331 508 l 331 428 q 340 369 331 399 q 368 315 350 339 q 412 277 386 292 q 469 263 438 263 q 551 295 521 263 q 592 376 581 328 l 664 376 m 853 451 q 820 604 851 532 q 735 731 789 676 q 609 817 681 785 q 456 849 538 849 q 305 818 376 849 q 181 735 233 788 q 97 613 128 683 q 65 463 65 542 q 95 304 65 379 q 178 173 125 229 q 303 83 231 117 q 460 50 375 50 q 613 82 542 50 q 738 169 685 114 q 821 297 790 225 q 853 451 851 369 m 913 451 q 877 273 913 357 q 780 126 842 189 q 635 26 718 63 q 457 -11 551 -11 q 278 26 361 -11 q 133 126 194 63 q 35 274 71 190 q 0 454 0 358 q 38 633 0 550 q 138 776 75 715 q 285 873 201 838 q 464 908 369 908 q 639 871 557 908 q 782 771 721 833 q 878 626 843 708 q 913 451 913 543 z "},"ª":{"ha":367,"x_min":0,"x_max":367,"o":"m 197 719 l 197 833 q 225 864 197 864 q 251 833 251 864 l 251 719 l 197 719 m 335 881 q 327 913 335 900 q 297 926 319 926 l 150 926 q 121 913 129 926 q 113 881 113 900 l 113 575 l 197 575 l 197 654 l 251 654 l 251 575 l 335 575 l 335 881 m 67 542 l 3 838 q 0 858 0 851 q 22 900 0 886 q 75 914 43 914 q 85 911 82 914 q 109 945 92 933 q 150 957 126 957 l 297 957 q 350 935 333 957 q 367 881 367 914 l 367 542 l 67 542 z "},"«":{"ha":446,"x_min":0,"x_max":446,"o":"m 200 426 l 176 493 l 200 560 l 200 647 l 58 493 l 200 339 l 200 426 m 406 426 l 381 493 l 406 560 l 406 647 l 263 493 l 406 339 l 406 426 m 229 467 l 242 433 l 242 231 l 0 493 l 242 756 l 242 551 q 235 535 238 542 l 229 518 l 446 756 l 446 551 l 425 493 l 446 433 l 446 231 l 229 467 z "},"¬":{"ha":558,"x_min":22,"x_max":536,"o":"m 457 417 l 457 551 l 22 551 l 22 631 l 536 631 l 536 417 l 457 417 z "},"®":{"ha":440,"x_min":0,"x_max":440,"o":"m 268 824 q 261 843 268 835 q 239 851 254 851 l 188 851 l 188 790 l 233 790 q 258 800 247 790 q 268 824 268 810 m 272 667 q 265 692 268 676 q 256 724 261 708 q 244 750 251 739 q 225 761 238 761 l 188 761 l 188 667 l 153 667 l 153 881 l 235 881 q 284 870 261 881 q 307 828 307 860 q 294 792 307 804 q 261 772 281 779 q 279 753 272 767 q 291 725 286 740 q 299 694 296 710 q 308 667 303 678 l 272 667 m 408 769 q 394 841 408 807 q 354 900 379 875 q 296 940 329 925 q 225 954 263 954 q 151 941 186 954 q 90 903 117 928 q 47 846 63 879 q 31 774 31 813 q 46 700 31 733 q 88 643 61 667 q 149 606 114 619 q 225 593 185 593 q 293 606 260 593 q 352 644 326 619 q 393 700 378 668 q 408 769 408 732 m 440 769 q 422 687 440 725 q 374 621 404 649 q 306 577 344 593 q 225 561 267 561 q 140 576 181 561 q 69 619 100 592 q 19 684 38 646 q 0 768 0 722 q 19 853 0 814 q 69 922 38 893 q 142 967 101 950 q 228 983 183 983 q 309 966 271 983 q 376 919 347 949 q 423 851 406 890 q 440 769 440 813 z "},"°":{"ha":346,"x_min":22,"x_max":324,"o":"m 265 894 q 238 960 265 932 q 174 989 211 989 q 106 961 133 989 q 79 894 79 933 q 106 827 79 854 q 174 800 133 800 q 238 828 211 800 q 265 894 265 856 m 324 894 q 312 835 324 863 q 279 788 300 808 q 231 756 258 768 q 174 744 204 744 q 114 756 142 744 q 66 788 86 768 q 34 835 46 808 q 22 894 22 863 q 34 952 22 925 q 67 1000 46 979 q 115 1033 88 1021 q 174 1044 142 1044 q 230 1033 203 1044 q 278 1000 257 1021 q 311 952 299 979 q 324 894 324 925 z "},"±":{"ha":485,"x_min":22,"x_max":463,"o":"m 22 114 l 22 197 l 463 197 l 463 114 l 22 114 m 283 418 l 283 240 l 201 240 l 201 418 l 22 418 l 22 501 l 201 501 l 201 679 l 283 679 l 283 501 l 463 501 l 463 418 l 283 418 z "},"²":{"ha":410,"x_min":0,"x_max":410,"o":"m 388 578 l 272 578 q 309 620 292 596 q 353 689 326 644 q 380 765 372 729 q 388 843 388 800 q 372 920 385 903 q 331 938 358 938 l 158 938 q 120 924 138 935 q 103 888 103 914 l 103 738 l 218 738 l 218 819 q 224 838 218 831 q 244 844 231 844 q 268 818 268 844 q 264 792 268 808 q 106 572 231 657 l 106 479 l 388 479 l 388 578 m 83 457 l 60 571 q 122 620 94 593 q 165 686 149 647 l 33 686 q 17 762 26 722 q 1 838 7 801 q 1 843 1 840 q 0 849 0 846 q 26 894 0 883 q 83 904 53 904 q 158 958 97 958 l 331 958 q 369 949 354 958 q 394 923 385 939 q 406 885 403 907 q 410 842 410 864 q 386 713 410 775 q 321 599 363 650 l 408 599 l 408 457 l 83 457 z "},"³":{"ha":407,"x_min":0,"x_max":407,"o":"m 385 876 q 364 920 385 903 q 315 938 343 938 l 161 938 q 117 926 129 938 q 104 888 104 915 l 104 769 l 221 769 l 221 822 q 228 838 221 832 q 244 843 235 843 q 267 821 267 843 l 267 775 q 244 751 267 751 l 214 751 l 214 663 l 243 663 q 265 642 265 663 l 265 590 q 242 564 265 564 q 219 589 219 564 l 219 636 l 104 636 l 104 532 q 142 479 104 488 l 322 479 q 335 481 331 479 q 382 543 378 490 l 382 657 q 362 691 379 679 q 321 706 344 703 q 374 736 363 721 q 385 781 385 751 l 385 876 m 406 781 q 401 740 406 760 q 379 707 397 721 q 401 668 397 688 q 404 625 404 649 l 404 568 q 402 528 404 547 q 391 493 400 508 q 365 468 382 478 q 319 458 349 458 l 147 458 q 96 475 115 458 q 69 521 76 492 l 43 639 l 82 639 l 82 657 l 150 657 l 138 713 l 28 713 l 3 833 q 0 845 0 840 q 0 854 0 850 q 25 896 0 888 q 83 904 50 904 q 109 947 89 936 q 160 958 129 958 l 315 958 q 383 935 360 958 q 407 864 407 913 l 406 781 z "},"´":{"ha":426,"x_min":0,"x_max":426,"o":"m 143 1125 l 54 958 l 111 958 l 317 1125 l 143 1125 m 426 1160 l 125 928 l 0 928 l 126 1160 l 426 1160 z "},"¶":{"ha":590,"x_min":22,"x_max":568,"o":"m 272 -200 l 272 356 q 172 393 218 365 q 93 461 126 421 q 41 551 60 501 q 22 654 22 600 q 49 783 22 725 q 123 880 76 840 q 232 941 169 919 q 365 963 294 963 l 365 -200 l 272 -200 m 513 867 l 513 -200 l 422 -200 l 422 961 l 568 961 l 568 867 l 513 867 z "},"·":{"ha":415,"x_min":0,"x_max":415,"o":"m 374 542 l 153 542 l 153 322 l 374 322 l 374 542 m 110 279 l 0 469 l 113 469 l 113 585 l 415 585 l 415 279 l 110 279 z "},"¹":{"ha":356,"x_min":0,"x_max":356,"o":"m 335 608 l 275 608 l 275 967 l 147 967 l 100 865 l 158 865 l 158 608 l 100 608 l 100 508 l 335 508 l 335 608 m 78 488 l 51 618 l 78 618 l 78 631 l 107 631 l 69 801 l 0 801 l 43 933 l 108 933 l 135 988 l 297 988 l 297 631 l 356 631 l 356 488 l 78 488 z "},"º":{"ha":343,"x_min":0,"x_max":343,"o":"m 225 686 q 217 658 225 667 q 199 649 208 649 q 180 658 188 649 q 172 686 172 667 l 172 846 q 180 872 172 864 q 199 881 188 881 q 217 872 208 881 q 225 846 225 864 l 225 686 m 313 844 q 292 911 313 889 q 240 933 272 933 l 158 933 q 99 909 115 931 q 83 844 83 888 l 83 692 q 108 609 83 638 q 174 581 133 581 l 210 581 q 285 608 258 581 q 313 689 313 636 l 313 844 m 343 699 q 336 644 343 671 q 315 596 329 617 q 279 562 301 575 q 226 549 257 549 l 168 549 q 94 565 122 549 q 42 632 65 582 q 28 668 33 650 q 19 706 24 686 q 7 763 14 732 q 0 825 0 794 q 15 886 0 860 q 72 919 31 913 q 121 957 92 950 q 181 964 150 964 l 218 964 q 315 928 288 964 q 343 838 343 893 l 343 699 z "},"»":{"ha":447,"x_min":0,"x_max":447,"o":"m 42 647 l 42 560 l 65 493 l 42 426 l 42 339 l 183 493 l 42 647 m 247 647 l 247 560 l 272 493 l 247 426 l 247 339 l 390 493 l 247 647 m 204 231 l 204 433 l 217 467 l 0 231 l 0 433 l 22 493 l 0 551 l 0 756 l 217 518 l 214 524 q 210 535 213 526 l 204 551 l 204 756 l 447 493 l 204 231 z "},"¼":{"ha":1126,"x_min":0,"x_max":1126,"o":"m 1107 74 l 1110 63 l 1088 63 l 1088 -26 l 886 -26 l 867 63 l 617 63 l 686 429 l 433 -58 l 240 -58 l 440 326 l 99 326 l 64 492 l 99 492 l 99 508 l 133 508 l 88 724 l 0 724 l 54 889 l 136 889 l 169 957 l 374 957 l 374 508 l 447 508 l 447 339 l 763 947 l 956 947 l 742 536 l 799 536 l 824 604 l 1085 604 l 1085 242 l 1126 242 l 1126 74 l 1107 74 m 1099 214 l 1058 214 l 1058 578 l 843 578 l 674 103 l 914 103 l 914 0 l 1060 0 l 1060 101 l 1099 101 l 1099 214 m 421 481 l 347 481 l 347 931 l 186 931 l 126 804 l 199 804 l 199 481 l 126 481 l 126 353 l 421 353 l 421 481 m 785 911 l 300 -22 l 411 -22 l 896 911 l 785 911 m 828 215 l 911 456 l 911 215 l 828 215 z "},"½":{"ha":1171,"x_min":0,"x_max":1171,"o":"m 761 -28 l 731 117 q 808 178 774 144 q 863 260 842 211 l 697 260 q 681 328 690 293 q 665 400 672 364 l 428 -58 l 235 -58 l 435 326 l 99 326 l 64 492 l 99 492 l 99 507 l 133 507 l 88 722 l 0 722 l 54 888 l 136 888 l 169 957 l 374 957 l 374 507 l 447 507 l 447 350 l 757 947 l 950 947 l 735 533 q 748 535 742 535 q 761 535 754 535 q 854 604 781 604 l 1072 604 q 1122 592 1103 604 q 1152 559 1142 579 q 1167 513 1163 539 q 1171 457 1171 486 q 1142 295 1171 374 q 1060 151 1113 217 l 1169 151 l 1169 -28 l 761 -28 m 1143 124 l 999 124 q 1055 189 1029 154 q 1099 264 1081 224 q 1133 360 1122 315 q 1143 458 1143 406 q 1122 556 1143 533 q 1061 578 1100 578 l 856 578 q 807 561 829 575 q 785 515 785 547 l 785 326 l 931 326 l 931 429 q 957 460 931 457 l 963 460 q 992 428 992 460 q 988 394 992 415 q 962 313 976 346 q 917 238 947 279 q 788 118 863 165 l 788 0 l 1143 0 l 1143 124 m 421 479 l 347 479 l 347 931 l 186 931 l 126 803 l 199 803 l 199 479 l 126 479 l 126 353 l 421 353 l 421 479 m 779 911 l 294 -22 l 406 -22 l 890 911 l 779 911 z "},"¾":{"ha":1150,"x_min":0,"x_max":1150,"o":"m 513 728 q 507 676 513 700 q 478 635 501 653 q 505 585 500 611 q 510 532 510 560 l 510 460 q 506 406 510 432 l 788 946 l 981 946 l 767 536 l 824 536 l 849 604 l 1108 604 l 1108 242 l 1150 242 l 1150 74 l 1131 74 l 1133 63 l 1111 63 l 1111 -26 l 911 -26 l 892 63 l 642 63 l 711 429 l 457 -60 l 264 -60 l 472 340 q 403 321 446 321 l 186 321 q 88 401 106 321 l 56 549 l 104 549 l 104 572 l 189 572 l 174 642 l 36 642 l 3 794 q 1 808 1 801 q 0 821 0 814 q 32 872 0 861 q 106 883 64 883 q 138 938 113 924 q 203 951 164 951 l 397 951 q 489 917 463 951 q 515 813 515 882 q 514 767 515 789 q 513 728 513 744 m 1124 214 l 1082 214 l 1082 578 l 867 578 l 699 103 l 938 103 l 938 0 l 1085 0 l 1085 101 l 1124 101 l 1124 214 m 485 857 q 458 909 485 893 q 397 925 432 925 l 203 925 q 147 911 163 925 q 132 863 132 897 l 132 713 l 279 713 l 279 781 q 303 806 279 801 l 308 806 q 330 797 322 806 q 338 778 338 789 l 338 721 q 331 697 338 703 q 308 690 325 690 l 271 690 l 271 579 l 307 579 q 330 574 324 579 q 336 553 336 568 l 336 488 q 306 456 336 456 q 278 486 278 456 l 278 544 l 132 544 l 132 414 q 145 369 132 388 q 190 347 158 350 l 407 347 q 459 369 439 347 q 482 428 479 392 l 482 572 q 456 615 478 601 q 406 633 433 629 q 447 652 432 643 q 471 672 463 661 q 482 695 479 682 q 485 728 485 708 l 485 857 m 808 910 l 324 -24 l 436 -24 l 921 910 l 808 910 m 851 215 l 936 456 l 936 215 l 851 215 z "},"¿":{"ha":763,"x_min":0,"x_max":763,"o":"m 722 -44 l 535 -44 l 535 -157 l 458 -157 l 458 -37 q 465 18 458 -1 q 490 56 471 38 q 499 64 494 60 q 514 74 504 68 q 540 90 524 81 q 586 117 557 100 q 657 244 657 157 q 656 281 657 263 q 654 315 654 299 l 433 315 l 433 267 q 430 244 433 254 q 415 224 426 233 q 381 206 404 215 q 319 185 358 197 q 238 137 261 167 q 215 46 215 107 l 215 -197 q 244 -294 215 -264 q 333 -324 272 -324 l 618 -324 q 668 -315 649 -324 q 703 -282 688 -306 q 717 -251 713 -267 q 722 -217 722 -236 l 722 -44 m 654 594 l 433 594 l 433 375 l 654 375 l 654 594 m 763 -217 q 719 -328 763 -293 q 606 -364 676 -364 l 333 -364 q 265 -360 299 -364 q 201 -346 232 -357 q 145 -315 171 -335 q 101 -262 119 -294 l 13 -108 q 0 -65 0 -83 q 8 -39 0 -53 q 35 -13 17 -25 q 84 6 54 -1 q 158 14 114 14 l 26 246 l 331 246 l 338 233 q 368 244 357 240 q 384 251 379 247 q 390 257 389 254 q 392 267 392 260 l 392 636 l 696 636 l 696 314 q 697 285 696 299 q 697 260 697 272 q 694 207 697 232 q 683 160 692 182 q 656 118 674 138 q 608 81 639 99 q 579 66 596 74 q 547 49 563 58 q 519 26 532 39 q 503 -3 507 14 l 763 -3 l 763 -217 z "},"Æ":{"ha":1417,"x_min":0,"x_max":1417,"o":"m 493 396 l 493 663 q 543 724 493 724 q 590 663 590 724 l 590 396 l 493 396 m 838 782 q 814 878 838 840 q 725 917 790 917 l 358 917 q 270 878 294 917 q 246 782 246 840 l 246 0 l 493 0 l 493 201 l 590 201 l 590 0 l 838 0 l 838 782 m 1374 561 l 1129 561 l 1129 717 l 1374 717 l 1374 917 l 1043 917 q 926 887 969 917 q 881 778 882 857 q 879 628 879 703 q 879 478 879 553 q 879 323 879 400 q 881 169 879 246 q 926 41 883 82 q 1046 0 969 0 l 1374 0 l 1374 204 l 1129 204 l 1129 353 l 1374 353 l 1374 561 m 1300 310 l 1311 264 l 1174 264 l 1174 250 l 1417 250 l 1417 -44 l 160 -44 l 6 678 q 0 728 0 701 q 12 782 0 760 q 44 819 24 804 q 93 840 65 833 q 151 847 121 847 l 208 847 l 210 851 q 265 930 226 901 q 357 958 304 958 l 725 958 q 817 934 783 958 q 867 868 850 910 q 939 939 893 919 q 1043 958 985 958 l 1417 958 l 1417 672 l 1224 672 l 1239 603 l 1417 603 l 1417 310 l 1300 310 z "},"Ç":{"ha":674,"x_min":0,"x_max":674,"o":"m 631 917 l 394 917 q 277 872 317 917 q 238 746 238 828 l 238 171 q 271 50 238 96 q 385 0 304 4 l 336 -101 l 442 -150 l 513 0 l 629 0 l 629 219 l 535 219 q 494 254 499 219 l 494 667 q 536 697 501 697 l 631 697 l 631 917 m 536 654 l 536 263 l 672 263 l 672 -44 l 538 -44 l 463 -206 l 282 -122 l 318 -43 q 185 6 239 -36 q 114 132 132 49 l 6 644 q 1 668 3 656 q 0 694 0 681 q 47 810 0 776 q 176 846 94 843 l 214 847 q 240 899 222 878 q 283 934 258 921 q 337 953 308 947 q 394 958 365 958 l 674 958 l 674 654 l 536 654 z "},"Ð":{"ha":911,"x_min":0,"x_max":911,"o":"m 618 283 q 607 222 618 236 q 567 207 596 207 l 524 207 l 524 388 l 581 388 l 581 464 l 524 464 l 524 717 l 565 717 q 618 644 618 717 l 618 283 m 867 739 q 831 874 867 831 q 729 918 796 918 l 275 918 l 275 464 l 203 464 l 203 388 l 275 388 l 275 0 l 733 0 q 804 11 778 0 q 844 45 831 22 q 863 101 858 68 q 867 181 867 135 l 867 739 m 911 181 q 900 69 911 113 q 863 0 889 25 q 795 -35 838 -25 q 690 -44 753 -44 l 189 -44 l 111 328 l 57 328 l 0 426 l 90 426 l 0 849 l 232 849 l 232 960 l 729 960 q 813 942 778 960 q 869 894 847 924 q 901 824 890 864 q 911 739 911 783 l 911 181 z "},"×":{"ha":478,"x_min":22,"x_max":456,"o":"m 390 125 l 239 276 l 86 125 l 22 190 l 174 342 l 22 496 l 85 558 l 238 408 l 392 558 l 456 494 l 304 342 l 456 190 l 390 125 z "},"Ø":{"ha":842,"x_min":0,"x_max":842,"o":"m 525 278 q 524 252 525 265 q 517 227 522 239 q 503 208 513 215 q 476 200 493 200 q 440 218 451 200 q 429 278 429 236 l 429 344 l 525 506 l 525 278 m 429 486 l 429 669 q 444 719 429 703 q 478 736 458 736 q 510 719 496 736 q 525 669 525 703 l 525 647 l 429 486 m 722 983 l 668 890 q 628 905 650 897 q 579 913 607 913 l 374 913 q 281 892 319 908 q 220 843 243 876 q 187 756 197 810 q 176 622 176 703 l 176 294 q 187 199 176 242 q 214 124 197 157 l 126 -24 l 188 -61 l 260 60 q 414 0 319 0 l 546 0 q 723 65 672 0 q 774 256 774 129 l 774 696 q 758 786 774 744 q 726 847 742 828 l 785 944 l 722 983 m 776 849 q 802 797 793 818 q 815 756 811 776 q 820 715 819 736 q 821 663 821 693 l 821 256 q 801 116 821 174 q 747 22 782 58 q 666 -30 713 -14 q 564 -46 619 -46 l 411 -46 q 368 -44 386 -46 q 334 -39 350 -43 q 302 -28 318 -35 q 265 -14 286 -22 l 204 -117 l 69 -40 l 126 107 q 115 127 119 117 q 104 149 110 138 q 73 237 83 193 q 51 328 63 281 q 19 474 38 394 q 0 626 0 553 q 8 701 0 665 q 36 765 17 736 q 88 811 56 793 q 171 836 121 829 q 249 926 190 896 q 376 957 307 957 l 526 957 q 590 952 558 957 q 650 940 621 947 l 708 1039 l 842 958 l 776 849 z "},"Þ":{"ha":869,"x_min":0,"x_max":869,"o":"m 581 413 q 569 369 581 382 q 532 357 558 357 l 486 357 l 486 578 l 531 578 q 581 522 581 578 l 581 413 m 826 633 q 794 747 826 715 q 685 778 761 778 l 483 778 l 483 921 l 235 921 l 235 4 l 483 4 l 483 147 l 688 147 q 792 187 757 147 q 826 318 826 226 l 826 633 m 869 317 q 865 256 869 286 q 847 199 860 226 q 814 150 835 172 q 763 115 793 128 q 750 112 754 113 q 739 106 746 111 q 677 72 715 79 q 600 65 639 65 q 560 66 579 65 q 525 67 540 67 l 525 -42 l 188 -42 l 0 851 l 190 851 l 190 963 l 525 963 l 525 819 l 685 819 q 763 811 725 819 q 829 771 801 803 q 861 707 853 743 q 869 635 869 671 l 869 317 z "},"ß":{"ha":794,"x_min":0,"x_max":794,"o":"m 750 376 q 735 414 746 397 q 707 442 724 431 q 670 460 690 454 q 631 467 650 467 q 674 478 653 472 q 713 494 696 483 q 740 522 729 504 q 750 568 750 539 l 750 842 q 719 898 750 878 q 650 918 689 918 l 307 918 q 237 898 268 918 q 206 842 206 878 l 206 0 l 431 0 l 431 719 q 443 747 431 736 q 478 758 456 758 q 512 747 500 758 q 524 719 524 736 l 524 603 q 482 547 524 550 l 482 371 q 512 363 497 371 q 526 338 526 354 l 526 225 q 516 187 526 206 q 482 165 506 168 l 482 0 l 681 0 q 723 22 703 0 q 750 93 743 44 l 750 376 m 794 106 q 787 53 794 79 q 763 6 779 26 q 725 -28 747 -15 q 674 -42 703 -42 l 169 -42 l 3 719 q 1 733 1 726 q 0 746 0 739 q 11 790 0 771 q 40 824 22 810 q 81 844 58 838 q 128 851 104 851 q 147 850 136 851 q 164 846 157 849 q 213 927 172 894 q 306 960 253 960 l 650 960 q 705 950 679 960 q 751 923 731 940 q 783 881 771 906 q 794 828 794 857 l 794 583 q 786 519 794 550 q 750 464 778 489 q 785 415 776 440 q 794 357 794 389 l 794 106 z "},"æ":{"ha":1417,"x_min":0,"x_max":1417,"o":"m 493 396 l 493 663 q 543 724 493 724 q 590 663 590 724 l 590 396 l 493 396 m 838 782 q 814 878 838 840 q 725 917 790 917 l 358 917 q 270 878 294 917 q 246 782 246 840 l 246 0 l 493 0 l 493 201 l 590 201 l 590 0 l 838 0 l 838 782 m 1374 561 l 1129 561 l 1129 717 l 1374 717 l 1374 917 l 1043 917 q 926 887 969 917 q 881 778 882 857 q 879 628 879 703 q 879 478 879 553 q 879 323 879 400 q 881 169 879 246 q 926 41 883 82 q 1046 0 969 0 l 1374 0 l 1374 204 l 1129 204 l 1129 353 l 1374 353 l 1374 561 m 1300 310 l 1311 264 l 1174 264 l 1174 250 l 1417 250 l 1417 -44 l 160 -44 l 6 678 q 0 728 0 701 q 12 782 0 760 q 44 819 24 804 q 93 840 65 833 q 151 847 121 847 l 208 847 l 210 851 q 265 930 226 901 q 357 958 304 958 l 725 958 q 817 934 783 958 q 867 868 850 910 q 939 939 893 919 q 1043 958 985 958 l 1417 958 l 1417 672 l 1224 672 l 1239 603 l 1417 603 l 1417 310 l 1300 310 z "},"ç":{"ha":674,"x_min":0,"x_max":674,"o":"m 631 917 l 394 917 q 277 872 317 917 q 238 746 238 828 l 238 171 q 271 50 238 96 q 385 0 304 4 l 336 -101 l 442 -150 l 513 0 l 629 0 l 629 219 l 535 219 q 494 254 499 219 l 494 667 q 536 697 501 697 l 631 697 l 631 917 m 536 654 l 536 263 l 672 263 l 672 -44 l 538 -44 l 463 -206 l 282 -122 l 318 -43 q 185 6 239 -36 q 114 132 132 49 l 6 644 q 1 668 3 656 q 0 694 0 681 q 47 810 0 776 q 176 846 94 843 l 214 847 q 240 899 222 878 q 283 934 258 921 q 337 953 308 947 q 394 958 365 958 l 674 958 l 674 654 l 536 654 z "},"ð":{"ha":911,"x_min":0,"x_max":911,"o":"m 618 283 q 607 222 618 236 q 567 207 596 207 l 524 207 l 524 388 l 581 388 l 581 464 l 524 464 l 524 717 l 565 717 q 618 644 618 717 l 618 283 m 867 739 q 831 874 867 831 q 729 918 796 918 l 275 918 l 275 464 l 203 464 l 203 388 l 275 388 l 275 0 l 733 0 q 804 11 778 0 q 844 45 831 22 q 863 101 858 68 q 867 181 867 135 l 867 739 m 911 181 q 900 69 911 113 q 863 0 889 25 q 795 -35 838 -25 q 690 -44 753 -44 l 189 -44 l 111 328 l 57 328 l 0 426 l 90 426 l 0 849 l 232 849 l 232 960 l 729 960 q 813 942 778 960 q 869 894 847 924 q 901 824 890 864 q 911 739 911 783 l 911 181 z "},"÷":{"ha":485,"x_min":22,"x_max":463,"o":"m 22 496 l 22 579 l 463 579 l 463 496 l 22 496 m 199 654 q 214 690 199 675 q 250 706 229 706 q 286 690 271 706 q 301 654 301 675 q 286 618 301 633 q 250 603 271 603 q 214 618 229 603 q 199 654 199 633 m 199 422 q 214 458 199 443 q 250 474 229 474 q 286 458 271 474 q 301 422 301 443 q 286 386 301 401 q 250 371 271 371 q 214 386 229 371 q 199 422 199 401 z "},"ø":{"ha":842,"x_min":0,"x_max":842,"o":"m 525 278 q 524 252 525 265 q 517 227 522 239 q 503 208 513 215 q 476 200 493 200 q 440 218 451 200 q 429 278 429 236 l 429 344 l 525 506 l 525 278 m 429 486 l 429 669 q 444 719 429 703 q 478 736 458 736 q 510 719 496 736 q 525 669 525 703 l 525 647 l 429 486 m 722 983 l 668 890 q 628 905 650 897 q 579 913 607 913 l 374 913 q 281 892 319 908 q 220 843 243 876 q 187 756 197 810 q 176 622 176 703 l 176 294 q 187 199 176 242 q 214 124 197 157 l 126 -24 l 188 -61 l 260 60 q 414 0 319 0 l 546 0 q 723 65 672 0 q 774 256 774 129 l 774 696 q 758 786 774 744 q 726 847 742 828 l 785 944 l 722 983 m 776 849 q 802 797 793 818 q 815 756 811 776 q 820 715 819 736 q 821 663 821 693 l 821 256 q 801 116 821 174 q 747 22 782 58 q 666 -30 713 -14 q 564 -46 619 -46 l 411 -46 q 368 -44 386 -46 q 334 -39 350 -43 q 302 -28 318 -35 q 265 -14 286 -22 l 204 -117 l 69 -40 l 126 107 q 115 127 119 117 q 104 149 110 138 q 73 237 83 193 q 51 328 63 281 q 19 474 38 394 q 0 626 0 553 q 8 701 0 665 q 36 765 17 736 q 88 811 56 793 q 171 836 121 829 q 249 926 190 896 q 376 957 307 957 l 526 957 q 590 952 558 957 q 650 940 621 947 l 708 1039 l 842 958 l 776 849 z "},"þ":{"ha":869,"x_min":0,"x_max":869,"o":"m 581 413 q 569 369 581 382 q 532 357 558 357 l 486 357 l 486 578 l 531 578 q 581 522 581 578 l 581 413 m 826 633 q 794 747 826 715 q 685 778 761 778 l 483 778 l 483 921 l 235 921 l 235 4 l 483 4 l 483 147 l 688 147 q 792 187 757 147 q 826 318 826 226 l 826 633 m 869 317 q 865 256 869 286 q 847 199 860 226 q 814 150 835 172 q 763 115 793 128 q 750 112 754 113 q 739 106 746 111 q 677 72 715 79 q 600 65 639 65 q 560 66 579 65 q 525 67 540 67 l 525 -42 l 188 -42 l 0 851 l 190 851 l 190 963 l 525 963 l 525 819 l 685 819 q 763 811 725 819 q 829 771 801 803 q 861 707 853 743 q 869 635 869 671 l 869 317 z "},"ˇ":{"ha":525,"x_min":0,"x_max":525,"o":"m 329 1117 l 263 1092 l 196 1117 l 107 1117 l 263 974 l 417 1117 l 329 1117 m 263 917 l 0 1158 l 203 1158 l 263 1136 l 322 1158 l 525 1158 l 263 917 z "},"˚":{"ha":301,"x_min":0,"x_max":301,"o":"m 194 1063 q 182 1036 194 1047 q 153 1025 169 1025 q 124 1036 136 1025 q 113 1063 113 1047 q 124 1092 113 1079 q 153 1104 136 1104 q 182 1092 169 1104 q 194 1063 194 1079 m 253 1063 q 224 1135 253 1106 q 153 1165 194 1165 q 82 1135 110 1165 q 54 1063 54 1106 q 82 992 54 1021 q 153 964 110 964 q 224 992 194 964 q 253 1063 253 1021 m 301 1063 q 290 1004 301 1032 q 258 956 278 976 q 210 923 238 935 q 150 911 182 911 q 92 923 119 911 q 44 956 65 935 q 12 1004 24 976 q 0 1063 0 1032 q 12 1122 0 1094 q 44 1170 24 1150 q 92 1202 65 1190 q 150 1214 119 1214 q 210 1202 182 1214 q 258 1170 238 1190 q 290 1122 278 1150 q 301 1063 301 1094 z "},"⁄":{"ha":717,"x_min":0,"x_max":717,"o":"m 544 933 l 60 0 l 171 0 l 657 933 l 544 933 m 193 -36 l 0 -36 l 524 969 l 717 969 l 193 -36 z "},"μ":{"ha":947,"x_min":22,"x_max":925,"o":"m 869 363 q 911 340 897 363 q 925 289 925 317 q 922 245 925 269 q 910 194 918 221 q 845 95 888 129 q 739 61 803 61 q 645 85 685 61 q 581 151 606 108 q 507 87 554 108 q 408 65 460 65 q 331 79 368 65 q 265 121 293 93 l 265 90 q 265 13 265 51 q 264 -67 264 -25 q 227 -169 264 -135 q 140 -203 190 -203 q 90 -192 111 -203 q 53 -162 68 -181 q 30 -120 38 -144 q 22 -71 22 -96 q 29 -25 22 -46 q 47 19 36 -4 q 62 81 54 40 q 69 210 69 122 l 69 772 l 347 772 l 347 315 q 363 255 347 275 q 399 235 379 235 q 435 255 418 235 q 451 315 451 275 l 451 772 l 728 772 l 728 353 q 739 285 728 304 q 775 267 750 267 q 799 282 792 267 q 813 315 806 297 q 831 347 819 332 q 869 363 842 363 z "},"−":{"ha":485,"x_min":22,"x_max":463,"o":"m 22 496 l 22 579 l 463 579 l 463 496 l 22 496 z "},"ƒ":{"ha":1119,"x_min":22,"x_max":1097,"o":"m 638 553 q 636 532 638 539 q 658 535 650 535 q 717 522 688 535 q 750 479 746 508 q 785 488 765 485 q 821 490 804 490 q 900 469 865 490 q 935 403 935 447 q 931 381 935 392 q 922 361 928 371 q 910 356 918 356 q 896 368 896 356 q 899 376 896 371 q 906 389 903 383 q 908 403 908 394 q 887 447 908 431 q 835 463 865 463 q 776 453 801 463 q 731 431 750 444 q 703 403 713 418 q 693 375 693 388 q 703 347 693 360 q 750 333 714 333 q 773 337 761 333 q 796 340 785 340 q 811 325 811 340 q 764 247 806 279 q 722 225 744 233 q 672 217 700 217 q 610 229 640 217 q 560 265 581 242 q 510 229 539 242 q 449 217 481 217 q 398 225 421 217 q 356 247 375 233 q 324 282 336 263 q 310 325 313 301 q 317 335 310 331 q 326 340 324 340 q 369 333 346 333 q 419 347 408 333 q 429 375 429 360 q 419 403 429 388 q 390 431 408 418 q 344 453 371 444 q 283 463 317 463 q 233 447 253 463 q 213 403 213 431 q 221 376 213 389 q 224 368 224 371 q 210 356 224 356 q 197 361 203 356 q 188 381 192 371 q 185 403 185 392 q 219 469 185 447 q 299 490 254 490 q 335 488 315 490 q 369 479 356 485 q 403 522 374 508 q 460 535 432 535 q 471 534 465 535 q 483 532 476 533 q 482 544 482 539 q 482 557 482 550 q 489 617 482 592 q 506 640 496 640 q 522 617 514 640 q 525 601 524 610 q 526 583 526 593 l 501 553 l 528 553 q 527 533 528 542 q 525 515 526 524 q 549 472 549 499 q 536 437 549 449 q 508 418 524 425 q 480 403 493 411 q 467 383 467 394 q 476 362 467 371 q 500 348 486 353 q 530 340 514 343 q 560 338 546 338 q 590 340 574 338 q 619 348 606 343 q 642 362 633 353 q 651 383 651 371 q 640 403 651 394 q 611 418 629 411 q 583 436 596 425 q 571 472 571 447 q 594 515 571 499 q 592 535 593 524 q 592 557 592 546 q 599 617 592 592 q 615 640 606 640 q 631 617 624 640 q 635 601 633 610 q 636 582 636 592 l 611 553 l 638 553 m 661 517 q 608 501 628 517 q 589 472 589 490 q 608 442 589 453 q 661 428 629 428 q 713 442 692 428 q 733 472 733 453 q 713 501 733 490 q 661 517 693 517 m 460 517 q 407 501 426 517 q 388 472 388 490 q 407 442 388 453 q 460 428 428 428 q 511 442 490 428 q 532 472 532 453 q 511 501 532 490 q 460 517 492 517 m 654 339 q 608 316 635 322 q 560 310 582 310 q 512 316 539 310 q 465 339 485 322 q 420 314 446 322 q 369 306 394 306 q 356 306 363 306 q 342 308 349 307 q 385 260 354 276 q 449 244 415 244 q 504 258 476 244 q 547 296 532 271 q 560 303 554 303 q 572 296 568 303 q 615 258 588 271 q 672 244 643 244 q 735 260 704 244 q 778 308 765 276 q 764 306 771 307 q 750 306 757 306 q 700 314 725 306 q 654 339 675 322 m 454 722 q 335 672 383 707 q 288 572 288 636 q 289 553 288 563 q 290 532 290 543 q 276 517 290 517 q 264 529 265 517 q 260 572 260 551 q 278 663 260 619 q 328 739 296 706 q 283 778 303 754 q 257 831 264 801 l 257 836 q 261 846 257 843 q 269 849 265 849 q 278 846 274 849 q 283 836 282 843 q 333 769 294 793 q 414 744 371 744 q 491 766 454 744 q 542 828 528 788 q 554 836 543 836 q 568 828 567 836 q 618 766 581 788 q 696 744 656 744 q 776 769 738 744 q 826 836 815 793 q 831 846 826 843 q 839 849 835 849 q 853 836 853 849 l 853 831 q 828 781 846 803 q 788 743 811 758 q 840 665 821 708 q 858 572 858 621 q 858 551 858 561 q 856 529 857 540 q 842 517 851 517 q 828 535 828 517 q 832 572 832 553 q 790 674 832 640 q 688 718 749 707 q 613 741 649 725 q 554 792 576 757 q 512 747 538 764 q 454 722 486 729 m 976 117 q 895 60 942 81 q 797 40 849 40 q 681 10 743 10 l 665 10 q 560 -14 615 -14 q 454 10 504 -14 l 439 10 q 321 40 378 10 q 224 60 271 40 q 144 117 176 81 q 59 201 96 151 q 22 315 22 251 q 44 402 22 361 q 99 475 65 443 q 72 540 82 507 q 63 608 63 574 q 102 753 63 686 q 211 869 142 819 q 367 947 278 918 q 560 975 457 975 q 752 947 663 975 q 910 869 842 918 q 1017 753 978 819 q 1057 608 1057 686 q 1047 540 1057 574 q 1022 475 1038 507 q 1076 402 1054 443 q 1097 315 1097 361 q 1061 201 1097 251 q 976 117 1025 151 m 843 72 q 904 95 875 79 q 955 135 933 111 q 989 188 976 158 q 1001 253 1001 218 q 965 356 1001 308 q 963 364 963 361 q 976 378 963 378 q 988 371 983 378 q 1017 315 1007 346 q 1028 253 1028 285 q 1019 192 1028 221 q 1056 249 1042 218 q 1069 315 1069 279 q 1049 396 1069 358 q 996 461 1028 433 q 992 471 992 465 q 993 478 992 475 q 1029 608 1029 539 q 992 740 1029 679 q 893 847 956 801 q 743 922 828 894 q 560 950 658 950 q 376 922 461 950 q 228 849 290 894 q 127 740 164 801 q 90 608 90 679 q 100 541 90 574 q 126 478 110 508 q 128 472 128 476 q 125 461 128 467 q 72 396 93 433 q 50 315 50 358 q 64 249 50 279 q 100 192 78 218 q 92 253 92 221 q 102 315 92 285 q 132 371 113 346 q 144 378 135 378 q 153 374 149 378 q 157 364 157 369 q 154 356 157 361 q 128 306 136 332 q 119 253 119 281 q 166 134 119 182 q 276 72 213 86 q 227 138 246 100 q 208 222 208 176 q 254 346 208 292 q 265 353 260 353 q 276 349 272 353 q 279 340 279 344 q 275 331 279 335 q 236 222 236 281 q 250 153 236 185 q 288 99 264 122 q 342 60 311 75 q 408 40 374 44 q 351 108 372 68 q 329 197 329 149 q 333 208 329 204 q 342 213 338 213 q 357 197 357 213 q 374 123 357 157 q 420 65 392 89 q 485 27 449 40 q 560 14 521 14 q 635 27 599 14 q 701 65 672 40 q 747 123 729 89 q 764 197 764 157 q 778 213 764 213 q 790 197 790 213 q 769 108 790 149 q 713 40 749 68 q 777 60 746 44 q 832 99 808 75 q 869 153 856 122 q 883 222 883 185 q 844 331 883 281 q 842 340 842 333 q 845 349 842 344 q 854 353 849 353 q 865 346 861 353 q 911 222 911 292 q 892 138 911 176 q 843 72 874 100 z "},"§":{"ha":1707,"x_min":22,"x_max":1685,"o":"m 1685 919 l 1685 531 l 1571 531 l 1571 804 l 1504 804 l 1504 919 l 1685 919 m 1296 439 q 1285 428 1285 439 q 1296 415 1285 415 l 1525 415 l 1525 360 l 1296 360 q 1285 349 1285 360 q 1296 336 1285 336 l 1525 336 l 1525 282 l 1296 282 q 1249 301 1268 282 q 1231 349 1231 321 q 1243 388 1231 371 q 1231 428 1231 404 q 1249 474 1231 456 q 1296 493 1268 493 l 1525 493 l 1525 439 l 1296 439 m 478 415 l 478 360 l 236 360 l 236 282 l 182 282 l 182 428 q 201 474 182 456 q 249 493 221 493 l 478 493 l 478 439 l 249 439 q 236 428 236 439 l 236 415 l 478 415 m 529 493 l 840 493 l 840 419 q 819 363 840 388 q 765 336 797 339 l 815 282 l 742 282 l 690 336 l 611 336 l 611 392 l 757 392 q 777 400 768 392 q 786 419 786 408 l 786 438 l 585 438 l 585 282 l 529 282 l 529 493 m 954 439 q 942 428 942 439 q 954 415 942 415 l 1183 415 l 1183 360 l 954 360 q 942 349 942 360 q 954 336 942 336 l 1183 336 l 1183 282 l 954 282 q 907 301 926 282 q 888 349 888 321 q 900 388 888 371 q 888 428 888 404 q 907 474 888 456 q 954 493 926 493 l 1183 493 l 1183 439 l 954 439 m 1347 246 l 1347 190 l 1192 190 l 1192 88 l 1257 88 l 1257 32 l 1136 32 l 1136 190 l 1040 190 l 1040 246 l 1347 246 m 1579 88 q 1622 111 1606 88 l 1385 111 l 1385 139 q 1416 215 1385 183 q 1492 246 1447 246 l 1685 246 l 1685 190 l 1492 190 q 1449 167 1463 190 l 1685 167 l 1685 139 q 1654 63 1685 94 q 1579 32 1624 32 l 1385 32 l 1385 88 l 1579 88 m 318 167 l 318 111 l 78 111 l 78 32 l 22 32 l 22 178 q 42 226 22 206 q 89 246 61 246 l 318 246 l 318 190 l 89 190 q 78 178 78 190 l 78 167 l 318 167 m 994 32 l 914 32 q 885 98 903 69 q 836 150 868 126 q 750 188 796 181 l 750 32 l 694 32 l 694 244 l 725 244 q 801 231 764 244 q 869 193 838 217 q 939 111 914 160 l 939 246 l 994 246 l 994 32 m 644 244 l 644 146 q 611 66 644 100 q 531 32 578 32 l 350 32 l 350 131 q 383 211 350 178 q 465 244 417 244 l 644 244 m 465 189 q 423 172 440 189 q 406 131 406 154 l 406 88 l 531 88 q 572 105 554 88 q 589 146 589 122 l 589 189 l 465 189 m 203 919 l 203 531 l 89 531 l 89 804 l 22 804 l 22 919 l 203 919 m 1426 919 l 1426 740 q 1410 659 1426 697 q 1365 592 1393 621 q 1298 547 1336 564 q 1217 531 1260 531 l 893 531 l 893 711 q 910 792 893 754 q 954 858 926 829 q 1020 903 982 886 q 1103 919 1058 919 l 1426 919 m 1103 804 q 1035 777 1063 804 q 1007 711 1007 750 l 1007 644 l 1217 644 q 1283 672 1256 644 q 1311 740 1311 700 l 1311 804 l 1103 804 m 814 919 l 814 740 q 797 659 814 697 q 753 592 781 621 q 687 547 725 564 q 606 531 649 531 l 282 531 l 282 711 q 299 792 282 754 q 344 858 315 829 q 410 903 372 886 q 492 919 449 919 l 814 919 m 492 804 q 424 777 451 804 q 396 711 396 750 l 396 644 l 606 644 q 672 672 644 644 q 700 740 700 700 l 700 804 l 492 804 z "},"œ":{"ha":1365,"x_min":0,"x_max":1365,"o":"m 528 279 q 517 217 528 235 q 481 200 506 200 q 444 218 456 200 q 432 279 432 236 l 432 678 q 447 728 432 711 q 481 744 461 744 q 513 728 499 744 q 528 678 528 713 l 528 279 m 776 731 q 726 867 776 824 q 585 919 675 911 l 375 919 q 281 900 319 915 q 220 851 243 885 q 187 760 197 817 q 176 615 176 703 l 176 300 q 194 169 176 225 q 244 75 213 113 q 321 19 276 38 q 418 0 365 0 l 504 0 q 710 73 643 0 q 776 289 776 146 l 776 731 m 1324 919 l 992 919 q 873 881 915 919 q 831 756 831 843 l 831 189 q 873 47 831 93 q 996 0 915 0 l 1324 0 l 1324 206 l 1078 206 l 1078 356 l 1322 356 l 1322 564 l 1078 564 l 1078 719 l 1324 719 l 1324 919 m 1250 313 l 1260 267 l 1122 267 l 1122 253 l 1365 253 l 1365 -46 l 933 -46 q 829 -22 874 -46 q 736 33 785 3 q 665 -18 707 1 q 568 -43 622 -37 q 511 -47 539 -46 q 456 -49 483 -49 q 349 -40 400 -49 q 253 -8 297 -31 q 171 52 208 14 q 104 150 133 90 q 73 240 83 193 q 51 333 63 286 q 19 479 38 400 q 0 633 0 558 q 8 710 0 674 q 36 774 17 746 q 90 822 56 803 q 174 849 124 842 q 224 909 194 886 q 288 943 253 932 q 360 958 322 954 q 439 961 399 961 l 531 961 q 611 958 572 961 q 685 941 650 954 q 747 902 719 928 q 794 833 775 876 q 878 935 828 910 q 992 961 928 961 l 1365 961 l 1365 675 l 1174 675 l 1189 606 l 1365 606 l 1365 313 l 1250 313 z "},"€":{"ha":783,"x_min":0,"x_max":783,"o":"m 631 218 q 583 163 610 182 q 525 143 556 143 q 473 160 497 143 q 428 207 449 176 q 393 278 408 238 q 371 368 378 319 l 615 368 l 665 442 l 364 442 q 363 463 363 449 q 363 474 363 468 q 364 483 363 479 l 615 483 l 665 556 l 371 556 q 393 646 378 604 q 428 717 408 688 q 473 765 449 747 q 525 782 497 782 q 583 763 556 782 q 631 708 610 743 l 726 804 q 635 890 686 858 q 525 921 583 921 q 422 893 471 921 q 334 816 374 865 q 267 700 294 767 q 231 556 240 633 l 200 556 l 147 483 l 225 483 l 225 442 l 200 442 l 147 368 l 231 368 q 267 224 240 290 q 334 109 294 158 q 422 32 374 60 q 525 4 471 4 q 635 35 583 4 q 726 121 686 67 l 631 218 m 482 600 q 460 619 471 611 q 433 635 449 628 l 422 600 l 482 600 m 783 126 q 769 103 776 117 q 756 78 763 90 q 660 -10 718 19 q 536 -40 601 -40 q 388 3 456 -40 q 151 282 228 104 l 21 282 l 83 383 l 0 383 l 92 532 l 103 532 q 117 630 104 581 q 153 722 129 679 q 213 796 176 764 q 301 843 250 828 q 403 931 347 899 q 525 963 460 963 q 604 950 568 963 q 672 915 640 938 q 731 863 703 893 q 783 799 758 833 l 622 638 l 610 658 l 553 600 l 751 600 l 667 485 l 751 485 l 636 326 l 617 326 l 589 282 l 436 282 q 450 253 442 269 q 470 222 458 238 q 496 197 482 207 q 525 186 510 186 q 556 197 542 186 q 583 224 571 208 q 604 258 594 240 q 622 288 614 275 l 783 126 z "},"a":{"ha":879,"x_min":0,"x_max":879,"o":"m 492 396 l 492 663 q 542 724 492 724 q 590 663 590 724 l 590 396 l 492 396 m 836 782 q 813 878 836 840 q 725 917 789 917 l 357 917 q 269 878 294 917 q 244 782 244 840 l 244 0 l 492 0 l 492 201 l 590 201 l 590 0 l 836 0 l 836 782 m 160 -44 l 6 678 q 0 728 0 701 q 12 781 0 758 q 44 819 24 804 q 92 840 65 833 q 150 847 119 847 l 207 847 l 208 851 q 264 930 225 901 q 356 958 303 958 l 725 958 q 843 908 807 958 q 879 782 879 858 l 879 -44 l 160 -44 z "},"b":{"ha":914,"x_min":0,"x_max":914,"o":"m 618 249 q 611 209 618 225 q 565 193 604 193 l 525 193 l 525 363 l 561 363 q 606 351 593 363 q 618 315 618 340 l 618 249 m 619 618 q 605 575 619 588 q 567 563 590 563 l 525 563 l 525 719 l 567 719 q 605 705 590 719 q 619 665 619 690 l 619 618 m 871 328 q 859 389 871 365 q 826 427 847 413 q 778 449 806 442 q 721 461 751 457 q 778 480 751 469 q 824 507 804 490 q 854 549 843 524 q 865 611 865 574 q 867 667 865 639 q 868 722 868 694 q 863 795 868 760 q 840 858 857 831 q 792 901 824 885 q 706 917 760 917 l 275 917 l 275 0 l 715 0 q 871 153 871 0 l 871 328 m 913 153 q 894 55 913 101 q 831 -19 875 8 q 778 -40 806 -35 q 724 -44 751 -44 l 190 -44 l 0 847 l 231 847 l 231 958 l 706 958 q 859 903 810 958 q 908 742 908 849 q 908 697 908 718 q 907 653 907 675 q 897 549 907 596 q 844 465 888 503 q 902 383 890 433 q 914 281 914 333 q 914 215 914 247 q 913 153 914 182 z "},"c":{"ha":674,"x_min":0,"x_max":674,"o":"m 629 917 l 394 917 q 277 872 317 917 q 238 746 238 828 l 238 171 q 273 47 238 93 q 394 0 308 0 l 629 0 l 629 219 l 535 219 q 493 254 497 219 l 493 667 q 536 697 500 697 l 629 697 l 629 917 m 536 654 l 536 263 l 674 263 l 674 -44 l 343 -44 q 192 -1 251 -44 q 114 132 133 43 l 6 644 q 1 668 3 656 q 0 694 0 681 q 47 810 0 775 q 176 847 93 844 l 213 847 q 240 899 221 878 q 283 934 258 921 q 337 953 308 947 q 394 958 365 958 l 674 958 l 674 654 l 536 654 z "},"d":{"ha":911,"x_min":0,"x_max":911,"o":"m 619 283 q 608 222 619 236 q 568 207 597 207 l 522 207 l 522 717 l 565 717 q 605 699 590 717 q 619 644 619 681 l 619 283 m 868 739 q 831 874 868 831 q 728 918 794 918 l 275 918 l 275 0 l 733 0 q 804 11 778 0 q 845 45 831 22 q 864 101 860 68 q 868 181 868 135 l 868 739 m 911 181 q 900 69 911 113 q 863 0 889 25 q 795 -35 838 -25 q 690 -44 753 -44 l 190 -44 l 0 849 l 232 849 l 232 960 l 728 960 q 813 942 778 960 q 869 894 847 924 q 901 824 892 864 q 911 739 911 783 l 911 181 z "},"e":{"ha":771,"x_min":0,"x_max":771,"o":"m 729 558 l 483 558 l 483 717 l 728 717 l 728 917 l 397 917 q 277 883 319 917 q 235 763 235 850 l 235 188 q 277 46 235 92 q 400 0 319 0 l 728 0 l 728 204 l 483 204 l 483 350 l 729 350 l 729 558 m 578 672 l 593 600 l 771 600 l 771 307 l 656 307 l 665 261 l 528 261 l 528 247 l 771 247 l 771 -47 l 339 -47 q 185 7 243 -47 q 107 153 126 61 l 6 644 q 1 669 3 657 q 0 696 0 682 q 52 811 0 775 q 186 847 104 847 l 211 847 q 284 935 235 911 q 397 958 333 958 l 771 958 l 771 672 l 578 672 z "},"f":{"ha":739,"x_min":0,"x_max":739,"o":"m 696 917 l 276 917 l 276 0 l 525 0 l 525 347 l 696 347 l 696 558 l 528 558 l 528 717 l 696 717 l 696 917 m 571 672 l 571 603 l 739 603 l 739 304 l 622 304 l 632 260 l 568 260 l 568 -44 l 190 -44 l 0 847 l 233 847 l 233 958 l 739 958 l 739 672 l 571 672 z "},"g":{"ha":883,"x_min":0,"x_max":883,"o":"m 840 531 l 561 531 q 585 479 579 508 q 592 417 592 450 l 592 219 l 538 219 q 502 230 511 219 q 493 269 493 240 l 493 640 q 494 667 493 654 q 500 691 494 681 q 516 707 506 701 q 546 713 526 713 l 760 713 q 806 706 790 713 q 839 689 822 700 l 839 918 l 396 918 q 324 911 353 918 q 276 886 294 904 q 251 839 258 868 q 243 767 243 810 l 243 178 q 272 38 243 76 q 369 0 300 0 l 728 0 q 811 46 782 0 q 840 192 840 92 l 840 531 m 883 192 q 881 131 883 163 q 868 69 878 99 q 842 14 858 39 q 796 -26 825 -11 q 739 -42 771 -39 q 679 -44 707 -44 l 318 -44 q 236 -31 269 -44 q 179 6 203 -18 q 141 66 156 31 q 117 146 126 101 l 7 663 q 0 724 0 694 q 15 785 0 761 q 56 824 31 810 q 115 843 82 838 q 183 849 149 849 l 208 849 q 235 905 217 883 q 279 939 254 926 q 334 956 304 951 q 396 960 364 960 l 883 960 l 883 614 q 849 635 863 625 q 821 652 835 644 q 793 664 807 660 q 758 668 779 668 l 690 668 l 710 574 l 883 574 l 883 192 z "},"h":{"ha":915,"x_min":0,"x_max":915,"o":"m 872 917 l 625 917 l 625 571 l 522 571 l 522 917 l 274 917 l 274 0 l 525 0 l 525 356 l 625 356 l 625 0 l 872 0 l 872 917 m 189 -47 l 0 847 l 231 847 l 231 960 l 565 960 l 565 847 l 581 847 l 581 960 l 915 960 l 915 -47 l 189 -47 z "},"i":{"ha":567,"x_min":0,"x_max":567,"o":"m 524 917 l 275 917 l 275 0 l 524 0 l 524 917 m 190 -47 l 0 847 l 232 847 l 232 960 l 567 960 l 567 -47 l 190 -47 z "},"j":{"ha":568,"x_min":0,"x_max":568,"o":"m 525 915 l 275 915 l 275 289 q 235 221 275 221 q 219 222 229 221 q 172 233 208 224 l 154 -4 q 214 -15 182 -11 q 290 -19 246 -19 q 470 31 415 -19 q 525 189 525 82 l 525 915 m 568 189 q 553 83 568 133 q 493 -6 538 32 q 403 -51 453 -39 q 301 -62 354 -62 q 188 -58 244 -62 q 68 -43 132 -54 l 26 256 l 129 236 l 0 846 l 232 846 l 232 958 l 568 958 l 568 189 z "},"k":{"ha":961,"x_min":0,"x_max":975,"o":"m 901 0 q 885 54 888 25 q 882 119 882 83 l 882 304 q 872 374 882 346 q 843 422 863 403 q 794 451 824 440 q 728 469 765 463 q 783 492 757 482 q 827 516 808 501 q 857 554 846 531 q 868 615 868 578 l 868 799 q 869 833 868 819 q 874 860 871 847 q 883 885 878 872 q 897 917 889 899 l 635 917 q 620 863 624 890 q 617 808 617 836 q 619 748 617 778 q 621 689 621 718 q 619 643 621 665 q 610 603 618 621 q 585 574 601 585 q 540 563 569 563 q 531 563 536 563 q 521 564 526 563 l 521 917 l 275 917 l 275 0 l 521 0 l 521 342 l 578 342 q 620 322 610 342 q 631 274 631 301 l 631 94 q 634 45 631 69 q 654 0 638 21 l 901 0 m 586 -44 l 565 -24 l 565 -44 l 189 -44 l 0 847 l 231 847 l 231 958 l 565 958 l 565 847 l 576 847 q 586 903 576 876 q 607 958 596 931 l 961 958 q 928 884 946 922 q 911 804 911 846 l 911 615 q 897 535 911 569 q 843 475 882 501 q 909 402 893 443 q 925 304 925 361 l 925 119 q 927 69 925 89 q 935 33 929 50 q 951 -1 942 17 q 975 -44 960 -18 l 586 -44 z "},"l":{"ha":776,"x_min":0,"x_max":776,"o":"m 725 240 q 650 219 674 224 q 607 215 626 215 q 556 219 578 215 q 554 361 554 289 l 554 626 q 554 731 554 689 q 556 775 554 772 q 564 851 557 817 q 582 919 571 885 l 288 919 q 303 824 297 871 q 308 726 308 776 l 308 0 l 686 0 l 725 240 m 722 -44 l 222 -44 l 71 667 q 40 759 60 715 q 0 847 19 803 l 257 847 q 246 903 251 876 q 235 958 240 931 l 643 958 q 628 917 636 940 q 612 870 619 894 q 599 822 604 846 q 594 781 594 799 l 594 251 q 688 271 643 254 q 776 301 733 288 l 722 -44 z "},"m":{"ha":1272,"x_min":0,"x_max":1272,"o":"m 1229 763 q 1219 846 1229 815 q 1189 892 1208 876 q 1142 913 1169 908 q 1079 917 1114 917 l 1007 917 q 960 907 978 917 q 929 881 942 897 q 908 842 917 864 q 892 797 900 821 q 888 834 892 814 q 876 873 885 854 q 853 904 867 892 q 818 917 839 917 l 646 917 q 601 903 619 917 q 570 868 583 889 q 548 823 557 847 q 531 778 539 799 q 526 848 531 814 q 510 917 521 882 l 258 917 q 279 830 272 868 q 286 751 286 792 l 286 0 l 536 0 l 536 643 q 551 692 536 676 q 586 708 567 708 q 622 692 606 708 q 638 642 638 675 l 638 0 l 885 0 l 885 647 q 901 695 885 679 q 935 711 917 711 q 967 696 953 711 q 981 647 981 681 l 981 0 l 1229 0 l 1229 763 m 240 -46 l 93 649 q 84 682 89 665 q 69 721 79 699 q 43 773 60 743 q 0 847 26 803 l 233 847 q 217 903 226 875 q 199 958 208 931 l 540 958 q 547 938 543 949 q 556 919 551 928 q 610 951 579 946 q 674 957 642 957 l 778 957 q 843 951 813 957 q 900 911 874 944 q 967 951 926 944 q 1049 957 1007 957 l 1126 957 q 1201 940 1172 957 q 1246 896 1231 924 q 1267 833 1261 868 q 1272 763 1272 799 l 1272 -46 l 240 -46 z "},"n":{"ha":925,"x_min":0,"x_max":925,"o":"m 882 760 q 855 881 882 844 q 767 917 828 917 l 713 917 q 653 914 682 917 q 600 899 624 911 q 558 864 576 888 q 532 800 540 840 q 524 874 528 851 q 514 917 519 897 l 257 917 q 278 838 268 876 q 288 751 288 800 l 288 0 l 535 0 l 535 632 q 550 685 535 668 q 585 703 565 703 q 619 686 604 703 q 633 635 633 669 l 633 0 l 882 0 l 882 760 m 240 -46 l 92 653 q 54 753 81 707 q 0 847 28 799 l 233 847 q 217 903 226 875 q 197 958 207 931 l 544 958 q 551 941 547 950 q 557 921 554 932 q 619 953 588 946 q 686 961 651 961 l 767 961 q 847 944 815 961 q 895 899 878 926 q 919 835 913 871 q 925 761 925 799 l 925 -46 l 240 -46 z "},"o":{"ha":806,"x_min":0,"x_max":806,"o":"m 532 240 q 519 198 532 213 q 483 183 506 183 q 464 186 478 183 q 440 203 449 189 q 431 240 431 217 l 431 706 q 482 747 440 747 q 532 706 522 747 l 532 240 m 763 778 q 731 881 763 844 q 654 918 699 918 l 307 918 q 233 881 264 918 q 201 778 201 844 l 201 151 q 210 94 201 121 q 235 46 218 67 q 279 13 253 25 q 342 0 306 0 q 510 0 450 0 q 598 0 569 0 q 633 1 626 0 q 642 1 639 1 q 697 16 674 7 q 734 42 719 25 q 756 85 749 58 q 763 151 763 111 l 763 778 m 806 151 q 763 8 806 57 q 621 -42 719 -42 l 326 -42 q 194 0 250 -42 q 124 117 139 42 q 64 397 94 258 q 4 676 33 536 q 0 718 0 697 q 40 814 0 779 q 143 851 81 849 l 167 851 q 219 928 183 896 q 307 960 256 960 l 654 960 q 720 944 692 960 q 767 902 749 928 q 796 844 786 876 q 806 779 806 811 l 806 151 z "},"z":{"ha":761,"x_min":0,"x_max":761,"o":"m 224 917 l 188 715 l 390 715 l 188 0 l 679 0 l 708 222 l 490 222 l 703 917 l 224 917 m 547 265 l 758 265 l 715 -46 l 128 -46 l 200 585 l 0 585 l 0 847 l 168 847 l 188 958 l 761 958 l 547 265 z "},"y":{"ha":869,"x_min":0,"x_max":869,"o":"m 831 917 l 582 917 l 582 550 q 570 463 582 494 q 532 410 558 431 q 494 463 507 431 q 482 550 482 494 l 482 917 l 235 917 q 236 724 236 810 q 236 652 236 688 q 236 588 236 617 q 237 541 236 560 q 238 519 238 522 q 258 442 243 483 q 294 363 272 401 q 347 294 317 325 q 411 246 376 263 l 411 0 l 654 0 l 654 246 q 715 292 686 263 q 767 360 744 322 q 806 438 790 397 q 831 519 822 479 l 831 917 m 869 540 q 820 364 869 444 q 699 224 771 283 l 699 -46 l 364 -46 l 315 186 q 169 306 235 232 q 81 474 103 379 q 40 660 60 567 q 0 847 21 753 l 193 847 l 193 958 l 524 958 l 524 847 l 539 847 l 539 958 l 869 958 l 869 540 z "},"x":{"ha":879,"x_min":0,"x_max":879,"o":"m 838 331 q 810 399 838 368 q 713 457 783 429 q 802 513 767 469 q 838 617 838 557 l 838 917 l 586 917 l 586 631 q 538 533 578 565 q 494 599 504 557 q 485 708 485 642 l 485 844 q 486 917 485 881 l 236 917 l 236 617 q 269 515 236 554 q 361 457 303 476 q 263 399 290 429 q 236 331 236 368 l 236 0 l 485 0 l 485 271 q 504 333 490 311 q 538 369 518 354 q 569 333 557 354 q 588 271 582 311 l 588 0 l 838 0 l 838 331 m 544 -46 l 526 39 l 526 -46 l 189 -46 l 121 279 q 119 292 119 286 q 118 306 118 299 q 124 342 118 328 q 137 364 129 356 q 152 379 144 372 q 163 394 160 386 q 101 452 124 419 q 68 529 78 485 l 0 847 l 193 847 l 193 958 l 528 958 l 528 847 l 544 847 l 544 958 l 879 958 l 879 617 q 862 528 879 564 q 808 457 844 493 q 860 404 840 438 q 879 331 879 371 l 879 -46 l 544 -46 z "},"w":{"ha":1215,"x_min":0,"x_max":1215,"o":"m 1171 917 l 926 917 l 926 256 q 910 208 926 224 q 878 193 894 193 q 842 214 858 193 q 826 272 826 235 l 826 917 l 582 917 l 582 272 q 565 214 582 235 q 529 193 549 193 q 499 208 514 193 q 483 256 483 224 l 483 917 l 238 917 l 238 206 q 279 46 238 92 q 403 0 321 0 l 544 0 q 613 16 583 0 q 662 58 642 32 q 692 118 682 85 q 703 186 703 151 q 717 117 707 150 q 747 58 728 83 q 794 16 765 32 q 864 0 822 0 l 1006 0 q 1129 46 1088 0 q 1171 206 1171 92 l 1171 917 m 1215 204 q 1203 103 1215 149 q 1166 24 1192 57 q 1098 -28 1140 -10 q 994 -46 1056 -46 l 867 -46 q 774 -32 818 -46 q 690 24 731 -18 l 686 19 q 607 -32 649 -18 q 518 -46 565 -46 l 392 -46 q 290 -28 332 -46 q 217 22 247 -10 q 169 99 188 54 q 139 197 150 143 l 0 847 l 192 847 l 192 958 l 526 958 l 526 847 l 539 847 l 539 958 l 869 958 l 869 847 l 882 847 l 882 958 l 1215 958 l 1215 204 z "},"v":{"ha":882,"x_min":0,"x_max":882,"o":"m 590 917 l 590 506 q 581 363 590 435 q 536 221 572 290 q 495 346 506 278 q 485 506 485 414 l 485 917 l 236 917 q 235 807 236 861 q 235 700 235 753 q 242 517 235 608 q 267 339 249 426 q 317 166 286 251 q 399 0 349 81 l 674 0 q 792 255 749 126 q 836 531 836 383 l 836 917 l 590 917 m 881 958 q 881 884 881 921 q 881 801 881 847 q 882 696 882 756 q 882 551 882 636 q 874 413 882 479 q 844 277 865 347 q 788 128 824 207 q 697 -46 751 50 l 368 -46 q 226 137 290 42 q 122 342 163 232 q 53 592 78 464 q 0 847 28 721 l 193 847 l 193 958 l 528 958 l 528 847 l 546 847 l 546 958 l 881 958 z "},"u":{"ha":875,"x_min":0,"x_max":875,"o":"m 833 917 l 583 917 l 583 260 q 576 208 583 224 q 546 193 569 193 l 518 193 q 491 210 497 193 q 485 263 485 226 l 485 917 l 236 917 l 236 106 q 240 58 236 78 q 256 26 244 39 q 287 6 267 13 q 339 0 307 0 l 728 0 q 786 8 765 0 q 817 31 807 15 q 831 68 828 46 q 833 118 833 90 l 833 917 m 875 117 q 842 -8 875 31 q 718 -46 808 -46 l 326 -46 q 216 -18 254 -46 q 163 81 178 10 l 0 847 l 192 847 l 192 958 l 528 958 l 528 847 l 542 847 l 542 958 l 875 958 l 875 117 z "},"t":{"ha":775,"x_min":0,"x_max":775,"o":"m 731 917 l 236 917 l 236 715 l 358 715 l 358 0 l 606 0 l 606 715 l 731 715 l 731 917 m 649 672 l 649 -46 l 311 -46 l 178 585 l 56 585 l 0 847 l 192 847 l 192 958 l 775 958 l 775 672 l 649 672 z "},"s":{"ha":728,"x_min":0,"x_max":728,"o":"m 685 463 q 658 547 685 513 q 574 582 632 582 l 447 582 l 447 715 l 685 715 l 685 917 l 372 917 q 291 908 324 917 q 238 878 258 899 q 208 822 217 857 q 199 733 199 786 l 199 496 q 231 382 199 414 q 321 350 264 350 l 433 350 l 433 210 l 199 210 l 199 0 l 547 0 q 617 11 590 0 q 659 43 644 22 q 679 93 674 64 q 685 158 685 122 l 685 463 m 575 672 l 575 625 l 590 625 q 695 578 663 625 q 728 463 728 531 l 728 118 q 712 42 728 74 q 670 -8 696 11 q 610 -37 644 -28 q 538 -46 575 -46 l 153 -46 l 96 224 l 156 224 l 156 251 l 324 251 l 322 261 l 246 261 q 147 285 185 261 q 87 348 110 308 q 51 439 64 388 q 26 547 39 490 q 10 625 19 583 q 0 707 0 667 q 6 753 0 729 q 25 798 11 778 q 60 831 39 818 q 113 843 81 843 l 168 843 q 236 930 189 901 q 342 958 283 958 l 725 958 l 725 672 l 575 672 z "},"r":{"ha":933,"x_min":0,"x_max":958,"o":"m 578 669 q 578 650 578 658 q 579 633 579 642 q 565 569 579 585 q 514 553 550 553 l 488 553 l 488 717 l 510 717 q 578 669 574 717 m 868 0 q 858 25 864 14 q 847 48 851 36 q 838 74 842 60 q 835 108 835 88 l 835 307 q 803 413 835 375 q 688 467 771 451 q 786 503 746 467 q 833 601 826 539 l 833 767 q 653 914 833 914 l 236 914 l 236 0 l 485 0 l 485 344 l 521 344 q 560 335 547 344 q 579 301 574 325 l 579 79 q 586 33 579 51 q 604 0 593 15 l 868 0 m 575 -46 q 549 -17 560 -31 q 528 15 538 -4 l 528 -46 l 190 -46 l 0 844 l 193 844 l 193 956 l 654 956 q 744 944 703 956 q 814 907 785 932 q 859 844 843 882 q 875 751 875 806 l 875 631 q 873 580 875 603 q 865 538 871 557 q 845 502 858 519 q 811 467 832 485 q 867 388 854 436 q 881 285 881 340 q 878 213 881 249 q 876 143 876 178 q 895 41 876 83 q 958 -46 914 -1 l 575 -46 z "},"q":{"ha":806,"x_min":0,"x_max":806,"o":"m 806 151 q 765 10 806 60 q 631 -42 724 -39 l 721 -42 l 765 -258 l 721 -258 l 721 -286 l 476 -286 q 388 -258 424 -286 q 351 -178 351 -231 l 351 -42 l 326 -42 q 194 0 250 -42 q 124 117 139 42 q 64 397 94 258 q 4 676 33 536 q 0 718 0 697 q 40 815 0 778 q 143 851 81 851 l 167 851 q 219 928 183 896 q 307 960 256 960 l 654 960 q 720 944 692 960 q 767 902 749 928 q 796 844 786 876 q 806 779 806 811 l 806 151 m 532 240 q 519 198 532 213 q 483 183 506 183 q 464 186 478 183 q 440 203 449 189 q 431 240 431 217 l 431 706 q 482 747 440 747 q 532 706 522 747 l 532 240 m 572 0 l 632 0 q 730 35 697 0 q 763 151 763 71 l 763 778 q 731 881 763 844 q 654 918 699 918 l 307 918 q 233 881 264 918 q 201 778 201 844 l 201 151 q 210 94 201 121 q 235 46 218 67 q 279 13 253 25 q 342 0 306 0 l 400 0 l 400 -176 q 420 -226 400 -208 q 476 -243 440 -243 l 679 -243 l 679 -94 l 628 -94 q 589 -88 606 -94 q 572 -58 572 -82 l 572 0 z "},"p":{"ha":871,"x_min":0,"x_max":871,"o":"m 582 551 q 571 508 582 521 q 532 496 560 496 l 486 496 l 486 715 l 531 715 q 570 703 558 715 q 582 661 582 690 l 582 551 m 828 774 q 794 886 828 856 q 685 917 761 917 l 235 917 l 235 0 l 483 0 l 483 286 l 689 286 q 792 326 757 286 q 828 457 828 365 l 828 774 m 871 456 q 864 389 871 422 q 842 327 857 356 q 801 276 826 299 q 740 244 776 254 q 678 211 717 218 q 600 204 640 204 q 561 205 581 204 q 525 206 542 206 l 525 -46 l 189 -46 l 0 847 l 192 847 l 192 958 l 685 958 q 822 915 774 958 q 871 774 871 871 l 871 456 z "},"¯":{"ha":471,"x_min":4,"x_max":471,"o":"m 433 1124 l 126 1124 l 126 958 l 433 958 l 433 1124 m 89 922 l 4 1071 l 90 1071 l 90 1160 l 471 1160 l 471 922 l 89 922 z "},"À":{"ha":879,"x_min":0,"x_max":879,"o":"m 492 396 l 492 663 q 542 724 492 724 q 590 663 590 724 l 590 396 l 492 396 m 836 782 q 813 878 836 840 q 725 917 789 917 l 357 917 q 269 878 294 917 q 244 782 244 840 l 244 0 l 492 0 l 492 201 l 590 201 l 590 0 l 836 0 l 836 782 m 160 -44 l 6 678 q 0 728 0 701 q 12 781 0 758 q 44 819 24 804 q 92 840 65 833 q 150 847 119 847 l 207 847 l 208 851 q 264 930 225 901 q 356 958 303 958 l 725 958 q 843 908 807 958 q 879 782 879 858 l 879 -44 l 160 -44 m 538 1125 l 365 1125 l 571 958 l 629 958 l 538 1125 m 557 928 l 256 1160 l 556 1160 l 682 928 l 557 928 z "},"Á":{"ha":879,"x_min":0,"x_max":879,"o":"m 492 396 l 492 663 q 542 724 492 724 q 590 663 590 724 l 590 396 l 492 396 m 836 782 q 813 878 836 840 q 725 917 789 917 l 357 917 q 269 878 294 917 q 244 782 244 840 l 244 0 l 492 0 l 492 201 l 590 201 l 590 0 l 836 0 l 836 782 m 160 -44 l 6 678 q 0 728 0 701 q 12 781 0 758 q 44 819 24 804 q 92 840 65 833 q 150 847 119 847 l 207 847 l 208 851 q 264 930 225 901 q 356 958 303 958 l 725 958 q 843 908 807 958 q 879 782 879 858 l 879 -44 l 160 -44 m 539 1125 l 450 958 l 507 958 l 713 1125 l 539 1125 m 822 1160 l 521 928 l 396 928 l 522 1160 l 822 1160 z "},"Â":{"ha":879,"x_min":0,"x_max":879,"o":"m 492 396 l 492 663 q 542 724 492 724 q 590 663 590 724 l 590 396 l 492 396 m 836 782 q 813 878 836 840 q 725 917 789 917 l 357 917 q 269 878 294 917 q 244 782 244 840 l 244 0 l 492 0 l 492 201 l 590 201 l 590 0 l 836 0 l 836 782 m 160 -44 l 6 678 q 0 728 0 701 q 12 781 0 758 q 44 819 24 804 q 92 840 65 833 q 150 847 119 847 l 207 847 l 208 851 q 264 930 225 901 q 356 958 303 958 l 725 958 q 843 908 807 958 q 879 782 879 858 l 879 -44 l 160 -44 m 536 1100 l 381 958 l 469 958 l 536 982 l 603 958 l 690 958 l 536 1100 m 596 917 l 536 939 l 476 917 l 274 917 l 536 1158 l 799 917 l 596 917 z "},"Ã":{"ha":879,"x_min":0,"x_max":879,"o":"m 492 396 l 492 663 q 542 724 492 724 q 590 663 590 724 l 590 396 l 492 396 m 836 782 q 813 878 836 840 q 725 917 789 917 l 357 917 q 269 878 294 917 q 244 782 244 840 l 244 0 l 492 0 l 492 201 l 590 201 l 590 0 l 836 0 l 836 782 m 160 -44 l 6 678 q 0 728 0 701 q 12 781 0 758 q 44 819 24 804 q 92 840 65 833 q 150 847 119 847 l 207 847 l 208 851 q 264 930 225 901 q 356 958 303 958 l 725 958 q 843 908 807 958 q 879 782 879 858 l 879 -44 l 160 -44 m 643 1063 q 631 1042 636 1050 q 610 1035 625 1035 q 586 1039 600 1035 q 556 1048 572 1043 q 524 1057 540 1053 q 494 1061 508 1061 q 441 1052 463 1061 q 405 1028 419 1043 q 381 996 390 1014 q 365 958 371 978 l 429 958 q 461 986 438 986 q 521 971 493 983 q 583 958 549 958 q 633 968 613 958 q 666 992 653 978 q 688 1026 679 1007 q 703 1063 697 1044 l 643 1063 m 763 1106 q 739 1040 751 1074 q 707 979 726 1007 q 659 934 688 951 q 589 917 631 917 q 529 926 557 917 q 468 942 501 936 l 458 917 l 307 917 q 331 988 318 954 q 364 1048 343 1022 q 416 1089 385 1074 q 496 1104 447 1104 q 550 1094 524 1104 q 604 1076 576 1083 l 617 1106 l 763 1106 z "},"Ä":{"ha":879,"x_min":0,"x_max":879,"o":"m 492 396 l 492 663 q 542 724 492 724 q 590 663 590 724 l 590 396 l 492 396 m 836 782 q 813 878 836 840 q 725 917 789 917 l 357 917 q 269 878 294 917 q 244 782 244 840 l 244 0 l 492 0 l 492 201 l 590 201 l 590 0 l 836 0 l 836 782 m 160 -44 l 6 678 q 0 728 0 701 q 12 781 0 758 q 44 819 24 804 q 92 840 65 833 q 150 847 119 847 l 207 847 l 208 851 q 264 930 225 901 q 356 958 303 958 l 725 958 q 843 908 807 958 q 879 782 879 858 l 879 -44 l 160 -44 m 503 1013 q 487 1050 503 1035 q 449 1065 471 1065 q 411 1050 426 1065 q 396 1013 396 1035 q 411 975 396 990 q 449 960 426 960 q 487 975 471 960 q 503 1013 503 990 m 681 1013 q 664 1050 681 1035 q 625 1065 647 1065 q 588 1050 603 1065 q 572 1013 572 1035 q 588 975 572 990 q 625 960 603 960 q 664 975 647 960 q 681 1013 681 990 m 722 1013 q 694 944 722 972 q 625 917 665 917 q 572 933 596 917 q 538 976 549 949 q 503 933 526 949 q 449 917 479 917 q 381 944 410 917 q 353 1013 353 972 q 381 1080 353 1051 q 449 1108 410 1108 q 503 1091 479 1108 q 538 1047 526 1074 q 572 1091 549 1074 q 625 1108 596 1108 q 694 1080 665 1108 q 722 1013 722 1051 z "},"Å":{"ha":879,"x_min":0,"x_max":879,"o":"m 492 396 l 492 663 q 542 724 492 724 q 590 663 590 724 l 590 396 l 492 396 m 836 782 q 813 878 836 840 q 725 917 789 917 l 357 917 q 269 878 294 917 q 244 782 244 840 l 244 0 l 492 0 l 492 201 l 590 201 l 590 0 l 836 0 l 836 782 m 160 -44 l 6 678 q 0 728 0 701 q 12 781 0 758 q 44 819 24 804 q 92 840 65 833 q 150 847 119 847 l 207 847 l 208 851 q 264 930 225 901 q 356 958 303 958 l 725 958 q 843 908 807 958 q 879 782 879 858 l 879 -44 l 160 -44 m 585 1067 q 572 1040 585 1051 q 543 1029 560 1029 q 515 1040 526 1029 q 503 1067 503 1051 q 515 1096 503 1083 q 543 1108 526 1108 q 572 1096 560 1108 q 585 1067 585 1083 m 643 1067 q 614 1140 643 1110 q 543 1169 585 1169 q 472 1140 500 1169 q 444 1067 444 1110 q 472 997 444 1025 q 543 968 500 968 q 614 997 585 968 q 643 1067 643 1025 m 692 1067 q 680 1008 692 1036 q 648 960 668 981 q 600 927 628 939 q 540 915 572 915 q 483 927 510 915 q 435 960 456 939 q 402 1008 414 981 q 390 1067 390 1036 q 402 1126 390 1099 q 435 1174 414 1154 q 483 1206 456 1194 q 540 1218 510 1218 q 600 1206 572 1218 q 648 1174 628 1194 q 680 1126 668 1154 q 692 1067 692 1099 z "},"È":{"ha":771,"x_min":0,"x_max":771,"o":"m 729 558 l 483 558 l 483 717 l 728 717 l 728 917 l 397 917 q 277 883 319 917 q 235 763 235 850 l 235 188 q 277 46 235 92 q 400 0 319 0 l 728 0 l 728 204 l 483 204 l 483 350 l 729 350 l 729 558 m 578 672 l 593 600 l 771 600 l 771 307 l 656 307 l 665 261 l 528 261 l 528 247 l 771 247 l 771 -47 l 339 -47 q 185 7 243 -47 q 107 153 126 61 l 6 644 q 1 669 3 657 q 0 696 0 682 q 52 811 0 775 q 186 847 104 847 l 211 847 q 284 935 235 911 q 397 958 333 958 l 771 958 l 771 672 l 578 672 m 508 1125 l 336 1125 l 542 958 l 600 958 l 508 1125 m 528 928 l 226 1160 l 526 1160 l 653 928 l 528 928 z "},"É":{"ha":771,"x_min":0,"x_max":786,"o":"m 729 558 l 483 558 l 483 717 l 728 717 l 728 917 l 397 917 q 277 883 319 917 q 235 763 235 850 l 235 188 q 277 46 235 92 q 400 0 319 0 l 728 0 l 728 204 l 483 204 l 483 350 l 729 350 l 729 558 m 578 672 l 593 600 l 771 600 l 771 307 l 656 307 l 665 261 l 528 261 l 528 247 l 771 247 l 771 -47 l 339 -47 q 185 7 243 -47 q 107 153 126 61 l 6 644 q 1 669 3 657 q 0 696 0 682 q 52 811 0 775 q 186 847 104 847 l 211 847 q 284 935 235 911 q 397 958 333 958 l 771 958 l 771 672 l 578 672 m 503 1125 l 414 958 l 471 958 l 676 1125 l 503 1125 m 786 1160 l 485 928 l 360 928 l 486 1160 l 786 1160 z "},"Ê":{"ha":771,"x_min":0,"x_max":771,"o":"m 729 558 l 483 558 l 483 717 l 728 717 l 728 917 l 397 917 q 277 883 319 917 q 235 763 235 850 l 235 188 q 277 46 235 92 q 400 0 319 0 l 728 0 l 728 204 l 483 204 l 483 350 l 729 350 l 729 558 m 578 672 l 593 600 l 771 600 l 771 307 l 656 307 l 665 261 l 528 261 l 528 247 l 771 247 l 771 -47 l 339 -47 q 185 7 243 -47 q 107 153 126 61 l 6 644 q 1 669 3 657 q 0 696 0 682 q 52 811 0 775 q 186 847 104 847 l 211 847 q 284 935 235 911 q 397 958 333 958 l 771 958 l 771 672 l 578 672 m 497 1100 l 342 958 l 431 958 l 497 982 l 564 958 l 651 958 l 497 1100 m 557 917 l 497 939 l 438 917 l 235 917 l 497 1158 l 760 917 l 557 917 z "},"Ë":{"ha":771,"x_min":0,"x_max":771,"o":"m 729 558 l 483 558 l 483 717 l 728 717 l 728 917 l 397 917 q 277 883 319 917 q 235 763 235 850 l 235 188 q 277 46 235 92 q 400 0 319 0 l 728 0 l 728 204 l 483 204 l 483 350 l 729 350 l 729 558 m 578 672 l 593 600 l 771 600 l 771 307 l 656 307 l 665 261 l 528 261 l 528 247 l 771 247 l 771 -47 l 339 -47 q 185 7 243 -47 q 107 153 126 61 l 6 644 q 1 669 3 657 q 0 696 0 682 q 52 811 0 775 q 186 847 104 847 l 211 847 q 284 935 235 911 q 397 958 333 958 l 771 958 l 771 672 l 578 672 m 483 1013 q 467 1050 483 1035 q 429 1065 451 1065 q 392 1050 407 1065 q 376 1013 376 1035 q 392 975 376 990 q 429 960 407 960 q 467 975 451 960 q 483 1013 483 990 m 661 1013 q 644 1050 661 1035 q 606 1065 628 1065 q 568 1050 583 1065 q 553 1013 553 1035 q 568 975 553 990 q 606 960 583 960 q 644 975 628 960 q 661 1013 661 990 m 703 1013 q 674 944 703 972 q 606 917 646 917 q 553 933 576 917 q 518 976 529 949 q 483 933 507 949 q 429 917 460 917 q 362 944 390 917 q 333 1013 333 972 q 362 1080 333 1051 q 429 1108 390 1108 q 483 1091 460 1108 q 518 1047 507 1074 q 553 1091 529 1074 q 606 1108 576 1108 q 674 1080 646 1108 q 703 1013 703 1051 z "},"Ì":{"ha":567,"x_min":0,"x_max":567,"o":"m 524 917 l 275 917 l 275 0 l 524 0 l 524 917 m 190 -47 l 0 847 l 232 847 l 232 960 l 567 960 l 567 -47 l 190 -47 m 351 1125 l 179 1125 l 385 958 l 443 958 l 351 1125 m 371 928 l 69 1160 l 369 1160 l 496 928 l 371 928 z "},"Í":{"ha":567,"x_min":0,"x_max":711,"o":"m 524 917 l 275 917 l 275 0 l 524 0 l 524 917 m 190 -47 l 0 847 l 232 847 l 232 960 l 567 960 l 567 -47 l 190 -47 m 428 1125 l 339 958 l 396 958 l 601 1125 l 428 1125 m 711 1160 l 410 928 l 285 928 l 411 1160 l 711 1160 z "},"Î":{"ha":567,"x_min":0,"x_max":661,"o":"m 524 917 l 275 917 l 275 0 l 524 0 l 524 917 m 190 -47 l 0 847 l 232 847 l 232 960 l 567 960 l 567 -47 l 190 -47 m 399 1100 l 243 958 l 332 958 l 399 982 l 465 958 l 553 958 l 399 1100 m 458 917 l 399 939 l 339 917 l 136 917 l 399 1158 l 661 917 l 458 917 z "},"Ï":{"ha":567,"x_min":0,"x_max":586,"o":"m 524 917 l 275 917 l 275 0 l 524 0 l 524 917 m 190 -47 l 0 847 l 232 847 l 232 960 l 567 960 l 567 -47 l 190 -47 m 367 1013 q 351 1050 367 1035 q 313 1065 335 1065 q 275 1050 290 1065 q 260 1013 260 1035 q 275 975 260 990 q 313 960 290 960 q 351 975 335 960 q 367 1013 367 990 m 544 1013 q 528 1050 544 1035 q 489 1065 511 1065 q 451 1050 467 1065 q 436 1013 436 1035 q 451 975 436 990 q 489 960 467 960 q 528 975 511 960 q 544 1013 544 990 m 586 1013 q 558 944 586 972 q 489 917 529 917 q 436 933 460 917 q 401 976 413 949 q 367 933 390 949 q 313 917 343 917 q 245 944 274 917 q 217 1013 217 972 q 245 1080 217 1051 q 313 1108 274 1108 q 367 1091 343 1108 q 401 1047 390 1074 q 436 1091 413 1074 q 489 1108 460 1108 q 558 1080 529 1108 q 586 1013 586 1051 z "},"Ñ":{"ha":925,"x_min":0,"x_max":925,"o":"m 882 760 q 855 881 882 844 q 767 917 828 917 l 713 917 q 653 914 682 917 q 600 899 624 911 q 558 864 576 888 q 532 800 540 840 q 524 874 528 851 q 514 917 519 897 l 257 917 q 278 838 268 876 q 288 751 288 800 l 288 0 l 535 0 l 535 632 q 550 685 535 668 q 585 703 565 703 q 619 686 604 703 q 633 635 633 669 l 633 0 l 882 0 l 882 760 m 240 -46 l 92 653 q 54 753 81 707 q 0 847 28 799 l 233 847 q 217 903 226 875 q 197 958 207 931 l 544 958 q 551 941 547 950 q 557 921 554 932 q 619 953 588 946 q 686 961 651 961 l 767 961 q 847 944 815 961 q 895 899 878 926 q 919 835 913 871 q 925 761 925 799 l 925 -46 l 240 -46 m 706 1064 q 693 1044 699 1051 q 672 1036 688 1036 q 649 1040 663 1036 q 619 1049 635 1044 q 587 1058 603 1054 q 557 1063 571 1063 q 503 1053 525 1063 q 467 1030 482 1044 q 443 997 453 1015 q 428 960 433 979 l 492 960 q 524 988 500 988 q 583 972 556 985 q 646 960 611 960 q 695 969 675 960 q 728 994 715 979 q 751 1027 742 1008 q 765 1064 760 1046 l 706 1064 m 825 1107 q 801 1042 814 1075 q 769 981 789 1008 q 722 935 750 953 q 651 918 693 918 q 592 928 619 918 q 531 943 564 938 l 521 918 l 369 918 q 393 990 381 956 q 426 1049 406 1024 q 478 1090 447 1075 q 558 1106 510 1106 q 613 1095 586 1106 q 667 1078 639 1085 l 679 1107 l 825 1107 z "},"Ò":{"ha":806,"x_min":0,"x_max":806,"o":"m 532 240 q 519 198 532 213 q 483 183 506 183 q 464 186 478 183 q 440 203 449 189 q 431 240 431 217 l 431 706 q 482 747 440 747 q 532 706 522 747 l 532 240 m 763 778 q 731 881 763 844 q 654 918 699 918 l 307 918 q 233 881 264 918 q 201 778 201 844 l 201 151 q 210 94 201 121 q 235 46 218 67 q 279 13 253 25 q 342 0 306 0 q 510 0 450 0 q 598 0 569 0 q 633 1 626 0 q 642 1 639 1 q 697 16 674 7 q 734 42 719 25 q 756 85 749 58 q 763 151 763 111 l 763 778 m 806 151 q 763 8 806 57 q 621 -42 719 -42 l 326 -42 q 194 0 250 -42 q 124 117 139 42 q 64 397 94 258 q 4 676 33 536 q 0 718 0 697 q 40 814 0 779 q 143 851 81 849 l 167 851 q 219 928 183 896 q 307 960 256 960 l 654 960 q 720 944 692 960 q 767 902 749 928 q 796 844 786 876 q 806 779 806 811 l 806 151 m 471 1125 l 299 1125 l 504 958 l 563 958 l 471 1125 m 490 928 l 189 1160 l 489 1160 l 615 928 l 490 928 z "},"Ó":{"ha":806,"x_min":0,"x_max":806,"o":"m 532 240 q 519 198 532 213 q 483 183 506 183 q 464 186 478 183 q 440 203 449 189 q 431 240 431 217 l 431 706 q 482 747 440 747 q 532 706 522 747 l 532 240 m 763 778 q 731 881 763 844 q 654 918 699 918 l 307 918 q 233 881 264 918 q 201 778 201 844 l 201 151 q 210 94 201 121 q 235 46 218 67 q 279 13 253 25 q 342 0 306 0 q 510 0 450 0 q 598 0 569 0 q 633 1 626 0 q 642 1 639 1 q 697 16 674 7 q 734 42 719 25 q 756 85 749 58 q 763 151 763 111 l 763 778 m 806 151 q 763 8 806 57 q 621 -42 719 -42 l 326 -42 q 194 0 250 -42 q 124 117 139 42 q 64 397 94 258 q 4 676 33 536 q 0 718 0 697 q 40 814 0 779 q 143 851 81 849 l 167 851 q 219 928 183 896 q 307 960 256 960 l 654 960 q 720 944 692 960 q 767 902 749 928 q 796 844 786 876 q 806 779 806 811 l 806 151 m 501 1125 l 413 958 l 469 958 l 675 1125 l 501 1125 m 785 1160 l 483 928 l 358 928 l 485 1160 l 785 1160 z "},"Ô":{"ha":806,"x_min":0,"x_max":806,"o":"m 532 240 q 519 198 532 213 q 483 183 506 183 q 464 186 478 183 q 440 203 449 189 q 431 240 431 217 l 431 706 q 482 747 440 747 q 532 706 522 747 l 532 240 m 763 778 q 731 881 763 844 q 654 918 699 918 l 307 918 q 233 881 264 918 q 201 778 201 844 l 201 151 q 210 94 201 121 q 235 46 218 67 q 279 13 253 25 q 342 0 306 0 q 510 0 450 0 q 598 0 569 0 q 633 1 626 0 q 642 1 639 1 q 697 16 674 7 q 734 42 719 25 q 756 85 749 58 q 763 151 763 111 l 763 778 m 806 151 q 763 8 806 57 q 621 -42 719 -42 l 326 -42 q 194 0 250 -42 q 124 117 139 42 q 64 397 94 258 q 4 676 33 536 q 0 718 0 697 q 40 814 0 779 q 143 851 81 849 l 167 851 q 219 928 183 896 q 307 960 256 960 l 654 960 q 720 944 692 960 q 767 902 749 928 q 796 844 786 876 q 806 779 806 811 l 806 151 m 482 1100 l 326 958 l 415 958 l 482 982 l 549 958 l 636 958 l 482 1100 m 542 917 l 482 939 l 422 917 l 219 917 l 482 1158 l 744 917 l 542 917 z "},"Õ":{"ha":806,"x_min":0,"x_max":806,"o":"m 532 240 q 519 198 532 213 q 483 183 506 183 q 464 186 478 183 q 440 203 449 189 q 431 240 431 217 l 431 706 q 482 747 440 747 q 532 706 522 747 l 532 240 m 763 778 q 731 881 763 844 q 654 918 699 918 l 307 918 q 233 881 264 918 q 201 778 201 844 l 201 151 q 210 94 201 121 q 235 46 218 67 q 279 13 253 25 q 342 0 306 0 q 510 0 450 0 q 598 0 569 0 q 633 1 626 0 q 642 1 639 1 q 697 16 674 7 q 734 42 719 25 q 756 85 749 58 q 763 151 763 111 l 763 778 m 806 151 q 763 8 806 57 q 621 -42 719 -42 l 326 -42 q 194 0 250 -42 q 124 117 139 42 q 64 397 94 258 q 4 676 33 536 q 0 718 0 697 q 40 814 0 779 q 143 851 81 849 l 167 851 q 219 928 183 896 q 307 960 256 960 l 654 960 q 720 944 692 960 q 767 902 749 928 q 796 844 786 876 q 806 779 806 811 l 806 151 m 592 1063 q 579 1042 585 1050 q 558 1035 574 1035 q 535 1039 549 1035 q 505 1048 521 1043 q 473 1057 489 1053 q 443 1061 457 1061 q 390 1052 411 1061 q 353 1028 368 1043 q 329 996 339 1014 q 314 958 319 978 l 378 958 q 410 986 386 986 q 469 971 442 983 q 532 958 497 958 q 581 968 561 958 q 615 992 601 978 q 637 1026 628 1007 q 651 1063 646 1044 l 592 1063 m 711 1106 q 688 1040 700 1074 q 656 979 675 1007 q 608 934 636 951 q 538 917 579 917 q 478 926 506 917 q 417 942 450 936 l 407 917 l 256 917 q 279 988 267 954 q 313 1048 292 1022 q 365 1089 333 1074 q 444 1104 396 1104 q 499 1094 472 1104 q 553 1076 525 1083 l 565 1106 l 711 1106 z "},"Ö":{"ha":806,"x_min":0,"x_max":806,"o":"m 532 240 q 519 198 532 213 q 483 183 506 183 q 464 186 478 183 q 440 203 449 189 q 431 240 431 217 l 431 706 q 482 747 440 747 q 532 706 522 747 l 532 240 m 763 778 q 731 881 763 844 q 654 918 699 918 l 307 918 q 233 881 264 918 q 201 778 201 844 l 201 151 q 210 94 201 121 q 235 46 218 67 q 279 13 253 25 q 342 0 306 0 q 510 0 450 0 q 598 0 569 0 q 633 1 626 0 q 642 1 639 1 q 697 16 674 7 q 734 42 719 25 q 756 85 749 58 q 763 151 763 111 l 763 778 m 806 151 q 763 8 806 57 q 621 -42 719 -42 l 326 -42 q 194 0 250 -42 q 124 117 139 42 q 64 397 94 258 q 4 676 33 536 q 0 718 0 697 q 40 814 0 779 q 143 851 81 849 l 167 851 q 219 928 183 896 q 307 960 256 960 l 654 960 q 720 944 692 960 q 767 902 749 928 q 796 844 786 876 q 806 779 806 811 l 806 151 m 444 1013 q 428 1050 444 1035 q 390 1065 413 1065 q 353 1050 368 1065 q 338 1013 338 1035 q 353 975 338 990 q 390 960 368 960 q 428 975 413 960 q 444 1013 444 990 m 622 1013 q 606 1050 622 1035 q 567 1065 589 1065 q 529 1050 544 1065 q 514 1013 514 1035 q 529 975 514 990 q 567 960 544 960 q 606 975 589 960 q 622 1013 622 990 m 664 1013 q 635 944 664 972 q 567 917 607 917 q 514 933 538 917 q 479 976 490 949 q 444 933 468 949 q 390 917 421 917 q 323 944 351 917 q 294 1013 294 972 q 323 1080 294 1051 q 390 1108 351 1108 q 444 1091 421 1108 q 479 1047 468 1074 q 514 1091 490 1074 q 567 1108 538 1108 q 635 1080 607 1108 q 664 1013 664 1051 z "},"Š":{"ha":728,"x_min":0,"x_max":728,"o":"m 685 463 q 658 547 685 513 q 574 582 632 582 l 447 582 l 447 715 l 685 715 l 685 917 l 372 917 q 291 908 324 917 q 238 878 258 899 q 208 822 217 857 q 199 733 199 786 l 199 496 q 231 382 199 414 q 321 350 264 350 l 433 350 l 433 210 l 199 210 l 199 0 l 547 0 q 617 11 590 0 q 659 43 644 22 q 679 93 674 64 q 685 158 685 122 l 685 463 m 575 672 l 575 625 l 590 625 q 695 578 663 625 q 728 463 728 531 l 728 118 q 712 42 728 74 q 670 -8 696 11 q 610 -37 644 -28 q 538 -46 575 -46 l 153 -46 l 96 224 l 156 224 l 156 251 l 324 251 l 322 261 l 246 261 q 147 285 185 261 q 87 348 110 308 q 51 439 64 388 q 26 547 39 490 q 10 625 19 583 q 0 707 0 667 q 6 753 0 729 q 25 798 11 778 q 60 831 39 818 q 113 843 81 843 l 168 843 q 236 930 189 901 q 342 958 283 958 l 725 958 l 725 672 l 575 672 m 504 1117 l 438 1092 l 371 1117 l 282 1117 l 438 974 l 592 1117 l 504 1117 m 438 917 l 175 1158 l 378 1158 l 438 1136 l 497 1158 l 700 1158 l 438 917 z "},"Ù":{"ha":875,"x_min":0,"x_max":875,"o":"m 833 917 l 583 917 l 583 260 q 576 208 583 224 q 546 193 569 193 l 518 193 q 491 210 497 193 q 485 263 485 226 l 485 917 l 236 917 l 236 106 q 240 58 236 78 q 256 26 244 39 q 287 6 267 13 q 339 0 307 0 l 728 0 q 786 8 765 0 q 817 31 807 15 q 831 68 828 46 q 833 118 833 90 l 833 917 m 875 117 q 842 -8 875 31 q 718 -46 808 -46 l 326 -46 q 216 -18 254 -46 q 163 81 178 10 l 0 847 l 192 847 l 192 958 l 528 958 l 528 847 l 542 847 l 542 958 l 875 958 l 875 117 m 468 1125 l 296 1125 l 501 958 l 560 958 l 468 1125 m 488 928 l 186 1160 l 486 1160 l 613 928 l 488 928 z "},"Ú":{"ha":875,"x_min":0,"x_max":875,"o":"m 833 917 l 583 917 l 583 260 q 576 208 583 224 q 546 193 569 193 l 518 193 q 491 210 497 193 q 485 263 485 226 l 485 917 l 236 917 l 236 106 q 240 58 236 78 q 256 26 244 39 q 287 6 267 13 q 339 0 307 0 l 728 0 q 786 8 765 0 q 817 31 807 15 q 831 68 828 46 q 833 118 833 90 l 833 917 m 875 117 q 842 -8 875 31 q 718 -46 808 -46 l 326 -46 q 216 -18 254 -46 q 163 81 178 10 l 0 847 l 192 847 l 192 958 l 528 958 l 528 847 l 542 847 l 542 958 l 875 958 l 875 117 m 563 1125 l 474 958 l 531 958 l 736 1125 l 563 1125 m 846 1160 l 544 928 l 419 928 l 546 1160 l 846 1160 z "},"Û":{"ha":875,"x_min":0,"x_max":875,"o":"m 833 917 l 583 917 l 583 260 q 576 208 583 224 q 546 193 569 193 l 518 193 q 491 210 497 193 q 485 263 485 226 l 485 917 l 236 917 l 236 106 q 240 58 236 78 q 256 26 244 39 q 287 6 267 13 q 339 0 307 0 l 728 0 q 786 8 765 0 q 817 31 807 15 q 831 68 828 46 q 833 118 833 90 l 833 917 m 875 117 q 842 -8 875 31 q 718 -46 808 -46 l 326 -46 q 216 -18 254 -46 q 163 81 178 10 l 0 847 l 192 847 l 192 958 l 528 958 l 528 847 l 542 847 l 542 958 l 875 958 l 875 117 m 533 1100 l 378 958 l 467 958 l 533 982 l 600 958 l 688 958 l 533 1100 m 593 917 l 533 939 l 474 917 l 271 917 l 533 1158 l 796 917 l 593 917 z "},"Ü":{"ha":875,"x_min":0,"x_max":875,"o":"m 833 917 l 583 917 l 583 260 q 576 208 583 224 q 546 193 569 193 l 518 193 q 491 210 497 193 q 485 263 485 226 l 485 917 l 236 917 l 236 106 q 240 58 236 78 q 256 26 244 39 q 287 6 267 13 q 339 0 307 0 l 728 0 q 786 8 765 0 q 817 31 807 15 q 831 68 828 46 q 833 118 833 90 l 833 917 m 875 117 q 842 -8 875 31 q 718 -46 808 -46 l 326 -46 q 216 -18 254 -46 q 163 81 178 10 l 0 847 l 192 847 l 192 958 l 528 958 l 528 847 l 542 847 l 542 958 l 875 958 l 875 117 m 501 1013 q 485 1050 501 1035 q 447 1065 469 1065 q 410 1050 425 1065 q 394 1013 394 1035 q 410 975 394 990 q 447 960 425 960 q 485 975 469 960 q 501 1013 501 990 m 679 1013 q 663 1050 679 1035 q 624 1065 646 1065 q 586 1050 601 1065 q 571 1013 571 1035 q 586 975 571 990 q 624 960 601 960 q 663 975 646 960 q 679 1013 679 990 m 721 1013 q 692 944 721 972 q 624 917 664 917 q 571 933 594 917 q 536 976 547 949 q 501 933 525 949 q 447 917 478 917 q 380 944 408 917 q 351 1013 351 972 q 380 1080 351 1051 q 447 1108 408 1108 q 501 1091 478 1108 q 536 1047 525 1074 q 571 1091 547 1074 q 624 1108 594 1108 q 692 1080 664 1108 q 721 1013 721 1051 z "},"Ý":{"ha":869,"x_min":0,"x_max":869,"o":"m 831 917 l 582 917 l 582 550 q 570 463 582 494 q 532 410 558 431 q 494 463 507 431 q 482 550 482 494 l 482 917 l 235 917 q 236 724 236 810 q 236 652 236 688 q 236 588 236 617 q 237 541 236 560 q 238 519 238 522 q 258 442 243 483 q 294 363 272 401 q 347 294 317 325 q 411 246 376 263 l 411 0 l 654 0 l 654 246 q 715 292 686 263 q 767 360 744 322 q 806 438 790 397 q 831 519 822 479 l 831 917 m 869 540 q 820 364 869 444 q 699 224 771 283 l 699 -46 l 364 -46 l 315 186 q 169 306 235 232 q 81 474 103 379 q 40 660 60 567 q 0 847 21 753 l 193 847 l 193 958 l 524 958 l 524 847 l 539 847 l 539 958 l 869 958 l 869 540 m 568 1125 l 479 958 l 536 958 l 742 1125 l 568 1125 m 851 1160 l 550 928 l 425 928 l 551 1160 l 851 1160 z "},"Ÿ":{"ha":869,"x_min":0,"x_max":869,"o":"m 831 917 l 582 917 l 582 550 q 570 463 582 494 q 532 410 558 431 q 494 463 507 431 q 482 550 482 494 l 482 917 l 235 917 q 236 724 236 810 q 236 652 236 688 q 236 588 236 617 q 237 541 236 560 q 238 519 238 522 q 258 442 243 483 q 294 363 272 401 q 347 294 317 325 q 411 246 376 263 l 411 0 l 654 0 l 654 246 q 715 292 686 263 q 767 360 744 322 q 806 438 790 397 q 831 519 822 479 l 831 917 m 869 540 q 820 364 869 444 q 699 224 771 283 l 699 -46 l 364 -46 l 315 186 q 169 306 235 232 q 81 474 103 379 q 40 660 60 567 q 0 847 21 753 l 193 847 l 193 958 l 524 958 l 524 847 l 539 847 l 539 958 l 869 958 l 869 540 m 497 1013 q 481 1050 497 1035 q 443 1065 465 1065 q 406 1050 421 1065 q 390 1013 390 1035 q 406 975 390 990 q 443 960 421 960 q 481 975 465 960 q 497 1013 497 990 m 675 1013 q 658 1050 675 1035 q 619 1065 642 1065 q 582 1050 597 1065 q 567 1013 567 1035 q 582 975 567 990 q 619 960 597 960 q 658 975 642 960 q 675 1013 675 990 m 717 1013 q 688 944 717 972 q 619 917 660 917 q 567 933 590 917 q 532 976 543 949 q 497 933 521 949 q 443 917 474 917 q 376 944 404 917 q 347 1013 347 972 q 376 1080 347 1051 q 443 1108 404 1108 q 497 1091 474 1108 q 532 1047 521 1074 q 567 1091 543 1074 q 619 1108 590 1108 q 688 1080 660 1108 q 717 1013 717 1051 z "},"Ž":{"ha":761,"x_min":0,"x_max":761,"o":"m 224 917 l 188 715 l 390 715 l 188 0 l 679 0 l 708 222 l 490 222 l 703 917 l 224 917 m 547 265 l 758 265 l 715 -46 l 128 -46 l 200 585 l 0 585 l 0 847 l 168 847 l 188 958 l 761 958 l 547 265 m 503 1117 l 436 1092 l 369 1117 l 281 1117 l 436 974 l 590 1117 l 503 1117 m 436 917 l 174 1158 l 376 1158 l 436 1136 l 496 1158 l 699 1158 l 436 917 z "},"à":{"ha":879,"x_min":0,"x_max":879,"o":"m 492 396 l 492 663 q 542 724 492 724 q 590 663 590 724 l 590 396 l 492 396 m 836 782 q 813 878 836 840 q 725 917 789 917 l 357 917 q 269 878 294 917 q 244 782 244 840 l 244 0 l 492 0 l 492 201 l 590 201 l 590 0 l 836 0 l 836 782 m 160 -44 l 6 678 q 0 728 0 701 q 12 781 0 758 q 44 819 24 804 q 92 840 65 833 q 150 847 119 847 l 207 847 l 208 851 q 264 930 225 901 q 356 958 303 958 l 725 958 q 843 908 807 958 q 879 782 879 858 l 879 -44 l 160 -44 m 508 1125 l 336 1125 l 542 958 l 600 958 l 508 1125 m 528 928 l 226 1160 l 526 1160 l 653 928 l 528 928 z "},"á":{"ha":879,"x_min":0,"x_max":879,"o":"m 492 396 l 492 663 q 542 724 492 724 q 590 663 590 724 l 590 396 l 492 396 m 836 782 q 813 878 836 840 q 725 917 789 917 l 357 917 q 269 878 294 917 q 244 782 244 840 l 244 0 l 492 0 l 492 201 l 590 201 l 590 0 l 836 0 l 836 782 m 160 -44 l 6 678 q 0 728 0 701 q 12 781 0 758 q 44 819 24 804 q 92 840 65 833 q 150 847 119 847 l 207 847 l 208 851 q 264 930 225 901 q 356 958 303 958 l 725 958 q 843 908 807 958 q 879 782 879 858 l 879 -44 l 160 -44 m 574 1125 l 485 958 l 542 958 l 747 1125 l 574 1125 m 857 1160 l 556 928 l 431 928 l 557 1160 l 857 1160 z "},"â":{"ha":879,"x_min":0,"x_max":879,"o":"m 492 396 l 492 663 q 542 724 492 724 q 590 663 590 724 l 590 396 l 492 396 m 836 782 q 813 878 836 840 q 725 917 789 917 l 357 917 q 269 878 294 917 q 244 782 244 840 l 244 0 l 492 0 l 492 201 l 590 201 l 590 0 l 836 0 l 836 782 m 160 -44 l 6 678 q 0 728 0 701 q 12 781 0 758 q 44 819 24 804 q 92 840 65 833 q 150 847 119 847 l 207 847 l 208 851 q 264 930 225 901 q 356 958 303 958 l 725 958 q 843 908 807 958 q 879 782 879 858 l 879 -44 l 160 -44 m 538 1100 l 382 958 l 471 958 l 538 982 l 604 958 l 692 958 l 538 1100 m 597 917 l 538 939 l 478 917 l 275 917 l 538 1158 l 800 917 l 597 917 z "},"ã":{"ha":879,"x_min":0,"x_max":879,"o":"m 492 396 l 492 663 q 542 724 492 724 q 590 663 590 724 l 590 396 l 492 396 m 836 782 q 813 878 836 840 q 725 917 789 917 l 357 917 q 269 878 294 917 q 244 782 244 840 l 244 0 l 492 0 l 492 201 l 590 201 l 590 0 l 836 0 l 836 782 m 160 -44 l 6 678 q 0 728 0 701 q 12 781 0 758 q 44 819 24 804 q 92 840 65 833 q 150 847 119 847 l 207 847 l 208 851 q 264 930 225 901 q 356 958 303 958 l 725 958 q 843 908 807 958 q 879 782 879 858 l 879 -44 l 160 -44 m 650 1063 q 638 1042 643 1050 q 617 1035 632 1035 q 593 1039 607 1035 q 563 1048 579 1043 q 531 1057 547 1053 q 501 1061 515 1061 q 448 1052 469 1061 q 412 1028 426 1043 q 388 996 397 1014 q 372 958 378 978 l 436 958 q 468 986 444 986 q 528 971 500 983 q 590 958 556 958 q 640 968 619 958 q 673 992 660 978 q 695 1026 686 1007 q 710 1063 704 1044 l 650 1063 m 769 1106 q 746 1040 758 1074 q 714 979 733 1007 q 666 934 694 951 q 596 917 638 917 q 536 926 564 917 q 475 942 508 936 l 465 917 l 314 917 q 338 988 325 954 q 371 1048 350 1022 q 423 1089 392 1074 q 503 1104 454 1104 q 557 1094 531 1104 q 611 1076 583 1083 l 624 1106 l 769 1106 z "},"ä":{"ha":879,"x_min":0,"x_max":879,"o":"m 492 396 l 492 663 q 542 724 492 724 q 590 663 590 724 l 590 396 l 492 396 m 836 782 q 813 878 836 840 q 725 917 789 917 l 357 917 q 269 878 294 917 q 244 782 244 840 l 244 0 l 492 0 l 492 201 l 590 201 l 590 0 l 836 0 l 836 782 m 160 -44 l 6 678 q 0 728 0 701 q 12 781 0 758 q 44 819 24 804 q 92 840 65 833 q 150 847 119 847 l 207 847 l 208 851 q 264 930 225 901 q 356 958 303 958 l 725 958 q 843 908 807 958 q 879 782 879 858 l 879 -44 l 160 -44 m 507 1013 q 491 1050 507 1035 q 453 1065 475 1065 q 415 1050 431 1065 q 400 1013 400 1035 q 415 975 400 990 q 453 960 431 960 q 491 975 475 960 q 507 1013 507 990 m 685 1013 q 668 1050 685 1035 q 629 1065 651 1065 q 592 1050 607 1065 q 576 1013 576 1035 q 592 975 576 990 q 629 960 607 960 q 668 975 651 960 q 685 1013 685 990 m 726 1013 q 698 944 726 972 q 629 917 669 917 q 576 933 600 917 q 542 976 553 949 q 507 933 531 949 q 453 917 483 917 q 385 944 414 917 q 357 1013 357 972 q 385 1080 357 1051 q 453 1108 414 1108 q 507 1091 483 1108 q 542 1047 531 1074 q 576 1091 553 1074 q 629 1108 600 1108 q 698 1080 669 1108 q 726 1013 726 1051 z "},"å":{"ha":879,"x_min":0,"x_max":879,"o":"m 492 396 l 492 663 q 542 724 492 724 q 590 663 590 724 l 590 396 l 492 396 m 836 782 q 813 878 836 840 q 725 917 789 917 l 357 917 q 269 878 294 917 q 244 782 244 840 l 244 0 l 492 0 l 492 201 l 590 201 l 590 0 l 836 0 l 836 782 m 160 -44 l 6 678 q 0 728 0 701 q 12 781 0 758 q 44 819 24 804 q 92 840 65 833 q 150 847 119 847 l 207 847 l 208 851 q 264 930 225 901 q 356 958 303 958 l 725 958 q 843 908 807 958 q 879 782 879 858 l 879 -44 l 160 -44 m 582 1067 q 569 1040 582 1051 q 540 1029 557 1029 q 512 1040 524 1029 q 500 1067 500 1051 q 512 1096 500 1083 q 540 1108 524 1108 q 569 1096 557 1108 q 582 1067 582 1083 m 640 1067 q 611 1140 640 1110 q 540 1169 582 1169 q 469 1140 497 1169 q 442 1067 442 1110 q 469 997 442 1025 q 540 968 497 968 q 611 997 582 968 q 640 1067 640 1025 m 689 1067 q 677 1008 689 1036 q 645 960 665 981 q 597 927 625 939 q 538 915 569 915 q 480 927 507 915 q 432 960 453 939 q 399 1008 411 981 q 388 1067 388 1036 q 399 1126 388 1099 q 432 1174 411 1154 q 480 1206 453 1194 q 538 1218 507 1218 q 597 1206 569 1218 q 645 1174 625 1194 q 677 1126 665 1154 q 689 1067 689 1099 z "},"è":{"ha":771,"x_min":0,"x_max":771,"o":"m 729 558 l 483 558 l 483 717 l 728 717 l 728 917 l 397 917 q 277 883 319 917 q 235 763 235 850 l 235 188 q 277 46 235 92 q 400 0 319 0 l 728 0 l 728 204 l 483 204 l 483 350 l 729 350 l 729 558 m 578 672 l 593 600 l 771 600 l 771 307 l 656 307 l 665 261 l 528 261 l 528 247 l 771 247 l 771 -47 l 339 -47 q 185 7 243 -47 q 107 153 126 61 l 6 644 q 1 669 3 657 q 0 696 0 682 q 52 811 0 775 q 186 847 104 847 l 211 847 q 284 935 235 911 q 397 958 333 958 l 771 958 l 771 672 l 578 672 m 499 1125 l 326 1125 l 532 958 l 590 958 l 499 1125 m 518 928 l 217 1160 l 517 1160 l 643 928 l 518 928 z "},"é":{"ha":771,"x_min":0,"x_max":775,"o":"m 729 558 l 483 558 l 483 717 l 728 717 l 728 917 l 397 917 q 277 883 319 917 q 235 763 235 850 l 235 188 q 277 46 235 92 q 400 0 319 0 l 728 0 l 728 204 l 483 204 l 483 350 l 729 350 l 729 558 m 578 672 l 593 600 l 771 600 l 771 307 l 656 307 l 665 261 l 528 261 l 528 247 l 771 247 l 771 -47 l 339 -47 q 185 7 243 -47 q 107 153 126 61 l 6 644 q 1 669 3 657 q 0 696 0 682 q 52 811 0 775 q 186 847 104 847 l 211 847 q 284 935 235 911 q 397 958 333 958 l 771 958 l 771 672 l 578 672 m 492 1125 l 403 958 l 460 958 l 665 1125 l 492 1125 m 775 1160 l 474 928 l 349 928 l 475 1160 l 775 1160 z "},"ê":{"ha":771,"x_min":0,"x_max":771,"o":"m 729 558 l 483 558 l 483 717 l 728 717 l 728 917 l 397 917 q 277 883 319 917 q 235 763 235 850 l 235 188 q 277 46 235 92 q 400 0 319 0 l 728 0 l 728 204 l 483 204 l 483 350 l 729 350 l 729 558 m 578 672 l 593 600 l 771 600 l 771 307 l 656 307 l 665 261 l 528 261 l 528 247 l 771 247 l 771 -47 l 339 -47 q 185 7 243 -47 q 107 153 126 61 l 6 644 q 1 669 3 657 q 0 696 0 682 q 52 811 0 775 q 186 847 104 847 l 211 847 q 284 935 235 911 q 397 958 333 958 l 771 958 l 771 672 l 578 672 m 506 1100 l 350 958 l 439 958 l 506 982 l 572 958 l 660 958 l 506 1100 m 565 917 l 506 939 l 446 917 l 243 917 l 506 1158 l 768 917 l 565 917 z "},"ë":{"ha":771,"x_min":0,"x_max":771,"o":"m 729 558 l 483 558 l 483 717 l 728 717 l 728 917 l 397 917 q 277 883 319 917 q 235 763 235 850 l 235 188 q 277 46 235 92 q 400 0 319 0 l 728 0 l 728 204 l 483 204 l 483 350 l 729 350 l 729 558 m 578 672 l 593 600 l 771 600 l 771 307 l 656 307 l 665 261 l 528 261 l 528 247 l 771 247 l 771 -47 l 339 -47 q 185 7 243 -47 q 107 153 126 61 l 6 644 q 1 669 3 657 q 0 696 0 682 q 52 811 0 775 q 186 847 104 847 l 211 847 q 284 935 235 911 q 397 958 333 958 l 771 958 l 771 672 l 578 672 m 456 1013 q 440 1050 456 1035 q 401 1065 424 1065 q 364 1050 379 1065 q 349 1013 349 1035 q 364 975 349 990 q 401 960 379 960 q 440 975 424 960 q 456 1013 456 990 m 633 1013 q 617 1050 633 1035 q 578 1065 600 1065 q 540 1050 556 1065 q 525 1013 525 1035 q 540 975 525 990 q 578 960 556 960 q 617 975 600 960 q 633 1013 633 990 m 675 1013 q 647 944 675 972 q 578 917 618 917 q 525 933 549 917 q 490 976 501 949 q 456 933 479 949 q 401 917 432 917 q 334 944 363 917 q 306 1013 306 972 q 334 1080 306 1051 q 401 1108 363 1108 q 456 1091 432 1108 q 490 1047 479 1074 q 525 1091 501 1074 q 578 1108 549 1108 q 647 1080 618 1108 q 675 1013 675 1051 z "},"ì":{"ha":567,"x_min":0,"x_max":567,"o":"m 524 917 l 275 917 l 275 0 l 524 0 l 524 917 m 190 -47 l 0 847 l 232 847 l 232 960 l 567 960 l 567 -47 l 190 -47 m 351 1125 l 179 1125 l 385 958 l 443 958 l 351 1125 m 371 928 l 69 1160 l 369 1160 l 496 928 l 371 928 z "},"í":{"ha":567,"x_min":0,"x_max":707,"o":"m 524 917 l 275 917 l 275 0 l 524 0 l 524 917 m 190 -47 l 0 847 l 232 847 l 232 960 l 567 960 l 567 -47 l 190 -47 m 424 1125 l 335 958 l 392 958 l 597 1125 l 424 1125 m 707 1160 l 406 928 l 281 928 l 407 1160 l 707 1160 z "},"î":{"ha":567,"x_min":0,"x_max":660,"o":"m 524 917 l 275 917 l 275 0 l 524 0 l 524 917 m 190 -47 l 0 847 l 232 847 l 232 960 l 567 960 l 567 -47 l 190 -47 m 397 1100 l 242 958 l 331 958 l 397 982 l 464 958 l 551 958 l 397 1100 m 457 917 l 397 939 l 338 917 l 135 917 l 397 1158 l 660 917 l 457 917 z "},"ï":{"ha":567,"x_min":0,"x_max":581,"o":"m 524 917 l 275 917 l 275 0 l 524 0 l 524 917 m 190 -47 l 0 847 l 232 847 l 232 960 l 567 960 l 567 -47 l 190 -47 m 361 1013 q 345 1050 361 1035 q 307 1065 329 1065 q 269 1050 285 1065 q 254 1013 254 1035 q 269 975 254 990 q 307 960 285 960 q 345 975 329 960 q 361 1013 361 990 m 539 1013 q 522 1050 539 1035 q 483 1065 506 1065 q 446 1050 461 1065 q 431 1013 431 1035 q 446 975 431 990 q 483 960 461 960 q 522 975 506 960 q 539 1013 539 990 m 581 1013 q 552 944 581 972 q 483 917 524 917 q 431 933 454 917 q 396 976 407 949 q 361 933 385 949 q 307 917 338 917 q 240 944 268 917 q 211 1013 211 972 q 240 1080 211 1051 q 307 1108 268 1108 q 361 1091 338 1108 q 396 1047 385 1074 q 431 1091 407 1074 q 483 1108 454 1108 q 552 1080 524 1108 q 581 1013 581 1051 z "},"ñ":{"ha":925,"x_min":0,"x_max":925,"o":"m 882 760 q 855 881 882 844 q 767 917 828 917 l 713 917 q 653 914 682 917 q 600 899 624 911 q 558 864 576 888 q 532 800 540 840 q 524 874 528 851 q 514 917 519 897 l 257 917 q 278 838 268 876 q 288 751 288 800 l 288 0 l 535 0 l 535 632 q 550 685 535 668 q 585 703 565 703 q 619 686 604 703 q 633 635 633 669 l 633 0 l 882 0 l 882 760 m 240 -46 l 92 653 q 54 753 81 707 q 0 847 28 799 l 233 847 q 217 903 226 875 q 197 958 207 931 l 544 958 q 551 941 547 950 q 557 921 554 932 q 619 953 588 946 q 686 961 651 961 l 767 961 q 847 944 815 961 q 895 899 878 926 q 919 835 913 871 q 925 761 925 799 l 925 -46 l 240 -46 m 694 1064 q 682 1044 688 1051 q 661 1036 676 1036 q 638 1040 651 1036 q 608 1049 624 1044 q 576 1058 592 1054 q 546 1063 560 1063 q 492 1053 514 1063 q 456 1030 471 1044 q 432 997 442 1015 q 417 960 422 979 l 481 960 q 513 988 489 988 q 572 972 544 985 q 635 960 600 960 q 684 969 664 960 q 717 994 704 979 q 740 1027 731 1008 q 754 1064 749 1046 l 694 1064 m 814 1107 q 790 1042 803 1075 q 758 981 778 1008 q 710 935 739 953 q 640 918 682 918 q 581 928 608 918 q 519 943 553 938 l 510 918 l 358 918 q 382 990 369 956 q 415 1049 394 1024 q 467 1090 436 1075 q 547 1106 499 1106 q 601 1095 575 1106 q 656 1078 628 1085 l 668 1107 l 814 1107 z "},"ò":{"ha":806,"x_min":0,"x_max":806,"o":"m 532 240 q 519 198 532 213 q 483 183 506 183 q 464 186 478 183 q 440 203 449 189 q 431 240 431 217 l 431 706 q 482 747 440 747 q 532 706 522 747 l 532 240 m 763 778 q 731 881 763 844 q 654 918 699 918 l 307 918 q 233 881 264 918 q 201 778 201 844 l 201 151 q 210 94 201 121 q 235 46 218 67 q 279 13 253 25 q 342 0 306 0 q 510 0 450 0 q 598 0 569 0 q 633 1 626 0 q 642 1 639 1 q 697 16 674 7 q 734 42 719 25 q 756 85 749 58 q 763 151 763 111 l 763 778 m 806 151 q 763 8 806 57 q 621 -42 719 -42 l 326 -42 q 194 0 250 -42 q 124 117 139 42 q 64 397 94 258 q 4 676 33 536 q 0 718 0 697 q 40 814 0 779 q 143 851 81 849 l 167 851 q 219 928 183 896 q 307 960 256 960 l 654 960 q 720 944 692 960 q 767 902 749 928 q 796 844 786 876 q 806 779 806 811 l 806 151 m 471 1125 l 299 1125 l 504 958 l 563 958 l 471 1125 m 490 928 l 189 1160 l 489 1160 l 615 928 l 490 928 z "},"ó":{"ha":806,"x_min":0,"x_max":806,"o":"m 532 240 q 519 198 532 213 q 483 183 506 183 q 464 186 478 183 q 440 203 449 189 q 431 240 431 217 l 431 706 q 482 747 440 747 q 532 706 522 747 l 532 240 m 763 778 q 731 881 763 844 q 654 918 699 918 l 307 918 q 233 881 264 918 q 201 778 201 844 l 201 151 q 210 94 201 121 q 235 46 218 67 q 279 13 253 25 q 342 0 306 0 q 510 0 450 0 q 598 0 569 0 q 633 1 626 0 q 642 1 639 1 q 697 16 674 7 q 734 42 719 25 q 756 85 749 58 q 763 151 763 111 l 763 778 m 806 151 q 763 8 806 57 q 621 -42 719 -42 l 326 -42 q 194 0 250 -42 q 124 117 139 42 q 64 397 94 258 q 4 676 33 536 q 0 718 0 697 q 40 814 0 779 q 143 851 81 849 l 167 851 q 219 928 183 896 q 307 960 256 960 l 654 960 q 720 944 692 960 q 767 902 749 928 q 796 844 786 876 q 806 779 806 811 l 806 151 m 496 1125 l 407 958 l 464 958 l 669 1125 l 496 1125 m 779 1160 l 478 928 l 353 928 l 479 1160 l 779 1160 z "},"ô":{"ha":806,"x_min":0,"x_max":806,"o":"m 532 240 q 519 198 532 213 q 483 183 506 183 q 464 186 478 183 q 440 203 449 189 q 431 240 431 217 l 431 706 q 482 747 440 747 q 532 706 522 747 l 532 240 m 763 778 q 731 881 763 844 q 654 918 699 918 l 307 918 q 233 881 264 918 q 201 778 201 844 l 201 151 q 210 94 201 121 q 235 46 218 67 q 279 13 253 25 q 342 0 306 0 q 510 0 450 0 q 598 0 569 0 q 633 1 626 0 q 642 1 639 1 q 697 16 674 7 q 734 42 719 25 q 756 85 749 58 q 763 151 763 111 l 763 778 m 806 151 q 763 8 806 57 q 621 -42 719 -42 l 326 -42 q 194 0 250 -42 q 124 117 139 42 q 64 397 94 258 q 4 676 33 536 q 0 718 0 697 q 40 814 0 779 q 143 851 81 849 l 167 851 q 219 928 183 896 q 307 960 256 960 l 654 960 q 720 944 692 960 q 767 902 749 928 q 796 844 786 876 q 806 779 806 811 l 806 151 m 483 1100 l 328 958 l 417 958 l 483 982 l 550 958 l 638 958 l 483 1100 m 543 917 l 483 939 l 424 917 l 221 917 l 483 1158 l 746 917 l 543 917 z "},"õ":{"ha":806,"x_min":0,"x_max":806,"o":"m 532 240 q 519 198 532 213 q 483 183 506 183 q 464 186 478 183 q 440 203 449 189 q 431 240 431 217 l 431 706 q 482 747 440 747 q 532 706 522 747 l 532 240 m 763 778 q 731 881 763 844 q 654 918 699 918 l 307 918 q 233 881 264 918 q 201 778 201 844 l 201 151 q 210 94 201 121 q 235 46 218 67 q 279 13 253 25 q 342 0 306 0 q 510 0 450 0 q 598 0 569 0 q 633 1 626 0 q 642 1 639 1 q 697 16 674 7 q 734 42 719 25 q 756 85 749 58 q 763 151 763 111 l 763 778 m 806 151 q 763 8 806 57 q 621 -42 719 -42 l 326 -42 q 194 0 250 -42 q 124 117 139 42 q 64 397 94 258 q 4 676 33 536 q 0 718 0 697 q 40 814 0 779 q 143 851 81 849 l 167 851 q 219 928 183 896 q 307 960 256 960 l 654 960 q 720 944 692 960 q 767 902 749 928 q 796 844 786 876 q 806 779 806 811 l 806 151 m 596 1063 q 583 1042 589 1050 q 563 1035 578 1035 q 539 1039 553 1035 q 509 1048 525 1043 q 477 1057 493 1053 q 447 1061 461 1061 q 394 1052 415 1061 q 358 1028 372 1043 q 333 996 343 1014 q 318 958 324 978 l 382 958 q 414 986 390 986 q 474 971 446 983 q 536 958 501 958 q 585 968 565 958 q 619 992 606 978 q 641 1026 632 1007 q 656 1063 650 1044 l 596 1063 m 715 1106 q 692 1040 704 1074 q 660 979 679 1007 q 612 934 640 951 q 542 917 583 917 q 482 926 510 917 q 421 942 454 936 l 411 917 l 260 917 q 283 988 271 954 q 317 1048 296 1022 q 369 1089 338 1074 q 449 1104 400 1104 q 503 1094 476 1104 q 557 1076 529 1083 l 569 1106 l 715 1106 z "},"ö":{"ha":806,"x_min":0,"x_max":806,"o":"m 532 240 q 519 198 532 213 q 483 183 506 183 q 464 186 478 183 q 440 203 449 189 q 431 240 431 217 l 431 706 q 482 747 440 747 q 532 706 522 747 l 532 240 m 763 778 q 731 881 763 844 q 654 918 699 918 l 307 918 q 233 881 264 918 q 201 778 201 844 l 201 151 q 210 94 201 121 q 235 46 218 67 q 279 13 253 25 q 342 0 306 0 q 510 0 450 0 q 598 0 569 0 q 633 1 626 0 q 642 1 639 1 q 697 16 674 7 q 734 42 719 25 q 756 85 749 58 q 763 151 763 111 l 763 778 m 806 151 q 763 8 806 57 q 621 -42 719 -42 l 326 -42 q 194 0 250 -42 q 124 117 139 42 q 64 397 94 258 q 4 676 33 536 q 0 718 0 697 q 40 814 0 779 q 143 851 81 849 l 167 851 q 219 928 183 896 q 307 960 256 960 l 654 960 q 720 944 692 960 q 767 902 749 928 q 796 844 786 876 q 806 779 806 811 l 806 151 m 446 1013 q 430 1050 446 1035 q 392 1065 414 1065 q 354 1050 369 1065 q 339 1013 339 1035 q 354 975 339 990 q 392 960 369 960 q 430 975 414 960 q 446 1013 446 990 m 624 1013 q 607 1050 624 1035 q 568 1065 590 1065 q 531 1050 546 1065 q 515 1013 515 1035 q 531 975 515 990 q 568 960 546 960 q 607 975 590 960 q 624 1013 624 990 m 665 1013 q 637 944 665 972 q 568 917 608 917 q 515 933 539 917 q 481 976 492 949 q 446 933 469 949 q 392 917 422 917 q 324 944 353 917 q 296 1013 296 972 q 324 1080 296 1051 q 392 1108 353 1108 q 446 1091 422 1108 q 481 1047 469 1074 q 515 1091 492 1074 q 568 1108 539 1108 q 637 1080 608 1108 q 665 1013 665 1051 z "},"š":{"ha":728,"x_min":0,"x_max":728,"o":"m 685 463 q 658 547 685 513 q 574 582 632 582 l 447 582 l 447 715 l 685 715 l 685 917 l 372 917 q 291 908 324 917 q 238 878 258 899 q 208 822 217 857 q 199 733 199 786 l 199 496 q 231 382 199 414 q 321 350 264 350 l 433 350 l 433 210 l 199 210 l 199 0 l 547 0 q 617 11 590 0 q 659 43 644 22 q 679 93 674 64 q 685 158 685 122 l 685 463 m 575 672 l 575 625 l 590 625 q 695 578 663 625 q 728 463 728 531 l 728 118 q 712 42 728 74 q 670 -8 696 11 q 610 -37 644 -28 q 538 -46 575 -46 l 153 -46 l 96 224 l 156 224 l 156 251 l 324 251 l 322 261 l 246 261 q 147 285 185 261 q 87 348 110 308 q 51 439 64 388 q 26 547 39 490 q 10 625 19 583 q 0 707 0 667 q 6 753 0 729 q 25 798 11 778 q 60 831 39 818 q 113 843 81 843 l 168 843 q 236 930 189 901 q 342 958 283 958 l 725 958 l 725 672 l 575 672 m 501 1117 l 435 1092 l 368 1117 l 279 1117 l 435 974 l 589 1117 l 501 1117 m 435 917 l 172 1158 l 375 1158 l 435 1136 l 494 1158 l 697 1158 l 435 917 z "},"ù":{"ha":875,"x_min":0,"x_max":875,"o":"m 833 917 l 583 917 l 583 260 q 576 208 583 224 q 546 193 569 193 l 518 193 q 491 210 497 193 q 485 263 485 226 l 485 917 l 236 917 l 236 106 q 240 58 236 78 q 256 26 244 39 q 287 6 267 13 q 339 0 307 0 l 728 0 q 786 8 765 0 q 817 31 807 15 q 831 68 828 46 q 833 118 833 90 l 833 917 m 875 117 q 842 -8 875 31 q 718 -46 808 -46 l 326 -46 q 216 -18 254 -46 q 163 81 178 10 l 0 847 l 192 847 l 192 958 l 528 958 l 528 847 l 542 847 l 542 958 l 875 958 l 875 117 m 506 1125 l 333 1125 l 539 958 l 597 958 l 506 1125 m 525 928 l 224 1160 l 524 1160 l 650 928 l 525 928 z "},"ú":{"ha":875,"x_min":0,"x_max":875,"o":"m 833 917 l 583 917 l 583 260 q 576 208 583 224 q 546 193 569 193 l 518 193 q 491 210 497 193 q 485 263 485 226 l 485 917 l 236 917 l 236 106 q 240 58 236 78 q 256 26 244 39 q 287 6 267 13 q 339 0 307 0 l 728 0 q 786 8 765 0 q 817 31 807 15 q 831 68 828 46 q 833 118 833 90 l 833 917 m 875 117 q 842 -8 875 31 q 718 -46 808 -46 l 326 -46 q 216 -18 254 -46 q 163 81 178 10 l 0 847 l 192 847 l 192 958 l 528 958 l 528 847 l 542 847 l 542 958 l 875 958 l 875 117 m 574 1125 l 485 958 l 542 958 l 747 1125 l 574 1125 m 857 1160 l 556 928 l 431 928 l 557 1160 l 857 1160 z "},"û":{"ha":875,"x_min":0,"x_max":875,"o":"m 833 917 l 583 917 l 583 260 q 576 208 583 224 q 546 193 569 193 l 518 193 q 491 210 497 193 q 485 263 485 226 l 485 917 l 236 917 l 236 106 q 240 58 236 78 q 256 26 244 39 q 287 6 267 13 q 339 0 307 0 l 728 0 q 786 8 765 0 q 817 31 807 15 q 831 68 828 46 q 833 118 833 90 l 833 917 m 875 117 q 842 -8 875 31 q 718 -46 808 -46 l 326 -46 q 216 -18 254 -46 q 163 81 178 10 l 0 847 l 192 847 l 192 958 l 528 958 l 528 847 l 542 847 l 542 958 l 875 958 l 875 117 m 536 1100 l 381 958 l 469 958 l 536 982 l 603 958 l 690 958 l 536 1100 m 596 917 l 536 939 l 476 917 l 274 917 l 536 1158 l 799 917 l 596 917 z "},"ü":{"ha":875,"x_min":0,"x_max":875,"o":"m 833 917 l 583 917 l 583 260 q 576 208 583 224 q 546 193 569 193 l 518 193 q 491 210 497 193 q 485 263 485 226 l 485 917 l 236 917 l 236 106 q 240 58 236 78 q 256 26 244 39 q 287 6 267 13 q 339 0 307 0 l 728 0 q 786 8 765 0 q 817 31 807 15 q 831 68 828 46 q 833 118 833 90 l 833 917 m 875 117 q 842 -8 875 31 q 718 -46 808 -46 l 326 -46 q 216 -18 254 -46 q 163 81 178 10 l 0 847 l 192 847 l 192 958 l 528 958 l 528 847 l 542 847 l 542 958 l 875 958 l 875 117 m 500 1013 q 484 1050 500 1035 q 446 1065 468 1065 q 408 1050 424 1065 q 393 1013 393 1035 q 408 975 393 990 q 446 960 424 960 q 484 975 468 960 q 500 1013 500 990 m 678 1013 q 661 1050 678 1035 q 622 1065 644 1065 q 585 1050 600 1065 q 569 1013 569 1035 q 585 975 569 990 q 622 960 600 960 q 661 975 644 960 q 678 1013 678 990 m 719 1013 q 691 944 719 972 q 622 917 663 917 q 569 933 593 917 q 535 976 546 949 q 500 933 524 949 q 446 917 476 917 q 378 944 407 917 q 350 1013 350 972 q 378 1080 350 1051 q 446 1108 407 1108 q 500 1091 476 1108 q 535 1047 524 1074 q 569 1091 546 1074 q 622 1108 593 1108 q 691 1080 663 1108 q 719 1013 719 1051 z "},"ý":{"ha":869,"x_min":0,"x_max":869,"o":"m 831 917 l 582 917 l 582 550 q 570 463 582 494 q 532 410 558 431 q 494 463 507 431 q 482 550 482 494 l 482 917 l 235 917 q 236 724 236 810 q 236 652 236 688 q 236 588 236 617 q 237 541 236 560 q 238 519 238 522 q 258 442 243 483 q 294 363 272 401 q 347 294 317 325 q 411 246 376 263 l 411 0 l 654 0 l 654 246 q 715 292 686 263 q 767 360 744 322 q 806 438 790 397 q 831 519 822 479 l 831 917 m 869 540 q 820 364 869 444 q 699 224 771 283 l 699 -46 l 364 -46 l 315 186 q 169 306 235 232 q 81 474 103 379 q 40 660 60 567 q 0 847 21 753 l 193 847 l 193 958 l 524 958 l 524 847 l 539 847 l 539 958 l 869 958 l 869 540 m 571 1125 l 482 958 l 539 958 l 744 1125 l 571 1125 m 854 1160 l 553 928 l 428 928 l 554 1160 l 854 1160 z "},"ÿ":{"ha":869,"x_min":0,"x_max":869,"o":"m 831 917 l 582 917 l 582 550 q 570 463 582 494 q 532 410 558 431 q 494 463 507 431 q 482 550 482 494 l 482 917 l 235 917 q 236 724 236 810 q 236 652 236 688 q 236 588 236 617 q 237 541 236 560 q 238 519 238 522 q 258 442 243 483 q 294 363 272 401 q 347 294 317 325 q 411 246 376 263 l 411 0 l 654 0 l 654 246 q 715 292 686 263 q 767 360 744 322 q 806 438 790 397 q 831 519 822 479 l 831 917 m 869 540 q 820 364 869 444 q 699 224 771 283 l 699 -46 l 364 -46 l 315 186 q 169 306 235 232 q 81 474 103 379 q 40 660 60 567 q 0 847 21 753 l 193 847 l 193 958 l 524 958 l 524 847 l 539 847 l 539 958 l 869 958 l 869 540 m 496 1013 q 480 1050 496 1035 q 442 1065 464 1065 q 404 1050 419 1065 q 389 1013 389 1035 q 404 975 389 990 q 442 960 419 960 q 480 975 464 960 q 496 1013 496 990 m 674 1013 q 657 1050 674 1035 q 618 1065 640 1065 q 581 1050 596 1065 q 565 1013 565 1035 q 581 975 565 990 q 618 960 596 960 q 657 975 640 960 q 674 1013 674 990 m 715 1013 q 687 944 715 972 q 618 917 658 917 q 565 933 589 917 q 531 976 542 949 q 496 933 519 949 q 442 917 472 917 q 374 944 403 917 q 346 1013 346 972 q 374 1080 346 1051 q 442 1108 403 1108 q 496 1091 472 1108 q 531 1047 519 1074 q 565 1091 542 1074 q 618 1108 589 1108 q 687 1080 658 1108 q 715 1013 715 1051 z "},"ž":{"ha":761,"x_min":0,"x_max":761,"o":"m 224 917 l 188 715 l 390 715 l 188 0 l 679 0 l 708 222 l 490 222 l 703 917 l 224 917 m 547 265 l 758 265 l 715 -46 l 128 -46 l 200 585 l 0 585 l 0 847 l 168 847 l 188 958 l 761 958 l 547 265 m 500 1117 l 433 1092 l 367 1117 l 278 1117 l 433 974 l 588 1117 l 500 1117 m 433 917 l 171 1158 l 374 1158 l 433 1136 l 493 1158 l 696 1158 l 433 917 z "}," ":{"ha":393,"x_min":0,"x_max":0,"o":""}}}
